<?xml version="1.0" encoding="UTF-8" standalone="no"?><svg xmlns="http://www.w3.org/2000/svg" xmlns:xlink="http://www.w3.org/1999/xlink" contentStyleType="text/css" height="863px" preserveAspectRatio="none" style="width:1088px;height:863px;background:#FFFFFF;" version="1.1" viewBox="0 0 1088 863" width="1088px" zoomAndPan="magnify"><defs/><g><!--MD5=[722d942bb6945e67ae3db7e10e3a300d]
class Buvable--><g id="elem_Buvable"><rect codeLine="1" fill="#F1F1F1" height="80.5938" id="Buvable" rx="2.5" ry="2.5" style="stroke:#181818;stroke-width:0.5;" width="117" x="606.4625" y="635"/><ellipse cx="633.6125" cy="651" fill="#B4A7E5" rx="11" ry="11" style="stroke:#181818;stroke-width:1.0;"/><path d="M634.5656,647.7813 L636.2844,647.7813 C636.675,647.7813 636.8625,647.75 636.9875,647.6719 C637.2531,647.5156 637.3938,647.2344 637.3938,646.9375 C637.3938,646.6719 637.2844,646.4063 637.05,646.2344 C636.8781,646.125 636.7375,646.0938 636.2844,646.0938 L631.1438,646.0938 C630.7063,646.0938 630.5813,646.1094 630.425,646.2031 C630.175,646.3594 630.0188,646.6563 630.0188,646.9375 C630.0188,647.2188 630.1594,647.4688 630.3781,647.6406 C630.5344,647.75 630.7219,647.7813 631.1438,647.7813 L632.8625,647.7813 L632.8625,654.2969 L631.1438,654.2969 C630.7063,654.2969 630.5813,654.3125 630.425,654.4219 C630.175,654.5781 630.0188,654.8594 630.0188,655.1563 C630.0188,655.4063 630.1594,655.6719 630.3781,655.8281 C630.5344,655.9531 630.7375,656 631.1438,656 L636.2844,656 C637.0344,656 637.3938,655.7188 637.3938,655.1563 C637.3938,654.875 637.2844,654.625 637.05,654.4531 C636.8781,654.3281 636.7375,654.2969 636.2844,654.2969 L634.5656,654.2969 L634.5656,647.7813 Z " fill="#000000"/><text fill="#000000" font-family="sans-serif" font-size="14" font-style="italic" lengthAdjust="spacing" textLength="58" x="650.3125" y="655.8467">Buvable</text><line style="stroke:#181818;stroke-width:0.5;" x1="607.4625" x2="722.4625" y1="667" y2="667"/><ellipse cx="617.4625" cy="680.6484" fill="none" rx="3" ry="3" style="stroke:#038048;stroke-width:1.0;"/><text fill="#000000" font-family="sans-serif" font-size="14" lengthAdjust="spacing" textLength="91" x="626.4625" y="683.9951">name: string</text><line style="stroke:#181818;stroke-width:0.5;" x1="607.4625" x2="722.4625" y1="691.2969" y2="691.2969"/><ellipse cx="617.4625" cy="704.9453" fill="#84BE84" rx="3" ry="3" style="stroke:#038048;stroke-width:1.0;"/><text fill="#000000" font-family="sans-serif" font-size="14" lengthAdjust="spacing" textLength="87" x="626.4625" y="708.292">boire(): void</text></g><!--MD5=[65087a0cc3befe16aa5ef0b3909e784a]
class Mangeable--><g id="elem_Mangeable"><rect codeLine="5" fill="#F1F1F1" height="96.8906" id="Mangeable" rx="2.5" ry="2.5" style="stroke:#181818;stroke-width:0.5;" width="298" x="515.9625" y="321"/><ellipse cx="621.2125" cy="337" fill="#B4A7E5" rx="11" ry="11" style="stroke:#181818;stroke-width:1.0;"/><path d="M622.1656,333.7813 L623.8844,333.7813 C624.275,333.7813 624.4625,333.75 624.5875,333.6719 C624.8531,333.5156 624.9938,333.2344 624.9938,332.9375 C624.9938,332.6719 624.8844,332.4063 624.65,332.2344 C624.4781,332.125 624.3375,332.0938 623.8844,332.0938 L618.7438,332.0938 C618.3063,332.0938 618.1813,332.1094 618.025,332.2031 C617.775,332.3594 617.6188,332.6563 617.6188,332.9375 C617.6188,333.2188 617.7594,333.4688 617.9781,333.6406 C618.1344,333.75 618.3219,333.7813 618.7438,333.7813 L620.4625,333.7813 L620.4625,340.2969 L618.7438,340.2969 C618.3063,340.2969 618.1813,340.3125 618.025,340.4219 C617.775,340.5781 617.6188,340.8594 617.6188,341.1563 C617.6188,341.4063 617.7594,341.6719 617.9781,341.8281 C618.1344,341.9531 618.3375,342 618.7438,342 L623.8844,342 C624.6344,342 624.9938,341.7188 624.9938,341.1563 C624.9938,340.875 624.8844,340.625 624.65,340.4531 C624.4781,340.3281 624.3375,340.2969 623.8844,340.2969 L622.1656,340.2969 L622.1656,333.7813 Z " fill="#000000"/><text fill="#000000" font-family="sans-serif" font-size="14" font-style="italic" lengthAdjust="spacing" textLength="79" x="641.7125" y="341.8467">Mangeable</text><line style="stroke:#181818;stroke-width:0.5;" x1="516.9625" x2="812.9625" y1="353" y2="353"/><ellipse cx="526.9625" cy="366.6484" fill="none" rx="3" ry="3" style="stroke:#038048;stroke-width:1.0;"/><text fill="#000000" font-family="sans-serif" font-size="14" lengthAdjust="spacing" textLength="91" x="535.9625" y="369.9951">name: string</text><line style="stroke:#181818;stroke-width:0.5;" x1="516.9625" x2="812.9625" y1="377.2969" y2="377.2969"/><ellipse cx="526.9625" cy="390.9453" fill="#84BE84" rx="3" ry="3" style="stroke:#038048;stroke-width:1.0;"/><text fill="#000000" font-family="sans-serif" font-size="14" lengthAdjust="spacing" textLength="104" x="535.9625" y="394.292">manger(): void</text><ellipse cx="526.9625" cy="407.2422" fill="#84BE84" rx="3" ry="3" style="stroke:#038048;stroke-width:1.0;"/><text fill="#000000" font-family="sans-serif" font-size="14" lengthAdjust="spacing" textLength="272" x="535.9625" y="410.5889">creerGouter(buvable: Buvable): string</text></g><!--MD5=[d261e8c42ef8df1c0914b3e6a3bedb0d]
class Zup--><g id="elem_Zup"><rect codeLine="10" fill="#F1F1F1" height="80.5938" id="Zup" rx="2.5" ry="2.5" style="stroke:#181818;stroke-width:0.5;" width="117" x="530.4625" y="776"/><ellipse cx="571.1125" cy="792" fill="#ADD1B2" rx="11" ry="11" style="stroke:#181818;stroke-width:1.0;"/><path d="M573.4563,787.6719 C572.5188,787.2344 571.925,787.0938 571.05,787.0938 C568.425,787.0938 566.425,789.1719 566.425,791.8906 L566.425,793.0156 C566.425,795.5938 568.5344,797.4844 571.425,797.4844 C572.6438,797.4844 573.8,797.1875 574.55,796.6406 C575.1281,796.2344 575.4563,795.7813 575.4563,795.3906 C575.4563,794.9375 575.0656,794.5469 574.5969,794.5469 C574.3781,794.5469 574.175,794.625 573.9875,794.8125 C573.5344,795.2969 573.5344,795.2969 573.3469,795.3906 C572.925,795.6563 572.2375,795.7813 571.4719,795.7813 C569.425,795.7813 568.1281,794.6875 568.1281,792.9844 L568.1281,791.8906 C568.1281,790.1094 569.3781,788.7969 571.1125,788.7969 C571.6906,788.7969 572.3,788.9531 572.7688,789.2031 C573.2531,789.4844 573.425,789.7031 573.5188,790.1094 C573.5813,790.5156 573.6125,790.6406 573.7531,790.7656 C573.8938,790.9063 574.1281,791.0156 574.3469,791.0156 C574.6125,791.0156 574.8781,790.875 575.05,790.6563 C575.1594,790.5 575.1906,790.3125 575.1906,789.8906 L575.1906,788.4688 C575.1906,788.0313 575.175,787.9063 575.0813,787.75 C574.925,787.4844 574.6438,787.3438 574.3469,787.3438 C574.05,787.3438 573.8469,787.4375 573.6281,787.75 L573.4563,787.6719 Z " fill="#000000"/><text fill="#000000" font-family="sans-serif" font-size="14" lengthAdjust="spacing" textLength="28" x="590.8125" y="796.8467">Zup</text><line style="stroke:#181818;stroke-width:0.5;" x1="531.4625" x2="646.4625" y1="808" y2="808"/><ellipse cx="541.4625" cy="821.6484" fill="none" rx="3" ry="3" style="stroke:#038048;stroke-width:1.0;"/><text fill="#000000" font-family="sans-serif" font-size="14" lengthAdjust="spacing" textLength="91" x="550.4625" y="824.9951">name: string</text><line style="stroke:#181818;stroke-width:0.5;" x1="531.4625" x2="646.4625" y1="832.2969" y2="832.2969"/><ellipse cx="541.4625" cy="845.9453" fill="#84BE84" rx="3" ry="3" style="stroke:#038048;stroke-width:1.0;"/><text fill="#000000" font-family="sans-serif" font-size="14" lengthAdjust="spacing" textLength="87" x="550.4625" y="849.292">boire(): void</text></g><!--MD5=[91843bb54274725d3cb6d56fa108e1ad]
class Kombucha--><g id="elem_Kombucha"><rect codeLine="14" fill="#F1F1F1" height="80.5938" id="Kombucha" rx="2.5" ry="2.5" style="stroke:#181818;stroke-width:0.5;" width="117" x="682.4625" y="776"/><ellipse cx="701.5125" cy="792" fill="#ADD1B2" rx="11" ry="11" style="stroke:#181818;stroke-width:1.0;"/><path d="M703.8562,787.6719 C702.9187,787.2344 702.325,787.0938 701.45,787.0938 C698.825,787.0938 696.825,789.1719 696.825,791.8906 L696.825,793.0156 C696.825,795.5938 698.9344,797.4844 701.825,797.4844 C703.0437,797.4844 704.2,797.1875 704.95,796.6406 C705.5281,796.2344 705.8562,795.7813 705.8562,795.3906 C705.8562,794.9375 705.4656,794.5469 704.9969,794.5469 C704.7781,794.5469 704.575,794.625 704.3875,794.8125 C703.9344,795.2969 703.9344,795.2969 703.7469,795.3906 C703.325,795.6563 702.6375,795.7813 701.8719,795.7813 C699.825,795.7813 698.5281,794.6875 698.5281,792.9844 L698.5281,791.8906 C698.5281,790.1094 699.7781,788.7969 701.5125,788.7969 C702.0906,788.7969 702.7,788.9531 703.1687,789.2031 C703.6531,789.4844 703.825,789.7031 703.9187,790.1094 C703.9812,790.5156 704.0125,790.6406 704.1531,790.7656 C704.2937,790.9063 704.5281,791.0156 704.7469,791.0156 C705.0125,791.0156 705.2781,790.875 705.45,790.6563 C705.5594,790.5 705.5906,790.3125 705.5906,789.8906 L705.5906,788.4688 C705.5906,788.0313 705.575,787.9063 705.4812,787.75 C705.325,787.4844 705.0437,787.3438 704.7469,787.3438 C704.45,787.3438 704.2469,787.4375 704.0281,787.75 L703.8562,787.6719 Z " fill="#000000"/><text fill="#000000" font-family="sans-serif" font-size="14" lengthAdjust="spacing" textLength="76" x="716.4125" y="796.8467">Kombucha</text><line style="stroke:#181818;stroke-width:0.5;" x1="683.4625" x2="798.4625" y1="808" y2="808"/><ellipse cx="693.4625" cy="821.6484" fill="none" rx="3" ry="3" style="stroke:#038048;stroke-width:1.0;"/><text fill="#000000" font-family="sans-serif" font-size="14" lengthAdjust="spacing" textLength="91" x="702.4625" y="824.9951">name: string</text><line style="stroke:#181818;stroke-width:0.5;" x1="683.4625" x2="798.4625" y1="832.2969" y2="832.2969"/><ellipse cx="693.4625" cy="845.9453" fill="#84BE84" rx="3" ry="3" style="stroke:#038048;stroke-width:1.0;"/><text fill="#000000" font-family="sans-serif" font-size="14" lengthAdjust="spacing" textLength="87" x="702.4625" y="849.292">boire(): void</text></g><!--MD5=[c55a5fe178370a5cde4ac8b1ef300c84]
class CookieSansGluten--><g id="elem_CookieSansGluten"><rect codeLine="18" fill="#F1F1F1" height="96.8906" id="CookieSansGluten" rx="2.5" ry="2.5" style="stroke:#181818;stroke-width:0.5;" width="298" x="182.9625" y="478"/><ellipse cx="262.2125" cy="494" fill="#ADD1B2" rx="11" ry="11" style="stroke:#181818;stroke-width:1.0;"/><path d="M264.5563,489.6719 C263.6188,489.2344 263.025,489.0938 262.15,489.0938 C259.525,489.0938 257.525,491.1719 257.525,493.8906 L257.525,495.0156 C257.525,497.5938 259.6344,499.4844 262.525,499.4844 C263.7438,499.4844 264.9,499.1875 265.65,498.6406 C266.2281,498.2344 266.5563,497.7813 266.5563,497.3906 C266.5563,496.9375 266.1656,496.5469 265.6969,496.5469 C265.4781,496.5469 265.275,496.625 265.0875,496.8125 C264.6344,497.2969 264.6344,497.2969 264.4469,497.3906 C264.025,497.6563 263.3375,497.7813 262.5719,497.7813 C260.525,497.7813 259.2281,496.6875 259.2281,494.9844 L259.2281,493.8906 C259.2281,492.1094 260.4781,490.7969 262.2125,490.7969 C262.7906,490.7969 263.4,490.9531 263.8688,491.2031 C264.3531,491.4844 264.525,491.7031 264.6188,492.1094 C264.6813,492.5156 264.7125,492.6406 264.8531,492.7656 C264.9938,492.9063 265.2281,493.0156 265.4469,493.0156 C265.7125,493.0156 265.9781,492.875 266.15,492.6563 C266.2594,492.5 266.2906,492.3125 266.2906,491.8906 L266.2906,490.4688 C266.2906,490.0313 266.275,489.9063 266.1813,489.75 C266.025,489.4844 265.7438,489.3438 265.4469,489.3438 C265.15,489.3438 264.9469,489.4375 264.7281,489.75 L264.5563,489.6719 Z " fill="#000000"/><text fill="#000000" font-family="sans-serif" font-size="14" lengthAdjust="spacing" textLength="131" x="282.7125" y="498.8467">CookieSansGluten</text><line style="stroke:#181818;stroke-width:0.5;" x1="183.9625" x2="479.9625" y1="510" y2="510"/><ellipse cx="193.9625" cy="523.6484" fill="none" rx="3" ry="3" style="stroke:#038048;stroke-width:1.0;"/><text fill="#000000" font-family="sans-serif" font-size="14" lengthAdjust="spacing" textLength="91" x="202.9625" y="526.9951">name: string</text><line style="stroke:#181818;stroke-width:0.5;" x1="183.9625" x2="479.9625" y1="534.2969" y2="534.2969"/><ellipse cx="193.9625" cy="547.9453" fill="#84BE84" rx="3" ry="3" style="stroke:#038048;stroke-width:1.0;"/><text fill="#000000" font-family="sans-serif" font-size="14" lengthAdjust="spacing" textLength="104" x="202.9625" y="551.292">manger(): void</text><ellipse cx="193.9625" cy="564.2422" fill="#84BE84" rx="3" ry="3" style="stroke:#038048;stroke-width:1.0;"/><text fill="#000000" font-family="sans-serif" font-size="14" lengthAdjust="spacing" textLength="272" x="202.9625" y="567.5889">creerGouter(buvable: Buvable): string</text></g><!--MD5=[a48211fc4ab2b595b2e8a98e55f849a2]
class Snickers--><g id="elem_Snickers"><rect codeLine="23" fill="#F1F1F1" height="96.8906" id="Snickers" rx="2.5" ry="2.5" style="stroke:#181818;stroke-width:0.5;" width="298" x="515.9625" y="478"/><ellipse cx="630.2125" cy="494" fill="#ADD1B2" rx="11" ry="11" style="stroke:#181818;stroke-width:1.0;"/><path d="M632.5563,489.6719 C631.6188,489.2344 631.025,489.0938 630.15,489.0938 C627.525,489.0938 625.525,491.1719 625.525,493.8906 L625.525,495.0156 C625.525,497.5938 627.6344,499.4844 630.525,499.4844 C631.7438,499.4844 632.9,499.1875 633.65,498.6406 C634.2281,498.2344 634.5563,497.7813 634.5563,497.3906 C634.5563,496.9375 634.1656,496.5469 633.6969,496.5469 C633.4781,496.5469 633.275,496.625 633.0875,496.8125 C632.6344,497.2969 632.6344,497.2969 632.4469,497.3906 C632.025,497.6563 631.3375,497.7813 630.5719,497.7813 C628.525,497.7813 627.2281,496.6875 627.2281,494.9844 L627.2281,493.8906 C627.2281,492.1094 628.4781,490.7969 630.2125,490.7969 C630.7906,490.7969 631.4,490.9531 631.8688,491.2031 C632.3531,491.4844 632.525,491.7031 632.6188,492.1094 C632.6813,492.5156 632.7125,492.6406 632.8531,492.7656 C632.9938,492.9063 633.2281,493.0156 633.4469,493.0156 C633.7125,493.0156 633.9781,492.875 634.15,492.6563 C634.2594,492.5 634.2906,492.3125 634.2906,491.8906 L634.2906,490.4688 C634.2906,490.0313 634.275,489.9063 634.1813,489.75 C634.025,489.4844 633.7438,489.3438 633.4469,489.3438 C633.15,489.3438 632.9469,489.4375 632.7281,489.75 L632.5563,489.6719 Z " fill="#000000"/><text fill="#000000" font-family="sans-serif" font-size="14" lengthAdjust="spacing" textLength="61" x="650.7125" y="498.8467">Snickers</text><line style="stroke:#181818;stroke-width:0.5;" x1="516.9625" x2="812.9625" y1="510" y2="510"/><ellipse cx="526.9625" cy="523.6484" fill="none" rx="3" ry="3" style="stroke:#038048;stroke-width:1.0;"/><text fill="#000000" font-family="sans-serif" font-size="14" lengthAdjust="spacing" textLength="91" x="535.9625" y="526.9951">name: string</text><line style="stroke:#181818;stroke-width:0.5;" x1="516.9625" x2="812.9625" y1="534.2969" y2="534.2969"/><ellipse cx="526.9625" cy="547.9453" fill="#84BE84" rx="3" ry="3" style="stroke:#038048;stroke-width:1.0;"/><text fill="#000000" font-family="sans-serif" font-size="14" lengthAdjust="spacing" textLength="104" x="535.9625" y="551.292">manger(): void</text><ellipse cx="526.9625" cy="564.2422" fill="#84BE84" rx="3" ry="3" style="stroke:#038048;stroke-width:1.0;"/><text fill="#000000" font-family="sans-serif" font-size="14" lengthAdjust="spacing" textLength="272" x="535.9625" y="567.5889">creerGouter(buvable: Buvable): string</text></g><!--MD5=[3f375bff71375829a53074a7ec43b503]
class Reserve--><g id="elem_Reserve"><rect codeLine="28" fill="#F1F1F1" height="80.5938" id="Reserve" rx="2.5" ry="2.5" style="stroke:#181818;stroke-width:0.5;" width="226" x="337.9625" y="7"/><ellipse cx="417.7125" cy="23" fill="#B4A7E5" rx="11" ry="11" style="stroke:#181818;stroke-width:1.0;"/><path d="M418.6656,19.7813 L420.3844,19.7813 C420.775,19.7813 420.9625,19.75 421.0875,19.6719 C421.3531,19.5156 421.4938,19.2344 421.4938,18.9375 C421.4938,18.6719 421.3844,18.4063 421.15,18.2344 C420.9781,18.125 420.8375,18.0938 420.3844,18.0938 L415.2438,18.0938 C414.8063,18.0938 414.6813,18.1094 414.525,18.2031 C414.275,18.3594 414.1188,18.6563 414.1188,18.9375 C414.1188,19.2188 414.2594,19.4688 414.4781,19.6406 C414.6344,19.75 414.8219,19.7813 415.2438,19.7813 L416.9625,19.7813 L416.9625,26.2969 L415.2438,26.2969 C414.8063,26.2969 414.6813,26.3125 414.525,26.4219 C414.275,26.5781 414.1188,26.8594 414.1188,27.1563 C414.1188,27.4063 414.2594,27.6719 414.4781,27.8281 C414.6344,27.9531 414.8375,28 415.2438,28 L420.3844,28 C421.1344,28 421.4938,27.7188 421.4938,27.1563 C421.4938,26.875 421.3844,26.625 421.15,26.4531 C420.9781,26.3281 420.8375,26.2969 420.3844,26.2969 L418.6656,26.2969 L418.6656,19.7813 Z " fill="#000000"/><text fill="#000000" font-family="sans-serif" font-size="14" font-style="italic" lengthAdjust="spacing" textLength="58" x="438.2125" y="27.8467">Reserve</text><line style="stroke:#181818;stroke-width:0.5;" x1="338.9625" x2="562.9625" y1="39" y2="39"/><line style="stroke:#181818;stroke-width:0.5;" x1="338.9625" x2="562.9625" y1="47" y2="47"/><ellipse cx="348.9625" cy="60.6484" fill="#84BE84" rx="3" ry="3" style="stroke:#038048;stroke-width:1.0;"/><text fill="#000000" font-family="sans-serif" font-size="14" lengthAdjust="spacing" textLength="158" x="357.9625" y="63.9951">getBuvable(): Buvable</text><ellipse cx="348.9625" cy="76.9453" fill="#84BE84" rx="3" ry="3" style="stroke:#038048;stroke-width:1.0;"/><text fill="#000000" font-family="sans-serif" font-size="14" lengthAdjust="spacing" textLength="200" x="357.9625" y="80.292">getMangeable(): Mangeable</text></g><!--MD5=[c7e612d24e949744360466fd1500321b]
class MagasinBio--><g id="elem_MagasinBio"><rect codeLine="32" fill="#F1F1F1" height="80.5938" id="MagasinBio" rx="2.5" ry="2.5" style="stroke:#181818;stroke-width:0.5;" width="226" x="855.9625" y="164"/><ellipse cx="924.7125" cy="180" fill="#ADD1B2" rx="11" ry="11" style="stroke:#181818;stroke-width:1.0;"/><path d="M927.0563,175.6719 C926.1188,175.2344 925.525,175.0938 924.65,175.0938 C922.025,175.0938 920.025,177.1719 920.025,179.8906 L920.025,181.0156 C920.025,183.5938 922.1344,185.4844 925.025,185.4844 C926.2438,185.4844 927.4,185.1875 928.15,184.6406 C928.7281,184.2344 929.0563,183.7813 929.0563,183.3906 C929.0563,182.9375 928.6656,182.5469 928.1969,182.5469 C927.9781,182.5469 927.775,182.625 927.5875,182.8125 C927.1344,183.2969 927.1344,183.2969 926.9469,183.3906 C926.525,183.6563 925.8375,183.7813 925.0719,183.7813 C923.025,183.7813 921.7281,182.6875 921.7281,180.9844 L921.7281,179.8906 C921.7281,178.1094 922.9781,176.7969 924.7125,176.7969 C925.2906,176.7969 925.9,176.9531 926.3688,177.2031 C926.8531,177.4844 927.025,177.7031 927.1188,178.1094 C927.1813,178.5156 927.2125,178.6406 927.3531,178.7656 C927.4938,178.9063 927.7281,179.0156 927.9469,179.0156 C928.2125,179.0156 928.4781,178.875 928.65,178.6563 C928.7594,178.5 928.7906,178.3125 928.7906,177.8906 L928.7906,176.4688 C928.7906,176.0313 928.775,175.9063 928.6813,175.75 C928.525,175.4844 928.2438,175.3438 927.9469,175.3438 C927.65,175.3438 927.4469,175.4375 927.2281,175.75 L927.0563,175.6719 Z " fill="#000000"/><text fill="#000000" font-family="sans-serif" font-size="14" lengthAdjust="spacing" textLength="80" x="945.2125" y="184.8467">MagasinBio</text><line style="stroke:#181818;stroke-width:0.5;" x1="856.9625" x2="1080.9625" y1="196" y2="196"/><line style="stroke:#181818;stroke-width:0.5;" x1="856.9625" x2="1080.9625" y1="204" y2="204"/><ellipse cx="866.9625" cy="217.6484" fill="#84BE84" rx="3" ry="3" style="stroke:#038048;stroke-width:1.0;"/><text fill="#000000" font-family="sans-serif" font-size="14" lengthAdjust="spacing" textLength="158" x="875.9625" y="220.9951">getBuvable(): Buvable</text><ellipse cx="866.9625" cy="233.9453" fill="#84BE84" rx="3" ry="3" style="stroke:#038048;stroke-width:1.0;"/><text fill="#000000" font-family="sans-serif" font-size="14" lengthAdjust="spacing" textLength="200" x="875.9625" y="237.292">getMangeable(): Mangeable</text></g><!--MD5=[edaf5161d3c50cd656574b5e0f46cebc]
class DistributeurAuto--><g id="elem_DistributeurAuto"><rect codeLine="36" fill="#F1F1F1" height="80.5938" id="DistributeurAuto" rx="2.5" ry="2.5" style="stroke:#181818;stroke-width:0.5;" width="226" x="254.9625" y="164"/><ellipse cx="303.2125" cy="180" fill="#ADD1B2" rx="11" ry="11" style="stroke:#181818;stroke-width:1.0;"/><path d="M305.5563,175.6719 C304.6188,175.2344 304.025,175.0938 303.15,175.0938 C300.525,175.0938 298.525,177.1719 298.525,179.8906 L298.525,181.0156 C298.525,183.5938 300.6344,185.4844 303.525,185.4844 C304.7438,185.4844 305.9,185.1875 306.65,184.6406 C307.2281,184.2344 307.5563,183.7813 307.5563,183.3906 C307.5563,182.9375 307.1656,182.5469 306.6969,182.5469 C306.4781,182.5469 306.275,182.625 306.0875,182.8125 C305.6344,183.2969 305.6344,183.2969 305.4469,183.3906 C305.025,183.6563 304.3375,183.7813 303.5719,183.7813 C301.525,183.7813 300.2281,182.6875 300.2281,180.9844 L300.2281,179.8906 C300.2281,178.1094 301.4781,176.7969 303.2125,176.7969 C303.7906,176.7969 304.4,176.9531 304.8688,177.2031 C305.3531,177.4844 305.525,177.7031 305.6188,178.1094 C305.6813,178.5156 305.7125,178.6406 305.8531,178.7656 C305.9938,178.9063 306.2281,179.0156 306.4469,179.0156 C306.7125,179.0156 306.9781,178.875 307.15,178.6563 C307.2594,178.5 307.2906,178.3125 307.2906,177.8906 L307.2906,176.4688 C307.2906,176.0313 307.275,175.9063 307.1813,175.75 C307.025,175.4844 306.7438,175.3438 306.4469,175.3438 C306.15,175.3438 305.9469,175.4375 305.7281,175.75 L305.5563,175.6719 Z " fill="#000000"/><text fill="#000000" font-family="sans-serif" font-size="14" lengthAdjust="spacing" textLength="121" x="323.7125" y="184.8467">DistributeurAuto</text><line style="stroke:#181818;stroke-width:0.5;" x1="255.9625" x2="479.9625" y1="196" y2="196"/><line style="stroke:#181818;stroke-width:0.5;" x1="255.9625" x2="479.9625" y1="204" y2="204"/><ellipse cx="265.9625" cy="217.6484" fill="#84BE84" rx="3" ry="3" style="stroke:#038048;stroke-width:1.0;"/><text fill="#000000" font-family="sans-serif" font-size="14" lengthAdjust="spacing" textLength="158" x="274.9625" y="220.9951">getBuvable(): Buvable</text><ellipse cx="265.9625" cy="233.9453" fill="#84BE84" rx="3" ry="3" style="stroke:#038048;stroke-width:1.0;"/><text fill="#000000" font-family="sans-serif" font-size="14" lengthAdjust="spacing" textLength="200" x="274.9625" y="237.292">getMangeable(): Mangeable</text></g><!--MD5=[4337fef93a4164fb5e17f09a2ace23d6]
class Personne--><g id="elem_Personne"><rect codeLine="40" fill="#F1F1F1" height="113.1875" id="Personne" rx="2.5" ry="2.5" style="stroke:#181818;stroke-width:0.5;" width="234" x="586.9625" y="148"/><ellipse cx="666.2125" cy="164" fill="#ADD1B2" rx="11" ry="11" style="stroke:#181818;stroke-width:1.0;"/><path d="M668.5563,159.6719 C667.6188,159.2344 667.025,159.0938 666.15,159.0938 C663.525,159.0938 661.525,161.1719 661.525,163.8906 L661.525,165.0156 C661.525,167.5938 663.6344,169.4844 666.525,169.4844 C667.7438,169.4844 668.9,169.1875 669.65,168.6406 C670.2281,168.2344 670.5563,167.7813 670.5563,167.3906 C670.5563,166.9375 670.1656,166.5469 669.6969,166.5469 C669.4781,166.5469 669.275,166.625 669.0875,166.8125 C668.6344,167.2969 668.6344,167.2969 668.4469,167.3906 C668.025,167.6563 667.3375,167.7813 666.5719,167.7813 C664.525,167.7813 663.2281,166.6875 663.2281,164.9844 L663.2281,163.8906 C663.2281,162.1094 664.4781,160.7969 666.2125,160.7969 C666.7906,160.7969 667.4,160.9531 667.8688,161.2031 C668.3531,161.4844 668.525,161.7031 668.6188,162.1094 C668.6813,162.5156 668.7125,162.6406 668.8531,162.7656 C668.9938,162.9063 669.2281,163.0156 669.4469,163.0156 C669.7125,163.0156 669.9781,162.875 670.15,162.6563 C670.2594,162.5 670.2906,162.3125 670.2906,161.8906 L670.2906,160.4688 C670.2906,160.0313 670.275,159.9063 670.1813,159.75 C670.025,159.4844 669.7438,159.3438 669.4469,159.3438 C669.15,159.3438 668.9469,159.4375 668.7281,159.75 L668.5563,159.6719 Z " fill="#000000"/><text fill="#000000" font-family="sans-serif" font-size="14" lengthAdjust="spacing" textLength="67" x="686.7125" y="168.8467">Personne</text><line style="stroke:#181818;stroke-width:0.5;" x1="587.9625" x2="819.9625" y1="180" y2="180"/><ellipse cx="597.9625" cy="193.6484" fill="none" rx="3" ry="3" style="stroke:#038048;stroke-width:1.0;"/><text fill="#000000" font-family="sans-serif" font-size="14" lengthAdjust="spacing" textLength="91" x="606.9625" y="196.9951">name: string</text><ellipse cx="597.9625" cy="209.9453" fill="none" rx="3" ry="3" style="stroke:#038048;stroke-width:1.0;"/><text fill="#000000" font-family="sans-serif" font-size="14" lengthAdjust="spacing" textLength="123" x="606.9625" y="213.292">buvable: Buvable</text><ellipse cx="597.9625" cy="226.2422" fill="none" rx="3" ry="3" style="stroke:#038048;stroke-width:1.0;"/><text fill="#000000" font-family="sans-serif" font-size="14" lengthAdjust="spacing" textLength="167" x="606.9625" y="229.5889">mangeable: Mangeable</text><line style="stroke:#181818;stroke-width:0.5;" x1="587.9625" x2="819.9625" y1="236.8906" y2="236.8906"/><ellipse cx="597.9625" cy="250.5391" fill="#84BE84" rx="3" ry="3" style="stroke:#038048;stroke-width:1.0;"/><text fill="#000000" font-family="sans-serif" font-size="14" lengthAdjust="spacing" textLength="208" x="606.9625" y="253.8857">apprecierSonGouter(): string</text></g><!--MD5=[947ee25b5a85950c0edc3208301c017e]
reverse link Buvable to Zup--><g id="link_Buvable_Zup"><path d="M633.4585,734.12 C625.8195,748.09 617.8205,762.7209 610.7445,775.6624 " fill="none" id="Buvable-backto-Zup" style="stroke:#181818;stroke-width:1.0;stroke-dasharray:7.0,7.0;"/><polygon fill="none" points="627.4475,730.522,643.1845,716.332,639.7315,737.238,627.4475,730.522" style="stroke:#181818;stroke-width:1.0;"/></g><!--MD5=[68c0c8fbc2239d7c01b832c545aaa4d7]
reverse link Buvable to Kombucha--><g id="link_Buvable_Kombucha"><path d="M696.4665,734.12 C704.1055,748.09 712.1045,762.7209 719.1805,775.6624 " fill="none" id="Buvable-backto-Kombucha" style="stroke:#181818;stroke-width:1.0;stroke-dasharray:7.0,7.0;"/><polygon fill="none" points="690.1945,737.238,686.7415,716.332,702.4775,730.522,690.1945,737.238" style="stroke:#181818;stroke-width:1.0;"/></g><!--MD5=[b58fdf8476411e586e2a3a4810ae4762]
reverse link Mangeable to CookieSansGluten--><g id="link_Mangeable_CookieSansGluten"><path d="M544.2485,426.688 C508.1775,443.478 468.9975,461.715 434.2305,477.898 " fill="none" id="Mangeable-backto-CookieSansGluten" style="stroke:#181818;stroke-width:1.0;stroke-dasharray:7.0,7.0;"/><polygon fill="none" points="541.7025,420.152,562.7885,418.058,547.6105,432.845,541.7025,420.152" style="stroke:#181818;stroke-width:1.0;"/></g><!--MD5=[a19eaba9be2d16c744a7a33549cb8628]
reverse link Mangeable to Snickers--><g id="link_Mangeable_Snickers"><path d="M664.9625,438.571 C664.9625,451.831 664.9625,465.464 664.9625,477.888 " fill="none" id="Mangeable-backto-Snickers" style="stroke:#181818;stroke-width:1.0;stroke-dasharray:7.0,7.0;"/><polygon fill="none" points="657.9625,438.27,664.9625,418.27,671.9625,438.27,657.9625,438.27" style="stroke:#181818;stroke-width:1.0;"/></g><!--MD5=[c9d8e5729314eba9479baafcf362327f]
reverse link Reserve to MagasinBio--><g id="link_Reserve_MagasinBio"><path d="M584.1025,77.341 C659.6745,95.025 755.5445,119.682 838.9625,148 C852.7895,152.694 867.2105,158.204 881.2045,163.897 " fill="none" id="Reserve-backto-MagasinBio" style="stroke:#181818;stroke-width:1.0;stroke-dasharray:7.0,7.0;"/><polygon fill="none" points="582.2595,84.099,564.3535,72.769,585.4165,70.46,582.2595,84.099" style="stroke:#181818;stroke-width:1.0;"/></g><!--MD5=[03430cef04d804519c97a273890bb2de]
reverse link Reserve to DistributeurAuto--><g id="link_Reserve_DistributeurAuto"><path d="M420.2875,105.786 C409.9585,125.074 398.6675,146.159 389.2275,163.789 " fill="none" id="Reserve-backto-DistributeurAuto" style="stroke:#181818;stroke-width:1.0;stroke-dasharray:7.0,7.0;"/><polygon fill="none" points="414.1915,102.341,429.8035,88.014,426.5335,108.95,414.1915,102.341" style="stroke:#181818;stroke-width:1.0;"/></g><!--MD5=[6c3ff6352bbc096b1a2841447ee914d6]
link Mangeable to Buvable--><g id="link_Mangeable_Buvable"><path codeLine="46" d="M773.6345,418.152 C796.9565,433.717 818.5865,453.482 831.9625,478 C852.6095,515.845 853.2615,537.518 831.9625,575 C809.8625,613.893 765.8775,639.186 728.5955,654.535 " fill="none" id="Mangeable-to-Buvable" style="stroke:#181818;stroke-width:1.0;"/><polygon fill="#181818" points="723.6165,656.542,733.4594,656.8857,728.2536,654.672,730.4674,649.4663,723.6165,656.542" style="stroke:#181818;stroke-width:1.0;"/><text fill="#000000" font-family="sans-serif" font-size="13" lengthAdjust="spacing" textLength="8" x="731.644" y="650.2535">1</text></g><!--MD5=[1acac7ba8bb6ec3f0dea66a802eb8a7d]
link CookieSansGluten to Buvable--><g id="link_CookieSansGluten_Buvable"><path codeLine="47" d="M439.6185,575.024 C493.0785,598.623 555.8265,626.323 601.5145,646.491 " fill="none" id="CookieSansGluten-to-Buvable" style="stroke:#181818;stroke-width:1.0;"/><polygon fill="#181818" points="606.1605,648.542,599.5415,641.249,601.5861,646.5234,596.3117,648.568,606.1605,648.542" style="stroke:#181818;stroke-width:1.0;"/><text fill="#000000" font-family="sans-serif" font-size="13" lengthAdjust="spacing" textLength="8" x="590.5065" y="641.4422">1</text></g><!--MD5=[255eb2062fda9af209fe34b5bfcd88c9]
link Snickers to Buvable--><g id="link_Snickers_Buvable"><path codeLine="48" d="M664.9625,575.227 C664.9625,592.701 664.9625,612.4 664.9625,629.617 " fill="none" id="Snickers-to-Buvable" style="stroke:#181818;stroke-width:1.0;"/><polygon fill="#181818" points="664.9625,634.876,668.9625,625.876,664.9625,629.876,660.9625,625.876,664.9625,634.876" style="stroke:#181818;stroke-width:1.0;"/><text fill="#000000" font-family="sans-serif" font-size="13" lengthAdjust="spacing" textLength="8" x="656.3" y="624.017">1</text></g><!--MD5=[70e820d6f853a005cb00f48176b64c6c]
link Reserve to Buvable--><g id="link_Reserve_Buvable"><path codeLine="49" d="M337.8635,83.729 C302.2555,99.07 264.9575,120.08 236.9625,148 C98.5118,286.081 6,424.602 130.9626,575 C190.1085,646.184 472.4715,666.704 600.9945,672.403 " fill="none" id="Reserve-to-Buvable" style="stroke:#181818;stroke-width:1.0;"/><polygon fill="#181818" points="606.2495,672.632,597.4317,668.2449,601.2542,672.4149,597.0843,676.2374,606.2495,672.632" style="stroke:#181818;stroke-width:1.0;"/><text fill="#000000" font-family="sans-serif" font-size="13" lengthAdjust="spacing" textLength="8" x="590.6064" y="668.4681">1</text></g><!--MD5=[fb5d777ee20ebfb0c9c0ba9925034657]
link Reserve to Mangeable--><g id="link_Reserve_Mangeable"><path codeLine="50" d="M469.6075,88.052 C491.0385,131.94 528.5015,204.076 568.9625,261 C582.6415,280.245 599.2805,299.909 614.8375,317.067 " fill="none" id="Reserve-to-Mangeable" style="stroke:#181818;stroke-width:1.0;"/><polygon fill="#181818" points="618.3465,320.916,615.238,311.5706,614.9775,317.2214,609.3267,316.9609,618.3465,320.916" style="stroke:#181818;stroke-width:1.0;"/><text fill="#000000" font-family="sans-serif" font-size="13" lengthAdjust="spacing" textLength="8" x="602.9123" y="309.7633">1</text></g><!--MD5=[0e59e2913ab775bb2c03d716b2619092]
link MagasinBio to Buvable--><g id="link_MagasinBio_Buvable"><path codeLine="51" d="M973.7675,245.218 C980.4025,318.761 983.8465,477.509 905.9625,575 C862.4925,629.413 784.2235,654.361 728.6855,665.607 " fill="none" id="MagasinBio-to-Buvable" style="stroke:#181818;stroke-width:1.0;"/><polygon fill="#181818" points="723.7215,666.588,733.3266,668.7657,728.6265,665.6179,731.7744,660.9178,723.7215,666.588" style="stroke:#181818;stroke-width:1.0;"/><text fill="#000000" font-family="sans-serif" font-size="13" lengthAdjust="spacing" textLength="8" x="731.3703" y="678.5157">1</text></g><!--MD5=[b44827f263511eb1fd28934c8ce3c221]
link MagasinBio to Mangeable--><g id="link_MagasinBio_Mangeable"><path codeLine="52" d="M894.9845,245.166 C853.7795,267.259 802.0805,294.98 758.1375,318.541 " fill="none" id="MagasinBio-to-Mangeable" style="stroke:#181818;stroke-width:1.0;"/><polygon fill="#181818" points="753.6375,320.954,763.4594,320.2253,758.0438,318.5908,759.6783,313.1753,753.6375,320.954" style="stroke:#181818;stroke-width:1.0;"/><text fill="#000000" font-family="sans-serif" font-size="13" lengthAdjust="spacing" textLength="8" x="758.0741" y="309.8069">1</text></g><!--MD5=[88c0538a8318378ae8ef1a7e53d9830d]
link DistributeurAuto to Buvable--><g id="link_DistributeurAuto_Buvable"><path codeLine="53" d="M316.8505,245.079 C231.2955,316.032 76.7442,467.496 164.9626,575 C219.5105,641.472 479.3015,664.36 601.3475,671.531 " fill="none" id="DistributeurAuto-to-Buvable" style="stroke:#181818;stroke-width:1.0;"/><polygon fill="#181818" points="606.3425,671.82,597.5884,667.3072,601.3508,671.5314,597.1266,675.2939,606.3425,671.82" style="stroke:#181818;stroke-width:1.0;"/><text fill="#000000" font-family="sans-serif" font-size="13" lengthAdjust="spacing" textLength="8" x="590.3193" y="684.4109">1</text></g><!--MD5=[7636f40b8aa0a46decf9799c07726e7a]
link DistributeurAuto to Mangeable--><g id="link_DistributeurAuto_Mangeable"><path codeLine="54" d="M440.2375,245.166 C480.4935,267.259 531.0025,294.98 573.9335,318.541 " fill="none" id="DistributeurAuto-to-Mangeable" style="stroke:#181818;stroke-width:1.0;"/><polygon fill="#181818" points="578.3295,320.954,572.3646,313.1169,573.9464,318.5481,568.5152,320.1299,578.3295,320.954" style="stroke:#181818;stroke-width:1.0;"/><text fill="#000000" font-family="sans-serif" font-size="13" lengthAdjust="spacing" textLength="8" x="557.0178" y="309.8069">1</text></g><!--MD5=[d1bdbde0cd2f8e268c34ef95bb3cd25c]
link Personne to Buvable--><g id="link_Personne_Buvable"><path codeLine="55" d="M781.3545,261.134 C800.4725,278.329 819.1295,298.686 831.9625,321 C888.7165,419.681 924.9075,478.224 864.9625,575 C835.4065,622.715 775.3475,648.281 728.7205,661.491 " fill="none" id="Personne-to-Buvable" style="stroke:#181818;stroke-width:1.0;"/><polygon fill="#181818" points="723.6795,662.886,733.4206,664.3392,728.4982,661.5517,731.2857,656.6293,723.6795,662.886" style="stroke:#181818;stroke-width:1.0;"/><text fill="#000000" font-family="sans-serif" font-size="13" lengthAdjust="spacing" textLength="8" x="731.3231" y="657.5343">1</text></g><!--MD5=[24c7e185604c6e3c318652f1876a2382]
link Personne to Mangeable--><g id="link_Personne_Mangeable"><path codeLine="56" d="M690.6505,261.139 C686.3945,278.927 681.6995,298.548 677.5005,316.097 " fill="none" id="Personne-to-Mangeable" style="stroke:#181818;stroke-width:1.0;"/><polygon fill="#181818" points="676.3305,320.988,682.3167,313.1671,677.495,316.1255,674.5367,311.3039,676.3305,320.988" style="stroke:#181818;stroke-width:1.0;"/><text fill="#000000" font-family="sans-serif" font-size="13" lengthAdjust="spacing" textLength="8" x="669.4127" y="309.8459">1</text></g><!--MD5=[404c974ee992ccae833b5652044e2e6f]
@startuml
interface Buvable {
    +name: string
    +boire(): void
}
interface Mangeable {
    +name: string
    +manger(): void
    +creerGouter(buvable: Buvable): string
}
class Zup implements Buvable {
    +name: string
    +boire(): void
}
class Kombucha implements Buvable {
    +name: string
    +boire(): void
}
class CookieSansGluten implements Mangeable {
    +name: string
    +manger(): void
    +creerGouter(buvable: Buvable): string
}
class Snickers implements Mangeable {
    +name: string
    +manger(): void
    +creerGouter(buvable: Buvable): string
}
interface Reserve {
    +getBuvable(): Buvable
    +getMangeable(): Mangeable
}
class MagasinBio implements Reserve {
    +getBuvable(): Buvable
    +getMangeable(): Mangeable
}
class DistributeurAuto implements Reserve {
    +getBuvable(): Buvable
    +getMangeable(): Mangeable
}
class Personne {
    +name: string
    +buvable: Buvable
    +mangeable: Mangeable
    +apprecierSonGouter(): string
}
Mangeable - -> "1" Buvable
CookieSansGluten - -> "1" Buvable
Snickers - -> "1" Buvable
Reserve - -> "1" Buvable
Reserve - -> "1" Mangeable
MagasinBio - -> "1" Buvable
MagasinBio - -> "1" Mangeable
DistributeurAuto - -> "1" Buvable
DistributeurAuto - -> "1" Mangeable
Personne - -> "1" Buvable
Personne - -> "1" Mangeable
@enduml

PlantUML version 1.2022.14beta1(Unknown compile time)
(GPL source distribution)
Java Runtime: Java(TM) SE Runtime Environment
JVM: Java HotSpot(TM) 64-Bit Server VM
Default Encoding: UTF-8
Language: en
Country: US
--></g></svg>