<?xml version="1.0" encoding="UTF-8" standalone="no"?><svg xmlns="http://www.w3.org/2000/svg" xmlns:xlink="http://www.w3.org/1999/xlink" contentStyleType="text/css" height="976px" preserveAspectRatio="none" style="width:1231px;height:976px;background:#FFFFFF;" version="1.1" viewBox="0 0 1231 976" width="1231px" zoomAndPan="magnify"><defs/><g><!--MD5=[5ba6fbdd0203daa445329a8d4879fde5]
class ProductName--><g id="elem_ProductName"><rect codeLine="1" fill="#F1F1F1" height="129.4844" id="ProductName" rx="2.5" ry="2.5" style="stroke:#181818;stroke-width:0.5;" width="129" x="516.0409" y="840"/><ellipse cx="531.0409" cy="856" fill="#EB937F" rx="11" ry="11" style="stroke:#181818;stroke-width:1.0;"/><path d="M529.8378,856.875 L531.2909,856.875 L531.2909,856.9844 C531.2909,857.3906 531.3222,857.5469 531.4003,857.7031 C531.5565,857.9531 531.8378,858.1094 532.1347,858.1094 C532.3847,858.1094 532.6503,857.9688 532.8065,857.75 C532.9315,857.5938 532.9628,857.4375 532.9628,856.9844 L532.9628,855.0625 C532.9628,854.9063 532.9628,854.8594 532.9472,854.7031 C532.8847,854.2344 532.5722,853.9219 532.119,853.9219 C531.869,853.9219 531.6034,854.0625 531.4315,854.2813 C531.3222,854.4531 531.2909,854.6094 531.2909,855.0625 L531.2909,855.1875 L529.8378,855.1875 L529.8378,852.7813 L533.8222,852.7813 L533.8222,853.6406 C533.8222,854.0469 533.8534,854.2188 533.9315,854.375 C534.1034,854.625 534.3847,854.7813 534.6659,854.7813 C534.9315,854.7813 535.1972,854.6406 535.369,854.4219 C535.4784,854.25 535.5097,854.1094 535.5097,853.6406 L535.5097,851.0938 L527.8847,851.0938 C527.4472,851.0938 527.3222,851.1094 527.1659,851.2031 C526.9159,851.3594 526.7597,851.6563 526.7597,851.9375 C526.7597,852.2188 526.9003,852.4688 527.119,852.6406 C527.2753,852.75 527.4628,852.7813 527.8847,852.7813 L528.1347,852.7813 L528.1347,859.2969 L527.8847,859.2969 C527.4784,859.2969 527.3222,859.3125 527.1659,859.4219 C526.9159,859.5938 526.7597,859.8594 526.7597,860.1563 C526.7597,860.4219 526.9003,860.6719 527.119,860.8281 C527.2597,860.9531 527.494,861 527.8847,861 L535.8847,861 L535.8847,858.4219 C535.8847,857.9844 535.8534,857.8438 535.7753,857.6875 C535.6034,857.4375 535.3222,857.2813 535.0409,857.2813 C534.7753,857.2813 534.5097,857.3906 534.3378,857.6406 C534.2284,857.7969 534.1972,857.9375 534.1972,858.4219 L534.1972,859.2969 L529.8378,859.2969 L529.8378,856.875 Z " fill="#000000"/><text fill="#000000" font-family="sans-serif" font-size="14" lengthAdjust="spacing" textLength="97" x="545.0409" y="860.8467">ProductName</text><line style="stroke:#181818;stroke-width:0.5;" x1="517.0409" x2="644.0409" y1="872" y2="872"/><text fill="#000000" font-family="sans-serif" font-size="14" lengthAdjust="spacing" textLength="98" x="522.0409" y="888.9951">McFirstPoulet</text><text fill="#000000" font-family="sans-serif" font-size="14" lengthAdjust="spacing" textLength="94" x="522.0409" y="905.292">McFirstBoeuf</text><text fill="#000000" font-family="sans-serif" font-size="14" lengthAdjust="spacing" textLength="78" x="522.0409" y="921.5889">GrandCoca</text><text fill="#000000" font-family="sans-serif" font-size="14" lengthAdjust="spacing" textLength="60" x="522.0409" y="937.8857">McFlurry</text><text fill="#000000" font-family="sans-serif" font-size="14" lengthAdjust="spacing" textLength="59" x="522.0409" y="954.1826">Nuggets</text><line style="stroke:#181818;stroke-width:0.5;" x1="517.0409" x2="644.0409" y1="961.4844" y2="961.4844"/></g><!--MD5=[666804d18c9825cff740aaf84bfc4e77]
class PaymentMethodsName--><g id="elem_PaymentMethodsName"><rect codeLine="8" fill="#F1F1F1" height="96.8906" id="PaymentMethodsName" rx="2.5" ry="2.5" style="stroke:#181818;stroke-width:0.5;" width="199" x="109.0409" y="204"/><ellipse cx="124.0409" cy="220" fill="#EB937F" rx="11" ry="11" style="stroke:#181818;stroke-width:1.0;"/><path d="M122.8378,220.875 L124.2909,220.875 L124.2909,220.9844 C124.2909,221.3906 124.3222,221.5469 124.4003,221.7031 C124.5565,221.9531 124.8378,222.1094 125.1347,222.1094 C125.3847,222.1094 125.6503,221.9688 125.8065,221.75 C125.9315,221.5938 125.9628,221.4375 125.9628,220.9844 L125.9628,219.0625 C125.9628,218.9063 125.9628,218.8594 125.9472,218.7031 C125.8847,218.2344 125.5722,217.9219 125.119,217.9219 C124.869,217.9219 124.6034,218.0625 124.4315,218.2813 C124.3222,218.4531 124.2909,218.6094 124.2909,219.0625 L124.2909,219.1875 L122.8378,219.1875 L122.8378,216.7813 L126.8222,216.7813 L126.8222,217.6406 C126.8222,218.0469 126.8534,218.2188 126.9315,218.375 C127.1034,218.625 127.3847,218.7813 127.6659,218.7813 C127.9315,218.7813 128.1972,218.6406 128.369,218.4219 C128.4784,218.25 128.5097,218.1094 128.5097,217.6406 L128.5097,215.0938 L120.8847,215.0938 C120.4472,215.0938 120.3222,215.1094 120.1659,215.2031 C119.9159,215.3594 119.7597,215.6563 119.7597,215.9375 C119.7597,216.2188 119.9003,216.4688 120.119,216.6406 C120.2753,216.75 120.4628,216.7813 120.8847,216.7813 L121.1347,216.7813 L121.1347,223.2969 L120.8847,223.2969 C120.4784,223.2969 120.3222,223.3125 120.1659,223.4219 C119.9159,223.5938 119.7597,223.8594 119.7597,224.1563 C119.7597,224.4219 119.9003,224.6719 120.119,224.8281 C120.2597,224.9531 120.494,225 120.8847,225 L128.8847,225 L128.8847,222.4219 C128.8847,221.9844 128.8534,221.8438 128.7753,221.6875 C128.6034,221.4375 128.3222,221.2813 128.0409,221.2813 C127.7753,221.2813 127.5097,221.3906 127.3378,221.6406 C127.2284,221.7969 127.1972,221.9375 127.1972,222.4219 L127.1972,223.2969 L122.8378,223.2969 L122.8378,220.875 Z " fill="#000000"/><text fill="#000000" font-family="sans-serif" font-size="14" lengthAdjust="spacing" textLength="167" x="138.0409" y="224.8467">PaymentMethodsName</text><line style="stroke:#181818;stroke-width:0.5;" x1="110.0409" x2="307.0409" y1="236" y2="236"/><text fill="#000000" font-family="sans-serif" font-size="14" lengthAdjust="spacing" textLength="20" x="115.0409" y="252.9951">CB</text><text fill="#000000" font-family="sans-serif" font-size="14" lengthAdjust="spacing" textLength="34" x="115.0409" y="269.292">Cash</text><text fill="#000000" font-family="sans-serif" font-size="14" lengthAdjust="spacing" textLength="70" x="115.0409" y="285.5889">DogeCoin</text><line style="stroke:#181818;stroke-width:0.5;" x1="110.0409" x2="307.0409" y1="292.8906" y2="292.8906"/></g><!--MD5=[9784a7be967dc407af679f33dcb8c24c]
class McProduct--><g id="elem_McProduct"><rect codeLine="13" fill="#F1F1F1" height="80.5938" id="McProduct" rx="2.5" ry="2.5" style="stroke:#181818;stroke-width:0.5;" width="172" x="494.5409" y="558"/><ellipse cx="539.2909" cy="574" fill="#B4A7E5" rx="11" ry="11" style="stroke:#181818;stroke-width:1.0;"/><path d="M540.244,570.7813 L541.9628,570.7813 C542.3534,570.7813 542.5409,570.75 542.6659,570.6719 C542.9315,570.5156 543.0722,570.2344 543.0722,569.9375 C543.0722,569.6719 542.9628,569.4063 542.7284,569.2344 C542.5565,569.125 542.4159,569.0938 541.9628,569.0938 L536.8222,569.0938 C536.3847,569.0938 536.2597,569.1094 536.1034,569.2031 C535.8534,569.3594 535.6972,569.6563 535.6972,569.9375 C535.6972,570.2188 535.8378,570.4688 536.0565,570.6406 C536.2128,570.75 536.4003,570.7813 536.8222,570.7813 L538.5409,570.7813 L538.5409,577.2969 L536.8222,577.2969 C536.3847,577.2969 536.2597,577.3125 536.1034,577.4219 C535.8534,577.5781 535.6972,577.8594 535.6972,578.1563 C535.6972,578.4063 535.8378,578.6719 536.0565,578.8281 C536.2128,578.9531 536.4159,579 536.8222,579 L541.9628,579 C542.7128,579 543.0722,578.7188 543.0722,578.1563 C543.0722,577.875 542.9628,577.625 542.7284,577.4531 C542.5565,577.3281 542.4159,577.2969 541.9628,577.2969 L540.244,577.2969 L540.244,570.7813 Z " fill="#000000"/><text fill="#000000" font-family="sans-serif" font-size="14" font-style="italic" lengthAdjust="spacing" textLength="74" x="559.7909" y="578.8467">McProduct</text><line style="stroke:#181818;stroke-width:0.5;" x1="495.5409" x2="665.5409" y1="590" y2="590"/><ellipse cx="505.5409" cy="603.6484" fill="none" rx="3" ry="3" style="stroke:#038048;stroke-width:1.0;"/><text fill="#000000" font-family="sans-serif" font-size="14" lengthAdjust="spacing" textLength="146" x="514.5409" y="606.9951">name: ProductName</text><ellipse cx="505.5409" cy="619.9453" fill="none" rx="3" ry="3" style="stroke:#038048;stroke-width:1.0;"/><text fill="#000000" font-family="sans-serif" font-size="14" lengthAdjust="spacing" textLength="102" x="514.5409" y="623.292">price: number</text><line style="stroke:#181818;stroke-width:0.5;" x1="495.5409" x2="665.5409" y1="630.5938" y2="630.5938"/></g><!--MD5=[b56ff13996191dd8e9c72788401aada4]
class McFirstBoeuf--><g id="elem_McFirstBoeuf"><rect codeLine="17" fill="#F1F1F1" height="80.5938" id="McFirstBoeuf" rx="2.5" ry="2.5" style="stroke:#181818;stroke-width:0.5;" width="172" x="80.5409" y="699"/><ellipse cx="116.2409" cy="715" fill="#ADD1B2" rx="11" ry="11" style="stroke:#181818;stroke-width:1.0;"/><path d="M118.5847,710.6719 C117.6472,710.2344 117.0534,710.0938 116.1784,710.0938 C113.5534,710.0938 111.5534,712.1719 111.5534,714.8906 L111.5534,716.0156 C111.5534,718.5938 113.6628,720.4844 116.5534,720.4844 C117.7722,720.4844 118.9284,720.1875 119.6784,719.6406 C120.2565,719.2344 120.5847,718.7813 120.5847,718.3906 C120.5847,717.9375 120.194,717.5469 119.7253,717.5469 C119.5065,717.5469 119.3034,717.625 119.1159,717.8125 C118.6628,718.2969 118.6628,718.2969 118.4753,718.3906 C118.0534,718.6563 117.3659,718.7813 116.6003,718.7813 C114.5534,718.7813 113.2565,717.6875 113.2565,715.9844 L113.2565,714.8906 C113.2565,713.1094 114.5065,711.7969 116.2409,711.7969 C116.819,711.7969 117.4284,711.9531 117.8972,712.2031 C118.3815,712.4844 118.5534,712.7031 118.6472,713.1094 C118.7097,713.5156 118.7409,713.6406 118.8815,713.7656 C119.0222,713.9063 119.2565,714.0156 119.4753,714.0156 C119.7409,714.0156 120.0065,713.875 120.1784,713.6563 C120.2878,713.5 120.319,713.3125 120.319,712.8906 L120.319,711.4688 C120.319,711.0313 120.3034,710.9063 120.2097,710.75 C120.0534,710.4844 119.7722,710.3438 119.4753,710.3438 C119.1784,710.3438 118.9753,710.4375 118.7565,710.75 L118.5847,710.6719 Z " fill="#000000"/><text fill="#000000" font-family="sans-serif" font-size="14" lengthAdjust="spacing" textLength="94" x="134.8409" y="719.8467">McFirstBoeuf</text><line style="stroke:#181818;stroke-width:0.5;" x1="81.5409" x2="251.5409" y1="731" y2="731"/><ellipse cx="91.5409" cy="744.6484" fill="none" rx="3" ry="3" style="stroke:#038048;stroke-width:1.0;"/><text fill="#000000" font-family="sans-serif" font-size="14" lengthAdjust="spacing" textLength="146" x="100.5409" y="747.9951">name: ProductName</text><ellipse cx="91.5409" cy="760.9453" fill="none" rx="3" ry="3" style="stroke:#038048;stroke-width:1.0;"/><text fill="#000000" font-family="sans-serif" font-size="14" lengthAdjust="spacing" textLength="102" x="100.5409" y="764.292">price: number</text><line style="stroke:#181818;stroke-width:0.5;" x1="81.5409" x2="251.5409" y1="771.5938" y2="771.5938"/></g><!--MD5=[c2a864150ffbc44336a9d954c2e52353]
class McFirstPoulet--><g id="elem_McFirstPoulet"><rect codeLine="21" fill="#F1F1F1" height="80.5938" id="McFirstPoulet" rx="2.5" ry="2.5" style="stroke:#181818;stroke-width:0.5;" width="172" x="287.5409" y="699"/><ellipse cx="321.4409" cy="715" fill="#ADD1B2" rx="11" ry="11" style="stroke:#181818;stroke-width:1.0;"/><path d="M323.7846,710.6719 C322.8471,710.2344 322.2534,710.0938 321.3784,710.0938 C318.7534,710.0938 316.7534,712.1719 316.7534,714.8906 L316.7534,716.0156 C316.7534,718.5938 318.8628,720.4844 321.7534,720.4844 C322.9721,720.4844 324.1284,720.1875 324.8784,719.6406 C325.4565,719.2344 325.7846,718.7813 325.7846,718.3906 C325.7846,717.9375 325.394,717.5469 324.9253,717.5469 C324.7065,717.5469 324.5034,717.625 324.3159,717.8125 C323.8628,718.2969 323.8628,718.2969 323.6753,718.3906 C323.2534,718.6563 322.5659,718.7813 321.8003,718.7813 C319.7534,718.7813 318.4565,717.6875 318.4565,715.9844 L318.4565,714.8906 C318.4565,713.1094 319.7065,711.7969 321.4409,711.7969 C322.019,711.7969 322.6284,711.9531 323.0971,712.2031 C323.5815,712.4844 323.7534,712.7031 323.8471,713.1094 C323.9096,713.5156 323.9409,713.6406 324.0815,713.7656 C324.2221,713.9063 324.4565,714.0156 324.6753,714.0156 C324.9409,714.0156 325.2065,713.875 325.3784,713.6563 C325.4878,713.5 325.519,713.3125 325.519,712.8906 L325.519,711.4688 C325.519,711.0313 325.5034,710.9063 325.4096,710.75 C325.2534,710.4844 324.9721,710.3438 324.6753,710.3438 C324.3784,710.3438 324.1753,710.4375 323.9565,710.75 L323.7846,710.6719 Z " fill="#000000"/><text fill="#000000" font-family="sans-serif" font-size="14" lengthAdjust="spacing" textLength="98" x="339.6409" y="719.8467">McFirstPoulet</text><line style="stroke:#181818;stroke-width:0.5;" x1="288.5409" x2="458.5409" y1="731" y2="731"/><ellipse cx="298.5409" cy="744.6484" fill="none" rx="3" ry="3" style="stroke:#038048;stroke-width:1.0;"/><text fill="#000000" font-family="sans-serif" font-size="14" lengthAdjust="spacing" textLength="146" x="307.5409" y="747.9951">name: ProductName</text><ellipse cx="298.5409" cy="760.9453" fill="none" rx="3" ry="3" style="stroke:#038048;stroke-width:1.0;"/><text fill="#000000" font-family="sans-serif" font-size="14" lengthAdjust="spacing" textLength="102" x="307.5409" y="764.292">price: number</text><line style="stroke:#181818;stroke-width:0.5;" x1="288.5409" x2="458.5409" y1="771.5938" y2="771.5938"/></g><!--MD5=[4fb288b23b548380b985f5ebc629c272]
class GrandCoca--><g id="elem_GrandCoca"><rect codeLine="25" fill="#F1F1F1" height="80.5938" id="GrandCoca" rx="2.5" ry="2.5" style="stroke:#181818;stroke-width:0.5;" width="172" x="494.5409" y="699"/><ellipse cx="537.4409" cy="715" fill="#ADD1B2" rx="11" ry="11" style="stroke:#181818;stroke-width:1.0;"/><path d="M539.7846,710.6719 C538.8471,710.2344 538.2534,710.0938 537.3784,710.0938 C534.7534,710.0938 532.7534,712.1719 532.7534,714.8906 L532.7534,716.0156 C532.7534,718.5938 534.8628,720.4844 537.7534,720.4844 C538.9721,720.4844 540.1284,720.1875 540.8784,719.6406 C541.4565,719.2344 541.7846,718.7813 541.7846,718.3906 C541.7846,717.9375 541.394,717.5469 540.9253,717.5469 C540.7065,717.5469 540.5034,717.625 540.3159,717.8125 C539.8628,718.2969 539.8628,718.2969 539.6753,718.3906 C539.2534,718.6563 538.5659,718.7813 537.8003,718.7813 C535.7534,718.7813 534.4565,717.6875 534.4565,715.9844 L534.4565,714.8906 C534.4565,713.1094 535.7065,711.7969 537.4409,711.7969 C538.019,711.7969 538.6284,711.9531 539.0971,712.2031 C539.5815,712.4844 539.7534,712.7031 539.8471,713.1094 C539.9096,713.5156 539.9409,713.6406 540.0815,713.7656 C540.2221,713.9063 540.4565,714.0156 540.6753,714.0156 C540.9409,714.0156 541.2065,713.875 541.3784,713.6563 C541.4878,713.5 541.519,713.3125 541.519,712.8906 L541.519,711.4688 C541.519,711.0313 541.5034,710.9063 541.4096,710.75 C541.2534,710.4844 540.9721,710.3438 540.6753,710.3438 C540.3784,710.3438 540.1753,710.4375 539.9565,710.75 L539.7846,710.6719 Z " fill="#000000"/><text fill="#000000" font-family="sans-serif" font-size="14" lengthAdjust="spacing" textLength="78" x="557.6409" y="719.8467">GrandCoca</text><line style="stroke:#181818;stroke-width:0.5;" x1="495.5409" x2="665.5409" y1="731" y2="731"/><ellipse cx="505.5409" cy="744.6484" fill="none" rx="3" ry="3" style="stroke:#038048;stroke-width:1.0;"/><text fill="#000000" font-family="sans-serif" font-size="14" lengthAdjust="spacing" textLength="146" x="514.5409" y="747.9951">name: ProductName</text><ellipse cx="505.5409" cy="760.9453" fill="none" rx="3" ry="3" style="stroke:#038048;stroke-width:1.0;"/><text fill="#000000" font-family="sans-serif" font-size="14" lengthAdjust="spacing" textLength="102" x="514.5409" y="764.292">price: number</text><line style="stroke:#181818;stroke-width:0.5;" x1="495.5409" x2="665.5409" y1="771.5938" y2="771.5938"/></g><!--MD5=[ac0cf4a6253588a8399cba876cf062ac]
class Nuggets--><g id="elem_Nuggets"><rect codeLine="29" fill="#F1F1F1" height="80.5938" id="Nuggets" rx="2.5" ry="2.5" style="stroke:#181818;stroke-width:0.5;" width="172" x="701.5409" y="699"/><ellipse cx="753.7909" cy="715" fill="#ADD1B2" rx="11" ry="11" style="stroke:#181818;stroke-width:1.0;"/><path d="M756.1347,710.6719 C755.1972,710.2344 754.6034,710.0938 753.7284,710.0938 C751.1034,710.0938 749.1034,712.1719 749.1034,714.8906 L749.1034,716.0156 C749.1034,718.5938 751.2128,720.4844 754.1034,720.4844 C755.3222,720.4844 756.4784,720.1875 757.2284,719.6406 C757.8065,719.2344 758.1347,718.7813 758.1347,718.3906 C758.1347,717.9375 757.744,717.5469 757.2753,717.5469 C757.0565,717.5469 756.8534,717.625 756.6659,717.8125 C756.2128,718.2969 756.2128,718.2969 756.0253,718.3906 C755.6034,718.6563 754.9159,718.7813 754.1503,718.7813 C752.1034,718.7813 750.8065,717.6875 750.8065,715.9844 L750.8065,714.8906 C750.8065,713.1094 752.0565,711.7969 753.7909,711.7969 C754.369,711.7969 754.9784,711.9531 755.4472,712.2031 C755.9315,712.4844 756.1034,712.7031 756.1972,713.1094 C756.2597,713.5156 756.2909,713.6406 756.4315,713.7656 C756.5722,713.9063 756.8065,714.0156 757.0253,714.0156 C757.2909,714.0156 757.5565,713.875 757.7284,713.6563 C757.8378,713.5 757.869,713.3125 757.869,712.8906 L757.869,711.4688 C757.869,711.0313 757.8534,710.9063 757.7597,710.75 C757.6034,710.4844 757.3222,710.3438 757.0253,710.3438 C756.7284,710.3438 756.5253,710.4375 756.3065,710.75 L756.1347,710.6719 Z " fill="#000000"/><text fill="#000000" font-family="sans-serif" font-size="14" lengthAdjust="spacing" textLength="59" x="774.2909" y="719.8467">Nuggets</text><line style="stroke:#181818;stroke-width:0.5;" x1="702.5409" x2="872.5409" y1="731" y2="731"/><ellipse cx="712.5409" cy="744.6484" fill="none" rx="3" ry="3" style="stroke:#038048;stroke-width:1.0;"/><text fill="#000000" font-family="sans-serif" font-size="14" lengthAdjust="spacing" textLength="146" x="721.5409" y="747.9951">name: ProductName</text><ellipse cx="712.5409" cy="760.9453" fill="none" rx="3" ry="3" style="stroke:#038048;stroke-width:1.0;"/><text fill="#000000" font-family="sans-serif" font-size="14" lengthAdjust="spacing" textLength="102" x="721.5409" y="764.292">price: number</text><line style="stroke:#181818;stroke-width:0.5;" x1="702.5409" x2="872.5409" y1="771.5938" y2="771.5938"/></g><!--MD5=[48fa07fd37d05de0799d85001c9da646]
class McFlurry--><g id="elem_McFlurry"><rect codeLine="33" fill="#F1F1F1" height="80.5938" id="McFlurry" rx="2.5" ry="2.5" style="stroke:#181818;stroke-width:0.5;" width="172" x="908.5409" y="699"/><ellipse cx="960.2909" cy="715" fill="#ADD1B2" rx="11" ry="11" style="stroke:#181818;stroke-width:1.0;"/><path d="M962.6347,710.6719 C961.6972,710.2344 961.1034,710.0938 960.2284,710.0938 C957.6034,710.0938 955.6034,712.1719 955.6034,714.8906 L955.6034,716.0156 C955.6034,718.5938 957.7128,720.4844 960.6034,720.4844 C961.8222,720.4844 962.9784,720.1875 963.7284,719.6406 C964.3065,719.2344 964.6347,718.7813 964.6347,718.3906 C964.6347,717.9375 964.244,717.5469 963.7753,717.5469 C963.5565,717.5469 963.3534,717.625 963.1659,717.8125 C962.7128,718.2969 962.7128,718.2969 962.5253,718.3906 C962.1034,718.6563 961.4159,718.7813 960.6503,718.7813 C958.6034,718.7813 957.3065,717.6875 957.3065,715.9844 L957.3065,714.8906 C957.3065,713.1094 958.5565,711.7969 960.2909,711.7969 C960.869,711.7969 961.4784,711.9531 961.9472,712.2031 C962.4315,712.4844 962.6034,712.7031 962.6972,713.1094 C962.7597,713.5156 962.7909,713.6406 962.9315,713.7656 C963.0722,713.9063 963.3065,714.0156 963.5253,714.0156 C963.7909,714.0156 964.0565,713.875 964.2284,713.6563 C964.3378,713.5 964.369,713.3125 964.369,712.8906 L964.369,711.4688 C964.369,711.0313 964.3534,710.9063 964.2597,710.75 C964.1034,710.4844 963.8222,710.3438 963.5253,710.3438 C963.2284,710.3438 963.0253,710.4375 962.8065,710.75 L962.6347,710.6719 Z " fill="#000000"/><text fill="#000000" font-family="sans-serif" font-size="14" lengthAdjust="spacing" textLength="60" x="980.7909" y="719.8467">McFlurry</text><line style="stroke:#181818;stroke-width:0.5;" x1="909.5409" x2="1079.5409" y1="731" y2="731"/><ellipse cx="919.5409" cy="744.6484" fill="none" rx="3" ry="3" style="stroke:#038048;stroke-width:1.0;"/><text fill="#000000" font-family="sans-serif" font-size="14" lengthAdjust="spacing" textLength="146" x="928.5409" y="747.9951">name: ProductName</text><ellipse cx="919.5409" cy="760.9453" fill="none" rx="3" ry="3" style="stroke:#038048;stroke-width:1.0;"/><text fill="#000000" font-family="sans-serif" font-size="14" lengthAdjust="spacing" textLength="102" x="928.5409" y="764.292">price: number</text><line style="stroke:#181818;stroke-width:0.5;" x1="909.5409" x2="1079.5409" y1="771.5938" y2="771.5938"/></g><!--MD5=[3fc1ddcda394f71eb20164285f59574c]
class McReserve--><g id="elem_McReserve"><rect codeLine="37" fill="#F1F1F1" height="129.4844" id="McReserve" rx="2.5" ry="2.5" style="stroke:#181818;stroke-width:0.5;" width="244" x="255.5409" y="369"/><ellipse cx="334.2909" cy="385" fill="#ADD1B2" rx="11" ry="11" style="stroke:#181818;stroke-width:1.0;"/><path d="M336.6347,380.6719 C335.6972,380.2344 335.1034,380.0938 334.2284,380.0938 C331.6034,380.0938 329.6034,382.1719 329.6034,384.8906 L329.6034,386.0156 C329.6034,388.5938 331.7128,390.4844 334.6034,390.4844 C335.8222,390.4844 336.9784,390.1875 337.7284,389.6406 C338.3065,389.2344 338.6347,388.7813 338.6347,388.3906 C338.6347,387.9375 338.244,387.5469 337.7753,387.5469 C337.5565,387.5469 337.3534,387.625 337.1659,387.8125 C336.7128,388.2969 336.7128,388.2969 336.5253,388.3906 C336.1034,388.6563 335.4159,388.7813 334.6503,388.7813 C332.6034,388.7813 331.3065,387.6875 331.3065,385.9844 L331.3065,384.8906 C331.3065,383.1094 332.5565,381.7969 334.2909,381.7969 C334.869,381.7969 335.4784,381.9531 335.9472,382.2031 C336.4315,382.4844 336.6034,382.7031 336.6972,383.1094 C336.7597,383.5156 336.7909,383.6406 336.9315,383.7656 C337.0722,383.9063 337.3065,384.0156 337.5253,384.0156 C337.7909,384.0156 338.0565,383.875 338.2284,383.6563 C338.3378,383.5 338.369,383.3125 338.369,382.8906 L338.369,381.4688 C338.369,381.0313 338.3534,380.9063 338.2597,380.75 C338.1034,380.4844 337.8222,380.3438 337.5253,380.3438 C337.2284,380.3438 337.0253,380.4375 336.8065,380.75 L336.6347,380.6719 Z " fill="#000000"/><text fill="#000000" font-family="sans-serif" font-size="14" lengthAdjust="spacing" textLength="78" x="354.7909" y="389.8467">McReserve</text><line style="stroke:#181818;stroke-width:0.5;" x1="256.5409" x2="498.5409" y1="401" y2="401"/><line style="stroke:#181818;stroke-width:0.5;" x1="256.5409" x2="498.5409" y1="409" y2="409"/><ellipse cx="266.5409" cy="422.6484" fill="#84BE84" rx="3" ry="3" style="stroke:#038048;stroke-width:1.0;"/><text fill="#000000" font-family="sans-serif" font-size="14" lengthAdjust="spacing" text-decoration="underline" textLength="179" x="275.5409" y="425.9951">getNuggets(): McProduct</text><ellipse cx="266.5409" cy="438.9453" fill="#84BE84" rx="3" ry="3" style="stroke:#038048;stroke-width:1.0;"/><text fill="#000000" font-family="sans-serif" font-size="14" lengthAdjust="spacing" text-decoration="underline" textLength="198" x="275.5409" y="442.292">getGrandCoca(): McProduct</text><ellipse cx="266.5409" cy="455.2422" fill="#84BE84" rx="3" ry="3" style="stroke:#038048;stroke-width:1.0;"/><text fill="#000000" font-family="sans-serif" font-size="14" lengthAdjust="spacing" text-decoration="underline" textLength="180" x="275.5409" y="458.5889">getMcFlurry(): McProduct</text><ellipse cx="266.5409" cy="471.5391" fill="#84BE84" rx="3" ry="3" style="stroke:#038048;stroke-width:1.0;"/><text fill="#000000" font-family="sans-serif" font-size="14" lengthAdjust="spacing" text-decoration="underline" textLength="214" x="275.5409" y="474.8857">getMcFirstBoeuf(): McProduct</text><ellipse cx="266.5409" cy="487.8359" fill="#84BE84" rx="3" ry="3" style="stroke:#038048;stroke-width:1.0;"/><text fill="#000000" font-family="sans-serif" font-size="14" lengthAdjust="spacing" text-decoration="underline" textLength="218" x="275.5409" y="491.1826">getMcFirstPoulet(): McProduct</text></g><!--MD5=[b8239bdc5781ff904c5b87158d179a41]
class Qte--><g id="elem_Qte"><rect codeLine="44" fill="#F1F1F1" height="80.5938" id="Qte" rx="2.5" ry="2.5" style="stroke:#181818;stroke-width:0.5;" width="189" x="606.0409" y="393"/><ellipse cx="682.7909" cy="409" fill="#ADD1B2" rx="11" ry="11" style="stroke:#181818;stroke-width:1.0;"/><path d="M685.1347,404.6719 C684.1972,404.2344 683.6034,404.0938 682.7284,404.0938 C680.1034,404.0938 678.1034,406.1719 678.1034,408.8906 L678.1034,410.0156 C678.1034,412.5938 680.2128,414.4844 683.1034,414.4844 C684.3222,414.4844 685.4784,414.1875 686.2284,413.6406 C686.8065,413.2344 687.1347,412.7813 687.1347,412.3906 C687.1347,411.9375 686.744,411.5469 686.2753,411.5469 C686.0565,411.5469 685.8534,411.625 685.6659,411.8125 C685.2128,412.2969 685.2128,412.2969 685.0253,412.3906 C684.6034,412.6563 683.9159,412.7813 683.1503,412.7813 C681.1034,412.7813 679.8065,411.6875 679.8065,409.9844 L679.8065,408.8906 C679.8065,407.1094 681.0565,405.7969 682.7909,405.7969 C683.369,405.7969 683.9784,405.9531 684.4472,406.2031 C684.9315,406.4844 685.1034,406.7031 685.1972,407.1094 C685.2597,407.5156 685.2909,407.6406 685.4315,407.7656 C685.5722,407.9063 685.8065,408.0156 686.0253,408.0156 C686.2909,408.0156 686.5565,407.875 686.7284,407.6563 C686.8378,407.5 686.869,407.3125 686.869,406.8906 L686.869,405.4688 C686.869,405.0313 686.8534,404.9063 686.7597,404.75 C686.6034,404.4844 686.3222,404.3438 686.0253,404.3438 C685.7284,404.3438 685.5253,404.4375 685.3065,404.75 L685.1347,404.6719 Z " fill="#000000"/><text fill="#000000" font-family="sans-serif" font-size="14" lengthAdjust="spacing" textLength="27" x="703.2909" y="413.8467">Qte</text><line style="stroke:#181818;stroke-width:0.5;" x1="607.0409" x2="794.0409" y1="425" y2="425"/><ellipse cx="617.0409" cy="438.6484" fill="none" rx="3" ry="3" style="stroke:#038048;stroke-width:1.0;"/><text fill="#000000" font-family="sans-serif" font-size="14" lengthAdjust="spacing" textLength="90" x="626.0409" y="441.9951">qte: number</text><ellipse cx="617.0409" cy="454.9453" fill="none" rx="3" ry="3" style="stroke:#038048;stroke-width:1.0;"/><text fill="#000000" font-family="sans-serif" font-size="14" lengthAdjust="spacing" textLength="163" x="626.0409" y="458.292">mcProduct: McProduct</text><line style="stroke:#181818;stroke-width:0.5;" x1="607.0409" x2="794.0409" y1="465.5938" y2="465.5938"/></g><!--MD5=[5966e65ec991dc36b37db3be72f739a6]
class ShoppingCart--><g id="elem_ShoppingCart"><rect codeLine="48" fill="#F1F1F1" height="113.1875" id="ShoppingCart" rx="2.5" ry="2.5" style="stroke:#181818;stroke-width:0.5;" width="306" x="399.5409" y="196"/><ellipse cx="498.2909" cy="212" fill="#ADD1B2" rx="11" ry="11" style="stroke:#181818;stroke-width:1.0;"/><path d="M500.6346,207.6719 C499.6971,207.2344 499.1034,207.0938 498.2284,207.0938 C495.6034,207.0938 493.6034,209.1719 493.6034,211.8906 L493.6034,213.0156 C493.6034,215.5938 495.7128,217.4844 498.6034,217.4844 C499.8221,217.4844 500.9784,217.1875 501.7284,216.6406 C502.3065,216.2344 502.6346,215.7813 502.6346,215.3906 C502.6346,214.9375 502.244,214.5469 501.7753,214.5469 C501.5565,214.5469 501.3534,214.625 501.1659,214.8125 C500.7128,215.2969 500.7128,215.2969 500.5253,215.3906 C500.1034,215.6563 499.4159,215.7813 498.6503,215.7813 C496.6034,215.7813 495.3065,214.6875 495.3065,212.9844 L495.3065,211.8906 C495.3065,210.1094 496.5565,208.7969 498.2909,208.7969 C498.869,208.7969 499.4784,208.9531 499.9471,209.2031 C500.4315,209.4844 500.6034,209.7031 500.6971,210.1094 C500.7596,210.5156 500.7909,210.6406 500.9315,210.7656 C501.0721,210.9063 501.3065,211.0156 501.5253,211.0156 C501.7909,211.0156 502.0565,210.875 502.2284,210.6563 C502.3378,210.5 502.369,210.3125 502.369,209.8906 L502.369,208.4688 C502.369,208.0313 502.3534,207.9063 502.2596,207.75 C502.1034,207.4844 501.8221,207.3438 501.5253,207.3438 C501.2284,207.3438 501.0253,207.4375 500.8065,207.75 L500.6346,207.6719 Z " fill="#000000"/><text fill="#000000" font-family="sans-serif" font-size="14" lengthAdjust="spacing" textLength="100" x="518.7909" y="216.8467">ShoppingCart</text><line style="stroke:#181818;stroke-width:0.5;" x1="400.5409" x2="704.5409" y1="228" y2="228"/><ellipse cx="410.5409" cy="241.6484" fill="none" rx="3" ry="3" style="stroke:#038048;stroke-width:1.0;"/><text fill="#000000" font-family="sans-serif" font-size="14" lengthAdjust="spacing" textLength="110" x="419.5409" y="244.9951">products: Qte[]</text><line style="stroke:#181818;stroke-width:0.5;" x1="400.5409" x2="704.5409" y1="252.2969" y2="252.2969"/><ellipse cx="410.5409" cy="265.9453" fill="#84BE84" rx="3" ry="3" style="stroke:#038048;stroke-width:1.0;"/><text fill="#000000" font-family="sans-serif" font-size="14" lengthAdjust="spacing" textLength="251" x="419.5409" y="269.292">addItem(product: McProduct): void</text><ellipse cx="410.5409" cy="282.2422" fill="#84BE84" rx="3" ry="3" style="stroke:#038048;stroke-width:1.0;"/><text fill="#000000" font-family="sans-serif" font-size="14" lengthAdjust="spacing" textLength="280" x="419.5409" y="285.5889">removeItem(product: McProduct): void</text><ellipse cx="410.5409" cy="298.5391" fill="#84BE84" rx="3" ry="3" style="stroke:#038048;stroke-width:1.0;"/><text fill="#000000" font-family="sans-serif" font-size="14" lengthAdjust="spacing" textLength="176" x="419.5409" y="301.8857">calcPriceTotal(): number</text></g><!--MD5=[9de4caa9f4083179ba6fd5537f789fab]
class PaymentMethods--><g id="elem_PaymentMethods"><rect codeLine="54" fill="#F1F1F1" height="64.2969" id="PaymentMethods" rx="2.5" ry="2.5" style="stroke:#181818;stroke-width:0.5;" width="154" x="865.5409" y="39.5"/><ellipse cx="880.5409" cy="55.5" fill="#B4A7E5" rx="11" ry="11" style="stroke:#181818;stroke-width:1.0;"/><path d="M881.494,52.2813 L883.2128,52.2813 C883.6034,52.2813 883.7909,52.25 883.9159,52.1719 C884.1815,52.0156 884.3222,51.7344 884.3222,51.4375 C884.3222,51.1719 884.2128,50.9063 883.9784,50.7344 C883.8065,50.625 883.6659,50.5938 883.2128,50.5938 L878.0722,50.5938 C877.6347,50.5938 877.5097,50.6094 877.3534,50.7031 C877.1034,50.8594 876.9472,51.1563 876.9472,51.4375 C876.9472,51.7188 877.0878,51.9688 877.3065,52.1406 C877.4628,52.25 877.6503,52.2813 878.0722,52.2813 L879.7909,52.2813 L879.7909,58.7969 L878.0722,58.7969 C877.6347,58.7969 877.5097,58.8125 877.3534,58.9219 C877.1034,59.0781 876.9472,59.3594 876.9472,59.6563 C876.9472,59.9063 877.0878,60.1719 877.3065,60.3281 C877.4628,60.4531 877.6659,60.5 878.0722,60.5 L883.2128,60.5 C883.9628,60.5 884.3222,60.2188 884.3222,59.6563 C884.3222,59.375 884.2128,59.125 883.9784,58.9531 C883.8065,58.8281 883.6659,58.7969 883.2128,58.7969 L881.494,58.7969 L881.494,52.2813 Z " fill="#000000"/><text fill="#000000" font-family="sans-serif" font-size="14" font-style="italic" lengthAdjust="spacing" textLength="122" x="894.5409" y="60.3467">PaymentMethods</text><line style="stroke:#181818;stroke-width:0.5;" x1="866.5409" x2="1018.5409" y1="71.5" y2="71.5"/><line style="stroke:#181818;stroke-width:0.5;" x1="866.5409" x2="1018.5409" y1="79.5" y2="79.5"/><ellipse cx="876.5409" cy="93.1484" fill="#84BE84" rx="3" ry="3" style="stroke:#038048;stroke-width:1.0;"/><text fill="#000000" font-family="sans-serif" font-size="14" lengthAdjust="spacing" textLength="85" x="885.5409" y="96.4951">call(): string</text></g><!--MD5=[f1dd9ddd94ec48b7fafe770f76a7e550]
class CB--><g id="elem_CB"><rect codeLine="57" fill="#F1F1F1" height="64.2969" id="CB" rx="2.5" ry="2.5" style="stroke:#181818;stroke-width:0.5;" width="111" x="741.0409" y="220.5"/><ellipse cx="782.5909" cy="236.5" fill="#ADD1B2" rx="11" ry="11" style="stroke:#181818;stroke-width:1.0;"/><path d="M784.9346,232.1719 C783.9971,231.7344 783.4034,231.5938 782.5284,231.5938 C779.9034,231.5938 777.9034,233.6719 777.9034,236.3906 L777.9034,237.5156 C777.9034,240.0938 780.0128,241.9844 782.9034,241.9844 C784.1221,241.9844 785.2784,241.6875 786.0284,241.1406 C786.6065,240.7344 786.9346,240.2813 786.9346,239.8906 C786.9346,239.4375 786.544,239.0469 786.0753,239.0469 C785.8565,239.0469 785.6534,239.125 785.4659,239.3125 C785.0128,239.7969 785.0128,239.7969 784.8253,239.8906 C784.4034,240.1563 783.7159,240.2813 782.9503,240.2813 C780.9034,240.2813 779.6065,239.1875 779.6065,237.4844 L779.6065,236.3906 C779.6065,234.6094 780.8565,233.2969 782.5909,233.2969 C783.169,233.2969 783.7784,233.4531 784.2471,233.7031 C784.7315,233.9844 784.9034,234.2031 784.9971,234.6094 C785.0596,235.0156 785.0909,235.1406 785.2315,235.2656 C785.3721,235.4063 785.6065,235.5156 785.8253,235.5156 C786.0909,235.5156 786.3565,235.375 786.5284,235.1563 C786.6378,235 786.669,234.8125 786.669,234.3906 L786.669,232.9688 C786.669,232.5313 786.6534,232.4063 786.5596,232.25 C786.4034,231.9844 786.1221,231.8438 785.8253,231.8438 C785.5284,231.8438 785.3253,231.9375 785.1065,232.25 L784.9346,232.1719 Z " fill="#000000"/><text fill="#000000" font-family="sans-serif" font-size="14" lengthAdjust="spacing" textLength="20" x="802.4909" y="241.3467">CB</text><line style="stroke:#181818;stroke-width:0.5;" x1="742.0409" x2="851.0409" y1="252.5" y2="252.5"/><line style="stroke:#181818;stroke-width:0.5;" x1="742.0409" x2="851.0409" y1="260.5" y2="260.5"/><ellipse cx="752.0409" cy="274.1484" fill="#84BE84" rx="3" ry="3" style="stroke:#038048;stroke-width:1.0;"/><text fill="#000000" font-family="sans-serif" font-size="14" lengthAdjust="spacing" textLength="85" x="761.0409" y="277.4951">call(): string</text></g><!--MD5=[422d6beab778cf6f724f28d21633e6df]
class Cash--><g id="elem_Cash"><rect codeLine="60" fill="#F1F1F1" height="64.2969" id="Cash" rx="2.5" ry="2.5" style="stroke:#181818;stroke-width:0.5;" width="111" x="887.0409" y="220.5"/><ellipse cx="922.2909" cy="236.5" fill="#ADD1B2" rx="11" ry="11" style="stroke:#181818;stroke-width:1.0;"/><path d="M924.6347,232.1719 C923.6972,231.7344 923.1034,231.5938 922.2284,231.5938 C919.6034,231.5938 917.6034,233.6719 917.6034,236.3906 L917.6034,237.5156 C917.6034,240.0938 919.7128,241.9844 922.6034,241.9844 C923.8222,241.9844 924.9784,241.6875 925.7284,241.1406 C926.3065,240.7344 926.6347,240.2813 926.6347,239.8906 C926.6347,239.4375 926.244,239.0469 925.7753,239.0469 C925.5565,239.0469 925.3534,239.125 925.1659,239.3125 C924.7128,239.7969 924.7128,239.7969 924.5253,239.8906 C924.1034,240.1563 923.4159,240.2813 922.6503,240.2813 C920.6034,240.2813 919.3065,239.1875 919.3065,237.4844 L919.3065,236.3906 C919.3065,234.6094 920.5565,233.2969 922.2909,233.2969 C922.869,233.2969 923.4784,233.4531 923.9472,233.7031 C924.4315,233.9844 924.6034,234.2031 924.6972,234.6094 C924.7597,235.0156 924.7909,235.1406 924.9315,235.2656 C925.0722,235.4063 925.3065,235.5156 925.5253,235.5156 C925.7909,235.5156 926.0565,235.375 926.2284,235.1563 C926.3378,235 926.369,234.8125 926.369,234.3906 L926.369,232.9688 C926.369,232.5313 926.3534,232.4063 926.2597,232.25 C926.1034,231.9844 925.8222,231.8438 925.5253,231.8438 C925.2284,231.8438 925.0253,231.9375 924.8065,232.25 L924.6347,232.1719 Z " fill="#000000"/><text fill="#000000" font-family="sans-serif" font-size="14" lengthAdjust="spacing" textLength="34" x="940.7909" y="241.3467">Cash</text><line style="stroke:#181818;stroke-width:0.5;" x1="888.0409" x2="997.0409" y1="252.5" y2="252.5"/><line style="stroke:#181818;stroke-width:0.5;" x1="888.0409" x2="997.0409" y1="260.5" y2="260.5"/><ellipse cx="898.0409" cy="274.1484" fill="#84BE84" rx="3" ry="3" style="stroke:#038048;stroke-width:1.0;"/><text fill="#000000" font-family="sans-serif" font-size="14" lengthAdjust="spacing" textLength="85" x="907.0409" y="277.4951">call(): string</text></g><!--MD5=[3ee84777b68c987f2d419e0db993d2d3]
class DogeCoin--><g id="elem_DogeCoin"><rect codeLine="63" fill="#F1F1F1" height="64.2969" id="DogeCoin" rx="2.5" ry="2.5" style="stroke:#181818;stroke-width:0.5;" width="111" x="1033.0369" y="220.5"/><ellipse cx="1052.0869" cy="236.5" fill="#ADD1B2" rx="11" ry="11" style="stroke:#181818;stroke-width:1.0;"/><path d="M1054.4307,232.1719 C1053.4932,231.7344 1052.8994,231.5938 1052.0244,231.5938 C1049.3994,231.5938 1047.3994,233.6719 1047.3994,236.3906 L1047.3994,237.5156 C1047.3994,240.0938 1049.5088,241.9844 1052.3994,241.9844 C1053.6182,241.9844 1054.7744,241.6875 1055.5244,241.1406 C1056.1025,240.7344 1056.4307,240.2813 1056.4307,239.8906 C1056.4307,239.4375 1056.04,239.0469 1055.5713,239.0469 C1055.3525,239.0469 1055.1494,239.125 1054.9619,239.3125 C1054.5088,239.7969 1054.5088,239.7969 1054.3213,239.8906 C1053.8994,240.1563 1053.2119,240.2813 1052.4463,240.2813 C1050.3994,240.2813 1049.1025,239.1875 1049.1025,237.4844 L1049.1025,236.3906 C1049.1025,234.6094 1050.3525,233.2969 1052.0869,233.2969 C1052.665,233.2969 1053.2744,233.4531 1053.7432,233.7031 C1054.2275,233.9844 1054.3994,234.2031 1054.4932,234.6094 C1054.5557,235.0156 1054.5869,235.1406 1054.7275,235.2656 C1054.8682,235.4063 1055.1025,235.5156 1055.3213,235.5156 C1055.5869,235.5156 1055.8525,235.375 1056.0244,235.1563 C1056.1338,235 1056.165,234.8125 1056.165,234.3906 L1056.165,232.9688 C1056.165,232.5313 1056.1494,232.4063 1056.0557,232.25 C1055.8994,231.9844 1055.6182,231.8438 1055.3213,231.8438 C1055.0244,231.8438 1054.8213,231.9375 1054.6025,232.25 L1054.4307,232.1719 Z " fill="#000000"/><text fill="#000000" font-family="sans-serif" font-size="14" lengthAdjust="spacing" textLength="70" x="1066.9869" y="241.3467">DogeCoin</text><line style="stroke:#181818;stroke-width:0.5;" x1="1034.0369" x2="1143.0369" y1="252.5" y2="252.5"/><line style="stroke:#181818;stroke-width:0.5;" x1="1034.0369" x2="1143.0369" y1="260.5" y2="260.5"/><ellipse cx="1044.0369" cy="274.1484" fill="#84BE84" rx="3" ry="3" style="stroke:#038048;stroke-width:1.0;"/><text fill="#000000" font-family="sans-serif" font-size="14" lengthAdjust="spacing" textLength="85" x="1053.0369" y="277.4951">call(): string</text></g><!--MD5=[8ffb42441293bbc42fb885a7a42953f3]
class McDoDrive--><g id="elem_McDoDrive"><rect codeLine="66" fill="#F1F1F1" height="129.4844" id="McDoDrive" rx="2.5" ry="2.5" style="stroke:#181818;stroke-width:0.5;" width="346" x="35.5409" y="7"/><ellipse cx="165.2909" cy="23" fill="#ADD1B2" rx="11" ry="11" style="stroke:#181818;stroke-width:1.0;"/><path d="M167.6347,18.6719 C166.6972,18.2344 166.1034,18.0938 165.2284,18.0938 C162.6034,18.0938 160.6034,20.1719 160.6034,22.8906 L160.6034,24.0156 C160.6034,26.5938 162.7128,28.4844 165.6034,28.4844 C166.8222,28.4844 167.9784,28.1875 168.7284,27.6406 C169.3065,27.2344 169.6347,26.7813 169.6347,26.3906 C169.6347,25.9375 169.244,25.5469 168.7753,25.5469 C168.5565,25.5469 168.3534,25.625 168.1659,25.8125 C167.7128,26.2969 167.7128,26.2969 167.5253,26.3906 C167.1034,26.6563 166.4159,26.7813 165.6503,26.7813 C163.6034,26.7813 162.3065,25.6875 162.3065,23.9844 L162.3065,22.8906 C162.3065,21.1094 163.5565,19.7969 165.2909,19.7969 C165.869,19.7969 166.4784,19.9531 166.9472,20.2031 C167.4315,20.4844 167.6034,20.7031 167.6972,21.1094 C167.7597,21.5156 167.7909,21.6406 167.9315,21.7656 C168.0722,21.9063 168.3065,22.0156 168.5253,22.0156 C168.7909,22.0156 169.0565,21.875 169.2284,21.6563 C169.3378,21.5 169.369,21.3125 169.369,20.8906 L169.369,19.4688 C169.369,19.0313 169.3534,18.9063 169.2597,18.75 C169.1034,18.4844 168.8222,18.3438 168.5253,18.3438 C168.2284,18.3438 168.0253,18.4375 167.8065,18.75 L167.6347,18.6719 Z " fill="#000000"/><text fill="#000000" font-family="sans-serif" font-size="14" lengthAdjust="spacing" textLength="78" x="185.7909" y="27.8467">McDoDrive</text><line style="stroke:#181818;stroke-width:0.5;" x1="36.5409" x2="380.5409" y1="39" y2="39"/><ellipse cx="46.5409" cy="52.6484" fill="none" rx="3" ry="3" style="stroke:#038048;stroke-width:1.0;"/><text fill="#000000" font-family="sans-serif" font-size="14" lengthAdjust="spacing" textLength="138" x="55.5409" y="55.9951">cart: ShoppingCart</text><line style="stroke:#181818;stroke-width:0.5;" x1="36.5409" x2="380.5409" y1="63.2969" y2="63.2969"/><ellipse cx="46.5409" cy="76.9453" fill="#84BE84" rx="3" ry="3" style="stroke:#038048;stroke-width:1.0;"/><text fill="#000000" font-family="sans-serif" font-size="14" lengthAdjust="spacing" textLength="277" x="55.5409" y="80.292">pickItem(product: ProductName): void</text><ellipse cx="46.5409" cy="93.2422" fill="#84BE84" rx="3" ry="3" style="stroke:#038048;stroke-width:1.0;"/><text fill="#000000" font-family="sans-serif" font-size="14" lengthAdjust="spacing" textLength="301" x="55.5409" y="96.5889">removeItem(product: ProductName): void</text><ellipse cx="46.5409" cy="109.5391" fill="#84BE84" rx="3" ry="3" style="stroke:#038048;stroke-width:1.0;"/><text fill="#000000" font-family="sans-serif" font-size="14" lengthAdjust="spacing" textLength="132" x="55.5409" y="112.8857">command(): string</text><ellipse cx="46.5409" cy="125.8359" fill="#84BE84" rx="3" ry="3" style="stroke:#038048;stroke-width:1.0;"/><text fill="#000000" font-family="sans-serif" font-size="14" lengthAdjust="spacing" textLength="320" x="55.5409" y="129.1826">pay(method: PaymentMethodsName): string</text></g><!--MD5=[2e59135eba5949d3d1fb943b533d1e3b]
reverse link McProduct to McFirstBoeuf--><g id="link_McProduct_McFirstBoeuf"><path d="M474.8959,631.671 C414.4809,650.475 337.4409,675.14 269.5409,699 C264.0299,700.937 258.3699,702.972 252.6749,705.056 " fill="none" id="McProduct-backto-McFirstBoeuf" style="stroke:#181818;stroke-width:1.0;stroke-dasharray:7.0,7.0;"/><polygon fill="none" points="473.1259,624.891,494.3019,625.654,477.2719,638.263,473.1259,624.891" style="stroke:#181818;stroke-width:1.0;"/></g><!--MD5=[8c7d7414fd1ae2bea0982889edce21ec]
reverse link McProduct to McFirstPoulet--><g id="link_McProduct_McFirstPoulet"><path d="M504.6579,650.455 C480.9119,666.401 455.0729,683.751 432.6599,698.802 " fill="none" id="McProduct-backto-McFirstPoulet" style="stroke:#181818;stroke-width:1.0;stroke-dasharray:7.0,7.0;"/><polygon fill="none" points="500.9939,644.484,521.4999,639.146,508.7989,656.107,500.9939,644.484" style="stroke:#181818;stroke-width:1.0;"/></g><!--MD5=[46d67bdd353e95f18367477d148235b9]
reverse link McProduct to GrandCoca--><g id="link_McProduct_GrandCoca"><path d="M580.5409,659.48 C580.5409,672.729 580.5409,686.448 580.5409,698.662 " fill="none" id="McProduct-backto-GrandCoca" style="stroke:#181818;stroke-width:1.0;stroke-dasharray:7.0,7.0;"/><polygon fill="none" points="573.5409,659.332,580.5409,639.332,587.5409,659.332,573.5409,659.332" style="stroke:#181818;stroke-width:1.0;"/></g><!--MD5=[9efe2a0b72371c03c4bd41773d0a1f5a]
reverse link McProduct to Nuggets--><g id="link_McProduct_Nuggets"><path d="M656.4239,650.455 C680.1699,666.401 706.0089,683.751 728.4219,698.802 " fill="none" id="McProduct-backto-Nuggets" style="stroke:#181818;stroke-width:1.0;stroke-dasharray:7.0,7.0;"/><polygon fill="none" points="652.2829,656.107,639.5819,639.146,660.0879,644.484,652.2829,656.107" style="stroke:#181818;stroke-width:1.0;"/></g><!--MD5=[9d24e219f34c9fbc060d5b27c0fab451]
reverse link McProduct to McFlurry--><g id="link_McProduct_McFlurry"><path d="M686.1299,631.883 C746.2919,650.71 822.9329,675.329 890.5409,699 C896.3739,701.042 902.3739,703.191 908.4079,705.388 " fill="none" id="McProduct-backto-McFlurry" style="stroke:#181818;stroke-width:1.0;stroke-dasharray:7.0,7.0;"/><polygon fill="none" points="683.8119,638.493,666.8029,625.856,687.9799,625.128,683.8119,638.493" style="stroke:#181818;stroke-width:1.0;"/></g><!--MD5=[20c7d48fccc006fa1724f2c10dfc734f]
reverse link PaymentMethods to CB--><g id="link_PaymentMethods_CB"><path d="M904.3159,119.365 C878.3259,151.23 844.6599,192.504 821.9249,220.378 " fill="none" id="PaymentMethods-backto-CB" style="stroke:#181818;stroke-width:1.0;stroke-dasharray:7.0,7.0;"/><polygon fill="none" points="899.0439,114.753,917.1099,103.679,909.8929,123.602,899.0439,114.753" style="stroke:#181818;stroke-width:1.0;"/></g><!--MD5=[fb2139207bff48afa5528aa0a7e091ec]
reverse link PaymentMethods to Cash--><g id="link_PaymentMethods_Cash"><path d="M942.5409,123.807 C942.5409,154.988 942.5409,193.783 942.5409,220.378 " fill="none" id="PaymentMethods-backto-Cash" style="stroke:#181818;stroke-width:1.0;stroke-dasharray:7.0,7.0;"/><polygon fill="none" points="935.5409,123.679,942.5409,103.679,949.5409,123.679,935.5409,123.679" style="stroke:#181818;stroke-width:1.0;"/></g><!--MD5=[d66335824a3e58146742295173ac6184]
reverse link PaymentMethods to DogeCoin--><g id="link_PaymentMethods_DogeCoin"><path d="M980.7659,119.365 C1006.7569,151.23 1040.4169,192.504 1063.1569,220.378 " fill="none" id="PaymentMethods-backto-DogeCoin" style="stroke:#181818;stroke-width:1.0;stroke-dasharray:7.0,7.0;"/><polygon fill="none" points="975.1889,123.602,967.9719,103.679,986.0379,114.753,975.1889,123.602" style="stroke:#181818;stroke-width:1.0;"/></g><!--MD5=[986a92ae5e33995901337ef7a0997e47]
link McProduct to ProductName--><g id="link_McProduct_ProductName"><path codeLine="73" d="M666.5999,603.209 C799.4289,610.94 1044.7369,633.875 1098.5369,699 C1224.4169,851.357 819.0359,890.7885 650.5209,900.4942 " fill="none" id="McProduct-to-ProductName" style="stroke:#181818;stroke-width:1.0;"/><polygon fill="#181818" points="645.1159,900.8,654.3278,904.2845,650.1079,900.5171,653.8752,896.2973,645.1159,900.8" style="stroke:#181818;stroke-width:1.0;"/><text fill="#000000" font-family="sans-serif" font-size="13" lengthAdjust="spacing" textLength="8" x="653.0449" y="896.5516">1</text></g><!--MD5=[9b02757ddba949c5120cf94888433e7a]
link McFirstBoeuf to ProductName--><g id="link_McFirstBoeuf_ProductName"><path codeLine="74" d="M252.5729,774.373 C329.1529,804.523 439.7589,848.071 510.9049,876.0831 " fill="none" id="McFirstBoeuf-to-ProductName" style="stroke:#181818;stroke-width:1.0;"/><polygon fill="#181818" points="515.9589,878.0727,509.0496,871.0541,511.3064,876.2412,506.1192,878.4981,515.9589,878.0727" style="stroke:#181818;stroke-width:1.0;"/><text fill="#000000" font-family="sans-serif" font-size="13" lengthAdjust="spacing" textLength="8" x="500.0291" y="871.1968">1</text></g><!--MD5=[617964e7d6853bf96ec2d04950be2424]
link McFirstPoulet to ProductName--><g id="link_McFirstPoulet_ProductName"><path codeLine="75" d="M423.9139,780.166 C450.2629,800.914 482.9139,826.624 511.5749,849.193 " fill="none" id="McFirstPoulet-to-ProductName" style="stroke:#181818;stroke-width:1.0;"/><polygon fill="#181818" points="515.7729,852.499,511.1757,843.7889,511.8443,849.4061,506.2271,850.0747,515.7729,852.499" style="stroke:#181818;stroke-width:1.0;"/><text fill="#000000" font-family="sans-serif" font-size="13" lengthAdjust="spacing" textLength="8" x="500.2514" y="843.0387">1</text></g><!--MD5=[499b5f2994cdc3b1967fe47665648390]
link GrandCoca to ProductName--><g id="link_GrandCoca_ProductName"><path codeLine="76" d="M580.5409,780.374 C580.5409,796.743 580.5409,816.174 580.5409,834.706 " fill="none" id="GrandCoca-to-ProductName" style="stroke:#181818;stroke-width:1.0;"/><polygon fill="#181818" points="580.5409,839.906,584.5409,830.906,580.5409,834.906,576.5409,830.906,580.5409,839.906" style="stroke:#181818;stroke-width:1.0;"/><text fill="#000000" font-family="sans-serif" font-size="13" lengthAdjust="spacing" textLength="8" x="572.1034" y="829.0684">1</text></g><!--MD5=[a95b2f52c06b3601827522bbad7ce513]
link Nuggets to ProductName--><g id="link_Nuggets_ProductName"><path codeLine="77" d="M737.1679,780.166 C710.8189,800.914 678.1679,826.624 649.5079,849.193 " fill="none" id="Nuggets-to-ProductName" style="stroke:#181818;stroke-width:1.0;"/><polygon fill="#181818" points="645.3089,852.499,654.8547,850.0747,649.2375,849.4061,649.9061,843.7889,645.3089,852.499" style="stroke:#181818;stroke-width:1.0;"/><text fill="#000000" font-family="sans-serif" font-size="13" lengthAdjust="spacing" textLength="8" x="652.8304" y="843.0387">1</text></g><!--MD5=[f9eb7e41319c7c26a19350dcee48a191]
link McFlurry to ProductName--><g id="link_McFlurry_ProductName"><path codeLine="78" d="M908.5089,774.373 C831.9299,804.523 721.3229,848.071 650.1769,876.0831 " fill="none" id="McFlurry-to-ProductName" style="stroke:#181818;stroke-width:1.0;"/><polygon fill="#181818" points="645.1229,878.0727,654.9626,878.4981,649.7754,876.2412,652.0322,871.0541,645.1229,878.0727" style="stroke:#181818;stroke-width:1.0;"/><text fill="#000000" font-family="sans-serif" font-size="13" lengthAdjust="spacing" textLength="8" x="653.0527" y="871.1968">1</text></g><!--MD5=[ef5e392e908b8b9b71162fbd482b7a0b]
link McReserve to McProduct--><g id="link_McReserve_McProduct"><path codeLine="79" d="M456.8979,498.22 C480.4529,517.134 505.6799,537.39 527.1639,554.64 " fill="none" id="McReserve-to-McProduct" style="stroke:#181818;stroke-width:1.0;"/><polygon fill="#181818" points="531.1309,557.826,526.619,549.0714,527.2327,554.6949,521.6092,555.3085,531.1309,557.826" style="stroke:#181818;stroke-width:1.0;"/><text fill="#000000" font-family="sans-serif" font-size="13" lengthAdjust="spacing" textLength="8" x="514.2849" y="546.9587">1</text></g><!--MD5=[cbcc31b05b64d1399cac9c6db8a0c47f]
link Qte to McProduct--><g id="link_Qte_McProduct"><path codeLine="80" d="M671.1859,474.374 C653.5419,498.341 631.0639,528.873 612.9069,553.536 " fill="none" id="Qte-to-McProduct" style="stroke:#181818;stroke-width:1.0;"/><polygon fill="#181818" points="609.8009,557.755,618.3575,552.878,612.7649,553.7282,611.9147,548.1357,609.8009,557.755" style="stroke:#181818;stroke-width:1.0;"/><text fill="#000000" font-family="sans-serif" font-size="13" lengthAdjust="spacing" textLength="8" x="605.9846" y="546.876">1</text></g><!--MD5=[aeb0947abf695d21501db39e9ceae8f7]
link ShoppingCart to Qte--><g id="link_ShoppingCart_Qte"><path codeLine="81" d="M598.5579,309.156 C619.7339,334.768 644.4969,364.717 664.3179,388.689 " fill="none" id="ShoppingCart-to-Qte" style="stroke:#181818;stroke-width:1.0;"/><polygon fill="#181818" points="667.7069,392.788,665.0525,383.3036,664.5199,388.9353,658.8882,388.4028,667.7069,392.788" style="stroke:#181818;stroke-width:1.0;"/><text fill="#000000" font-family="sans-serif" font-size="13" lengthAdjust="spacing" textLength="7" x="654.6891" y="381.9144">*</text></g><!--MD5=[16f59b3fc96d2251114e335a0c488bb0]
link ShoppingCart to McProduct--><g id="link_ShoppingCart_McProduct"><path codeLine="82" d="M557.0709,309.152 C562.5879,376.938 571.7999,490.112 576.8869,552.612 " fill="none" id="ShoppingCart-to-McProduct" style="stroke:#181818;stroke-width:1.0;"/><polygon fill="#181818" points="577.3059,557.76,580.5625,548.4651,576.9002,552.7765,572.5889,549.1142,577.3059,557.76" style="stroke:#181818;stroke-width:1.0;"/><text fill="#000000" font-family="sans-serif" font-size="13" lengthAdjust="spacing" textLength="8" x="568.1076" y="546.8818">1</text></g><!--MD5=[be892f9f41b1723d7ed9fd3c15389a47]
link McDoDrive to ShoppingCart--><g id="link_McDoDrive_ShoppingCart"><path codeLine="83" d="M330.7909,136.113 C366.7379,154.818 405.8579,175.173 441.0909,193.507 " fill="none" id="McDoDrive-to-ShoppingCart" style="stroke:#181818;stroke-width:1.0;"/><polygon fill="#181818" points="445.8129,195.964,439.6771,188.26,441.3779,193.6551,435.9828,195.3559,445.8129,195.964" style="stroke:#181818;stroke-width:1.0;"/><text fill="#000000" font-family="sans-serif" font-size="13" lengthAdjust="spacing" textLength="8" x="423.6259" y="184.8228">1</text></g><!--MD5=[7aa66da870d0be507a416a7bfec14521]
link McDoDrive to ProductName--><g id="link_McDoDrive_ProductName"><path codeLine="84" d="M136.8969,136.182 C120.0526,154.124 103.5366,174.621 91.5409,196 C38.256,290.964 27.5409,323.608 27.5409,432.5 C27.5409,432.5 27.5409,432.5 27.5409,599.5 C27.5409,681.216 6,721.002 62.5409,780 C123.8999,844.025 384.1889,881.4456 510.8029,896.1811 " fill="none" id="McDoDrive-to-ProductName" style="stroke:#181818;stroke-width:1.0;"/><polygon fill="#181818" points="515.9899,896.7808,507.5089,891.7735,511.023,896.2065,506.59,899.7206,515.9899,896.7808" style="stroke:#181818;stroke-width:1.0;"/><text fill="#000000" font-family="sans-serif" font-size="13" lengthAdjust="spacing" textLength="8" x="500.0637" y="892.0676">1</text></g><!--MD5=[58167e861512f6e4910f8033adec7550]
link McDoDrive to PaymentMethodsName--><g id="link_McDoDrive_PaymentMethodsName"><path codeLine="85" d="M208.5409,136.113 C208.5409,156.591 208.5409,179.048 208.5409,198.664 " fill="none" id="McDoDrive-to-PaymentMethodsName" style="stroke:#181818;stroke-width:1.0;"/><polygon fill="#181818" points="208.5409,203.851,212.5409,194.851,208.5409,198.851,204.5409,194.851,208.5409,203.851" style="stroke:#181818;stroke-width:1.0;"/><text fill="#000000" font-family="sans-serif" font-size="13" lengthAdjust="spacing" textLength="8" x="199.9784" y="193.039">1</text></g><!--MD5=[fcd3ebac31de94406a2b1c08c0998f3c]
@startuml
enum ProductName {
    McFirstPoulet
    McFirstBoeuf
    GrandCoca
    McFlurry
    Nuggets
}
enum PaymentMethodsName {
    CB
    Cash
    DogeCoin
}
interface McProduct {
    +name: ProductName
    +price: number
}
class McFirstBoeuf implements McProduct {
    +name: ProductName
    +price: number
}
class McFirstPoulet implements McProduct {
    +name: ProductName
    +price: number
}
class GrandCoca implements McProduct {
    +name: ProductName
    +price: number
}
class Nuggets implements McProduct {
    +name: ProductName
    +price: number
}
class McFlurry implements McProduct {
    +name: ProductName
    +price: number
}
class McReserve {
    +{static} getNuggets(): McProduct
    +{static} getGrandCoca(): McProduct
    +{static} getMcFlurry(): McProduct
    +{static} getMcFirstBoeuf(): McProduct
    +{static} getMcFirstPoulet(): McProduct
}
class Qte {
    +qte: number
    +mcProduct: McProduct
}
class ShoppingCart {
    +products: Qte[]
    +addItem(product: McProduct): void
    +removeItem(product: McProduct): void
    +calcPriceTotal(): number
}
interface PaymentMethods {
    +call(): string
}
class CB implements PaymentMethods {
    +call(): string
}
class Cash implements PaymentMethods {
    +call(): string
}
class DogeCoin implements PaymentMethods {
    +call(): string
}
class McDoDrive {
    +cart: ShoppingCart
    +pickItem(product: ProductName): void
    +removeItem(product: ProductName): void
    +command(): string
    +pay(method: PaymentMethodsName): string
}
McProduct - -> "1" ProductName
McFirstBoeuf - -> "1" ProductName
McFirstPoulet - -> "1" ProductName
GrandCoca - -> "1" ProductName
Nuggets - -> "1" ProductName
McFlurry - -> "1" ProductName
McReserve - -> "1" McProduct
Qte - -> "1" McProduct
ShoppingCart - -> "*" Qte
ShoppingCart - -> "1" McProduct
McDoDrive - -> "1" ShoppingCart
McDoDrive - -> "1" ProductName
McDoDrive - -> "1" PaymentMethodsName
@enduml

PlantUML version 1.2022.14beta1(Unknown compile time)
(GPL source distribution)
Java Runtime: Java(TM) SE Runtime Environment
JVM: Java HotSpot(TM) 64-Bit Server VM
Default Encoding: UTF-8
Language: en
Country: US
--></g></svg>