<?xml version="1.0" encoding="UTF-8" standalone="no"?><svg xmlns="http://www.w3.org/2000/svg" xmlns:xlink="http://www.w3.org/1999/xlink" contentStyleType="text/css" height="598px" preserveAspectRatio="none" style="width:509px;height:598px;background:#FFFFFF;" version="1.1" viewBox="0 0 509 598" width="509px" zoomAndPan="magnify"><defs/><g><!--MD5=[70d59bfbf3431b260d6699edf71f4c73]
class TwitchEvent--><g id="elem_TwitchEvent"><rect codeLine="1" fill="#F1F1F1" height="64.2969" id="TwitchEvent" rx="2.5" ry="2.5" style="stroke:#181818;stroke-width:0.5;" width="118" x="28" y="337.5"/><ellipse cx="43" cy="353.5" fill="#B4A7E5" rx="11" ry="11" style="stroke:#181818;stroke-width:1.0;"/><path d="M43.9531,350.2813 L45.6719,350.2813 C46.0625,350.2813 46.25,350.25 46.375,350.1719 C46.6406,350.0156 46.7813,349.7344 46.7813,349.4375 C46.7813,349.1719 46.6719,348.9063 46.4375,348.7344 C46.2656,348.625 46.125,348.5938 45.6719,348.5938 L40.5313,348.5938 C40.0938,348.5938 39.9688,348.6094 39.8125,348.7031 C39.5625,348.8594 39.4063,349.1563 39.4063,349.4375 C39.4063,349.7188 39.5469,349.9688 39.7656,350.1406 C39.9219,350.25 40.1094,350.2813 40.5313,350.2813 L42.25,350.2813 L42.25,356.7969 L40.5313,356.7969 C40.0938,356.7969 39.9688,356.8125 39.8125,356.9219 C39.5625,357.0781 39.4063,357.3594 39.4063,357.6563 C39.4063,357.9063 39.5469,358.1719 39.7656,358.3281 C39.9219,358.4531 40.125,358.5 40.5313,358.5 L45.6719,358.5 C46.4219,358.5 46.7813,358.2188 46.7813,357.6563 C46.7813,357.375 46.6719,357.125 46.4375,356.9531 C46.2656,356.8281 46.125,356.7969 45.6719,356.7969 L43.9531,356.7969 L43.9531,350.2813 Z " fill="#000000"/><text fill="#000000" font-family="sans-serif" font-size="14" font-style="italic" lengthAdjust="spacing" textLength="86" x="57" y="358.3467">TwitchEvent</text><line style="stroke:#181818;stroke-width:0.5;" x1="29" x2="145" y1="369.5" y2="369.5"/><ellipse cx="39" cy="383.1484" fill="none" rx="3" ry="3" style="stroke:#038048;stroke-width:1.0;"/><text fill="#000000" font-family="sans-serif" font-size="14" lengthAdjust="spacing" textLength="85" x="48" y="386.4951">type: string</text><line style="stroke:#181818;stroke-width:0.5;" x1="29" x2="145" y1="393.7969" y2="393.7969"/></g><!--MD5=[20ceab70a35a13eeb1764b195020c349]
class IsStreamingEvent--><g id="elem_IsStreamingEvent"><rect codeLine="4" fill="#F1F1F1" height="64.2969" id="IsStreamingEvent" rx="2.5" ry="2.5" style="stroke:#181818;stroke-width:0.5;" width="160" x="7" y="527"/><ellipse cx="22" cy="543" fill="#ADD1B2" rx="11" ry="11" style="stroke:#181818;stroke-width:1.0;"/><path d="M24.3438,538.6719 C23.4063,538.2344 22.8125,538.0938 21.9375,538.0938 C19.3125,538.0938 17.3125,540.1719 17.3125,542.8906 L17.3125,544.0156 C17.3125,546.5938 19.4219,548.4844 22.3125,548.4844 C23.5313,548.4844 24.6875,548.1875 25.4375,547.6406 C26.0156,547.2344 26.3438,546.7813 26.3438,546.3906 C26.3438,545.9375 25.9531,545.5469 25.4844,545.5469 C25.2656,545.5469 25.0625,545.625 24.875,545.8125 C24.4219,546.2969 24.4219,546.2969 24.2344,546.3906 C23.8125,546.6563 23.125,546.7813 22.3594,546.7813 C20.3125,546.7813 19.0156,545.6875 19.0156,543.9844 L19.0156,542.8906 C19.0156,541.1094 20.2656,539.7969 22,539.7969 C22.5781,539.7969 23.1875,539.9531 23.6563,540.2031 C24.1406,540.4844 24.3125,540.7031 24.4063,541.1094 C24.4688,541.5156 24.5,541.6406 24.6406,541.7656 C24.7813,541.9063 25.0156,542.0156 25.2344,542.0156 C25.5,542.0156 25.7656,541.875 25.9375,541.6563 C26.0469,541.5 26.0781,541.3125 26.0781,540.8906 L26.0781,539.4688 C26.0781,539.0313 26.0625,538.9063 25.9688,538.75 C25.8125,538.4844 25.5313,538.3438 25.2344,538.3438 C24.9375,538.3438 24.7344,538.4375 24.5156,538.75 L24.3438,538.6719 Z " fill="#000000"/><text fill="#000000" font-family="sans-serif" font-size="14" lengthAdjust="spacing" textLength="128" x="36" y="547.8467">IsStreamingEvent</text><line style="stroke:#181818;stroke-width:0.5;" x1="8" x2="166" y1="559" y2="559"/><ellipse cx="18" cy="572.6484" fill="none" rx="3" ry="3" style="stroke:#038048;stroke-width:1.0;"/><text fill="#000000" font-family="sans-serif" font-size="14" lengthAdjust="spacing" textLength="85" x="27" y="575.9951">type: string</text><line style="stroke:#181818;stroke-width:0.5;" x1="8" x2="166" y1="583.2969" y2="583.2969"/></g><!--MD5=[b3ade1da8d6764c9b19ebc1518f4f2b6]
class TwitchObserver--><g id="elem_TwitchObserver"><rect codeLine="7" fill="#F1F1F1" height="64.2969" id="TwitchObserver" rx="2.5" ry="2.5" style="stroke:#181818;stroke-width:0.5;" width="259" x="102.5" y="7"/><ellipse cx="172.25" cy="23" fill="#B4A7E5" rx="11" ry="11" style="stroke:#181818;stroke-width:1.0;"/><path d="M173.2031,19.7813 L174.9219,19.7813 C175.3125,19.7813 175.5,19.75 175.625,19.6719 C175.8906,19.5156 176.0313,19.2344 176.0313,18.9375 C176.0313,18.6719 175.9219,18.4063 175.6875,18.2344 C175.5156,18.125 175.375,18.0938 174.9219,18.0938 L169.7813,18.0938 C169.3438,18.0938 169.2188,18.1094 169.0625,18.2031 C168.8125,18.3594 168.6563,18.6563 168.6563,18.9375 C168.6563,19.2188 168.7969,19.4688 169.0156,19.6406 C169.1719,19.75 169.3594,19.7813 169.7813,19.7813 L171.5,19.7813 L171.5,26.2969 L169.7813,26.2969 C169.3438,26.2969 169.2188,26.3125 169.0625,26.4219 C168.8125,26.5781 168.6563,26.8594 168.6563,27.1563 C168.6563,27.4063 168.7969,27.6719 169.0156,27.8281 C169.1719,27.9531 169.375,28 169.7813,28 L174.9219,28 C175.6719,28 176.0313,27.7188 176.0313,27.1563 C176.0313,26.875 175.9219,26.625 175.6875,26.4531 C175.5156,26.3281 175.375,26.2969 174.9219,26.2969 L173.2031,26.2969 L173.2031,19.7813 Z " fill="#000000"/><text fill="#000000" font-family="sans-serif" font-size="14" font-style="italic" lengthAdjust="spacing" textLength="111" x="192.75" y="27.8467">TwitchObserver</text><line style="stroke:#181818;stroke-width:0.5;" x1="103.5" x2="360.5" y1="39" y2="39"/><line style="stroke:#181818;stroke-width:0.5;" x1="103.5" x2="360.5" y1="47" y2="47"/><ellipse cx="113.5" cy="60.6484" fill="#84BE84" rx="3" ry="3" style="stroke:#038048;stroke-width:1.0;"/><text fill="#000000" font-family="sans-serif" font-size="14" lengthAdjust="spacing" textLength="233" x="122.5" y="63.9951">notify(event: TwitchEvent): void</text></g><!--MD5=[f9a29335b499db729be669fd1bd54958]
class Account--><g id="elem_Account"><rect codeLine="10" fill="#F1F1F1" height="80.5938" id="Account" rx="2.5" ry="2.5" style="stroke:#181818;stroke-width:0.5;" width="259" x="212.5" y="131"/><ellipse cx="308.25" cy="147" fill="#ADD1B2" rx="11" ry="11" style="stroke:#181818;stroke-width:1.0;"/><path d="M310.5938,142.6719 C309.6563,142.2344 309.0625,142.0938 308.1875,142.0938 C305.5625,142.0938 303.5625,144.1719 303.5625,146.8906 L303.5625,148.0156 C303.5625,150.5938 305.6719,152.4844 308.5625,152.4844 C309.7813,152.4844 310.9375,152.1875 311.6875,151.6406 C312.2656,151.2344 312.5938,150.7813 312.5938,150.3906 C312.5938,149.9375 312.2031,149.5469 311.7344,149.5469 C311.5156,149.5469 311.3125,149.625 311.125,149.8125 C310.6719,150.2969 310.6719,150.2969 310.4844,150.3906 C310.0625,150.6563 309.375,150.7813 308.6094,150.7813 C306.5625,150.7813 305.2656,149.6875 305.2656,147.9844 L305.2656,146.8906 C305.2656,145.1094 306.5156,143.7969 308.25,143.7969 C308.8281,143.7969 309.4375,143.9531 309.9063,144.2031 C310.3906,144.4844 310.5625,144.7031 310.6563,145.1094 C310.7188,145.5156 310.75,145.6406 310.8906,145.7656 C311.0313,145.9063 311.2656,146.0156 311.4844,146.0156 C311.75,146.0156 312.0156,145.875 312.1875,145.6563 C312.2969,145.5 312.3281,145.3125 312.3281,144.8906 L312.3281,143.4688 C312.3281,143.0313 312.3125,142.9063 312.2188,142.75 C312.0625,142.4844 311.7813,142.3438 311.4844,142.3438 C311.1875,142.3438 310.9844,142.4375 310.7656,142.75 L310.5938,142.6719 Z " fill="#000000"/><text fill="#000000" font-family="sans-serif" font-size="14" lengthAdjust="spacing" textLength="59" x="328.75" y="151.8467">Account</text><line style="stroke:#181818;stroke-width:0.5;" x1="213.5" x2="470.5" y1="163" y2="163"/><ellipse cx="223.5" cy="176.6484" fill="none" rx="3" ry="3" style="stroke:#038048;stroke-width:1.0;"/><text fill="#000000" font-family="sans-serif" font-size="14" lengthAdjust="spacing" textLength="121" x="232.5" y="179.9951">username: string</text><line style="stroke:#181818;stroke-width:0.5;" x1="213.5" x2="470.5" y1="187.2969" y2="187.2969"/><ellipse cx="223.5" cy="200.9453" fill="#84BE84" rx="3" ry="3" style="stroke:#038048;stroke-width:1.0;"/><text fill="#000000" font-family="sans-serif" font-size="14" lengthAdjust="spacing" textLength="233" x="232.5" y="204.292">notify(event: TwitchEvent): void</text></g><!--MD5=[b3775cccd8d0af8dc08c345dd99722a2]
class Streamer--><g id="elem_Streamer"><rect codeLine="14" fill="#F1F1F1" height="194.6719" id="Streamer" rx="2.5" ry="2.5" style="stroke:#181818;stroke-width:0.5;" width="321" x="181.5" y="272"/><ellipse cx="303.75" cy="288" fill="#ADD1B2" rx="11" ry="11" style="stroke:#181818;stroke-width:1.0;"/><path d="M306.0938,283.6719 C305.1563,283.2344 304.5625,283.0938 303.6875,283.0938 C301.0625,283.0938 299.0625,285.1719 299.0625,287.8906 L299.0625,289.0156 C299.0625,291.5938 301.1719,293.4844 304.0625,293.4844 C305.2813,293.4844 306.4375,293.1875 307.1875,292.6406 C307.7656,292.2344 308.0938,291.7813 308.0938,291.3906 C308.0938,290.9375 307.7031,290.5469 307.2344,290.5469 C307.0156,290.5469 306.8125,290.625 306.625,290.8125 C306.1719,291.2969 306.1719,291.2969 305.9844,291.3906 C305.5625,291.6563 304.875,291.7813 304.1094,291.7813 C302.0625,291.7813 300.7656,290.6875 300.7656,288.9844 L300.7656,287.8906 C300.7656,286.1094 302.0156,284.7969 303.75,284.7969 C304.3281,284.7969 304.9375,284.9531 305.4063,285.2031 C305.8906,285.4844 306.0625,285.7031 306.1563,286.1094 C306.2188,286.5156 306.25,286.6406 306.3906,286.7656 C306.5313,286.9063 306.7656,287.0156 306.9844,287.0156 C307.25,287.0156 307.5156,286.875 307.6875,286.6563 C307.7969,286.5 307.8281,286.3125 307.8281,285.8906 L307.8281,284.4688 C307.8281,284.0313 307.8125,283.9063 307.7188,283.75 C307.5625,283.4844 307.2813,283.3438 306.9844,283.3438 C306.6875,283.3438 306.4844,283.4375 306.2656,283.75 L306.0938,283.6719 Z " fill="#000000"/><text fill="#000000" font-family="sans-serif" font-size="14" lengthAdjust="spacing" textLength="68" x="324.25" y="292.8467">Streamer</text><line style="stroke:#181818;stroke-width:0.5;" x1="182.5" x2="501.5" y1="304" y2="304"/><rect fill="none" height="6" style="stroke:#C82930;stroke-width:1.0;" width="6" x="189.5" y="314.6484"/><text fill="#000000" font-family="sans-serif" font-size="14" lengthAdjust="spacing" textLength="143" x="201.5" y="320.9951">followers: Account[]</text><rect fill="none" height="6" style="stroke:#C82930;stroke-width:1.0;" width="6" x="189.5" y="330.9453"/><text fill="#000000" font-family="sans-serif" font-size="14" lengthAdjust="spacing" textLength="160" x="201.5" y="337.292">subscribers: Account[]</text><rect fill="none" height="6" style="stroke:#C82930;stroke-width:1.0;" width="6" x="189.5" y="347.2422"/><text fill="#000000" font-family="sans-serif" font-size="14" lengthAdjust="spacing" textLength="113" x="201.5" y="353.5889">replays: string[]</text><line style="stroke:#181818;stroke-width:0.5;" x1="182.5" x2="501.5" y1="360.8906" y2="360.8906"/><ellipse cx="192.5" cy="374.5391" fill="#84BE84" rx="3" ry="3" style="stroke:#038048;stroke-width:1.0;"/><text fill="#000000" font-family="sans-serif" font-size="14" lengthAdjust="spacing" textLength="217" x="201.5" y="377.8857">follow(account: Account): void</text><ellipse cx="192.5" cy="390.8359" fill="#84BE84" rx="3" ry="3" style="stroke:#038048;stroke-width:1.0;"/><text fill="#000000" font-family="sans-serif" font-size="14" lengthAdjust="spacing" textLength="243" x="201.5" y="394.1826">subscribe(account: Account): void</text><ellipse cx="192.5" cy="407.1328" fill="#84BE84" rx="3" ry="3" style="stroke:#038048;stroke-width:1.0;"/><text fill="#000000" font-family="sans-serif" font-size="14" lengthAdjust="spacing" textLength="110" x="201.5" y="410.4795">notifyAll(): void</text><ellipse cx="192.5" cy="423.4297" fill="#84BE84" rx="3" ry="3" style="stroke:#038048;stroke-width:1.0;"/><text fill="#000000" font-family="sans-serif" font-size="14" lengthAdjust="spacing" textLength="159" x="201.5" y="426.7764">notifyFollowers(): void</text><ellipse cx="192.5" cy="439.7266" fill="#84BE84" rx="3" ry="3" style="stroke:#038048;stroke-width:1.0;"/><text fill="#000000" font-family="sans-serif" font-size="14" lengthAdjust="spacing" textLength="176" x="201.5" y="443.0732">notifySubscribers(): void</text><ellipse cx="192.5" cy="456.0234" fill="#84BE84" rx="3" ry="3" style="stroke:#038048;stroke-width:1.0;"/><text fill="#000000" font-family="sans-serif" font-size="14" lengthAdjust="spacing" textLength="295" x="201.5" y="459.3701">getReplays(subscriber: Account): string[]</text></g><!--MD5=[b016045200a11d51116fb8ab41915820]
reverse link TwitchEvent to IsStreamingEvent--><g id="link_TwitchEvent_IsStreamingEvent"><path d="M87,421.899 C87,455.497 87,498.2833 87,526.8269 " fill="none" id="TwitchEvent-backto-IsStreamingEvent" style="stroke:#181818;stroke-width:1.0;stroke-dasharray:7.0,7.0;"/><polygon fill="none" points="80.0001,421.883,87,401.883,94.0001,421.883,80.0001,421.883" style="stroke:#181818;stroke-width:1.0;"/></g><!--MD5=[3338e627126ff59178ad56856b8e8693]
reverse link TwitchObserver to Account--><g id="link_TwitchObserver_Account"><path d="M271.398,86.74 C283.493,101.09 296.686,116.741 308.359,130.589 " fill="none" id="TwitchObserver-backto-Account" style="stroke:#181818;stroke-width:1.0;stroke-dasharray:7.0,7.0;"/><polygon fill="none" points="265.885,91.062,258.348,71.258,276.59,82.039,265.885,91.062" style="stroke:#181818;stroke-width:1.0;"/></g><!--MD5=[509724fd8d0e52aa6e409ec3f2c911e3]
reverse link Account to Streamer--><g id="link_Account_Streamer"><path d="M317.624,232.159 C316.335,244.706 315.711,258.249 315.752,271.761 " fill="none" id="Account-backto-Streamer" style="stroke:#181818;stroke-width:1.0;"/><polygon fill="none" points="310.718,231,320.422,212.164,324.583,232.941,310.718,231" style="stroke:#181818;stroke-width:1.0;"/></g><!--MD5=[28fb42843693fc13901ce305075671f0]
link Streamer to Account--><g id="link_Streamer_Account"><path codeLine="27" d="M342,271.761 C342,252.812 342,233.801 342,217.561 " fill="none" id="Streamer-to-Account" style="stroke:#181818;stroke-width:1.0;"/><polygon fill="#181818" points="342,212.164,338,221.164,342,217.164,346,221.164,342,212.164" style="stroke:#181818;stroke-width:1.0;"/><text fill="#000000" font-family="sans-serif" font-size="13" lengthAdjust="spacing" textLength="7" x="334.4641" y="231.6473">*</text></g><!--MD5=[28fb42843693fc13901ce305075671f0]
link Streamer to Account--><g id="link_Streamer_Account"><path codeLine="28" d="M368.248,271.761 C368.307,252.647 367.034,233.47 364.429,217.138 " fill="none" id="Streamer-to-Account-1" style="stroke:#181818;stroke-width:1.0;"/><polygon fill="#181818" points="363.578,212.164,361.1523,221.7095,364.4208,217.0925,369.0379,220.3609,363.578,212.164" style="stroke:#181818;stroke-width:1.0;"/><text fill="#000000" font-family="sans-serif" font-size="13" lengthAdjust="spacing" textLength="8" x="358.2696" y="231.6473">1</text></g><!--MD5=[978d17c04159ecde9fcd6e7c81b08d1e]
link TwitchObserver to TwitchEvent--><g id="link_TwitchObserver_TwitchEvent"><path codeLine="25" d="M218.228,71.201 C191.289,132.231 131.756,267.104 103.0702,332.093 " fill="none" id="TwitchObserver-to-TwitchEvent" style="stroke:#181818;stroke-width:1.0;"/><polygon fill="#181818" points="100.8922,337.027,108.187,330.4099,102.912,332.4531,100.8688,327.1782,100.8922,337.027" style="stroke:#181818;stroke-width:1.0;"/><text fill="#000000" font-family="sans-serif" font-size="13" lengthAdjust="spacing" textLength="8" x="94.7779" y="326.4584">1</text></g><!--MD5=[af54c52f2bab7cc9449cc4263556f377]
link Account to TwitchEvent--><g id="link_Account_TwitchEvent"><path codeLine="26" d="M255.699,212.078 C225.057,228.3 191.402,248.754 164,272 C143.335,289.531 124.299,313.285 110.325,332.838 " fill="none" id="Account-to-TwitchEvent" style="stroke:#181818;stroke-width:1.0;"/><polygon fill="#181818" points="107.243,337.198,115.7041,332.1571,110.1289,333.1149,109.1711,327.5397,107.243,337.198" style="stroke:#181818;stroke-width:1.0;"/><text fill="#000000" font-family="sans-serif" font-size="13" lengthAdjust="spacing" textLength="8" x="112.0158" y="326.4127">1</text></g><!--MD5=[f27fbd3633bb54adb280d3de3b4b0eeb]
@startuml
interface TwitchEvent {
    +type: string
}
class IsStreamingEvent implements TwitchEvent {
    +type: string
}
interface TwitchObserver {
    +notify(event: TwitchEvent): void
}
class Account implements TwitchObserver {
    +username: string
    +notify(event: TwitchEvent): void
}
class Streamer extends Account {
    -followers: Account[]
    -subscribers: Account[]
    -replays: string[]
    +follow(account: Account): void
    +subscribe(account: Account): void
    +notifyAll(): void
    +notifyFollowers(): void
    +notifySubscribers(): void
    +getReplays(subscriber: Account): string[]
}
TwitchObserver - -> "1" TwitchEvent
Account - -> "1" TwitchEvent
Streamer - -> "*" Account
Streamer - -> "1" Account
@enduml

PlantUML version 1.2022.14beta1(Unknown compile time)
(GPL source distribution)
Java Runtime: Java(TM) SE Runtime Environment
JVM: Java HotSpot(TM) 64-Bit Server VM
Default Encoding: UTF-8
Language: en
Country: US
--></g></svg>