<?xml version="1.0" encoding="UTF-8" standalone="no"?><svg xmlns="http://www.w3.org/2000/svg" xmlns:xlink="http://www.w3.org/1999/xlink" contentStyleType="text/css" height="268px" preserveAspectRatio="none" style="width:892px;height:268px;background:#FFFFFF;" version="1.1" viewBox="0 0 892 268" width="892px" zoomAndPan="magnify"><defs/><g><!--MD5=[e91dbc049489a7b5dc681ffef3f93f9c]
class IPrinterBase--><g id="elem_IPrinterBase"><rect codeLine="1" fill="#F1F1F1" height="80.5938" id="IPrinterBase" rx="2.5" ry="2.5" style="stroke:#181818;stroke-width:0.5;" width="258" x="627" y="7"/><ellipse cx="708.75" cy="23" fill="#B4A7E5" rx="11" ry="11" style="stroke:#181818;stroke-width:1.0;"/><path d="M709.7031,19.7813 L711.4219,19.7813 C711.8125,19.7813 712,19.75 712.125,19.6719 C712.3906,19.5156 712.5313,19.2344 712.5313,18.9375 C712.5313,18.6719 712.4219,18.4063 712.1875,18.2344 C712.0156,18.125 711.875,18.0938 711.4219,18.0938 L706.2813,18.0938 C705.8438,18.0938 705.7188,18.1094 705.5625,18.2031 C705.3125,18.3594 705.1563,18.6563 705.1563,18.9375 C705.1563,19.2188 705.2969,19.4688 705.5156,19.6406 C705.6719,19.75 705.8594,19.7813 706.2813,19.7813 L708,19.7813 L708,26.2969 L706.2813,26.2969 C705.8438,26.2969 705.7188,26.3125 705.5625,26.4219 C705.3125,26.5781 705.1563,26.8594 705.1563,27.1563 C705.1563,27.4063 705.2969,27.6719 705.5156,27.8281 C705.6719,27.9531 705.875,28 706.2813,28 L711.4219,28 C712.1719,28 712.5313,27.7188 712.5313,27.1563 C712.5313,26.875 712.4219,26.625 712.1875,26.4531 C712.0156,26.3281 711.875,26.2969 711.4219,26.2969 L709.7031,26.2969 L709.7031,19.7813 Z " fill="#000000"/><text fill="#000000" font-family="sans-serif" font-size="14" font-style="italic" lengthAdjust="spacing" textLength="86" x="729.25" y="27.8467">IPrinterBase</text><line style="stroke:#181818;stroke-width:0.5;" x1="628" x2="884" y1="39" y2="39"/><line style="stroke:#181818;stroke-width:0.5;" x1="628" x2="884" y1="47" y2="47"/><ellipse cx="638" cy="60.6484" fill="#84BE84" rx="3" ry="3" style="stroke:#038048;stroke-width:1.0;"/><text fill="#000000" font-family="sans-serif" font-size="14" lengthAdjust="spacing" textLength="232" x="647" y="63.9951">print(printContent: string): void</text><ellipse cx="638" cy="76.9453" fill="#84BE84" rx="3" ry="3" style="stroke:#038048;stroke-width:1.0;"/><text fill="#000000" font-family="sans-serif" font-size="14" lengthAdjust="spacing" textLength="215" x="647" y="80.292">scan(scanCotent: string): void</text></g><!--MD5=[e82d7b91fdcf72c1187521d37d4eff2e]
class IPrinterFax--><g id="elem_IPrinterFax"><rect codeLine="5" fill="#F1F1F1" height="64.2969" id="IPrinterFax" rx="2.5" ry="2.5" style="stroke:#181818;stroke-width:0.5;" width="230" x="7" y="15.5"/><ellipse cx="79.75" cy="31.5" fill="#B4A7E5" rx="11" ry="11" style="stroke:#181818;stroke-width:1.0;"/><path d="M80.7031,28.2813 L82.4219,28.2813 C82.8125,28.2813 83,28.25 83.125,28.1719 C83.3906,28.0156 83.5313,27.7344 83.5313,27.4375 C83.5313,27.1719 83.4219,26.9063 83.1875,26.7344 C83.0156,26.625 82.875,26.5938 82.4219,26.5938 L77.2813,26.5938 C76.8438,26.5938 76.7188,26.6094 76.5625,26.7031 C76.3125,26.8594 76.1563,27.1563 76.1563,27.4375 C76.1563,27.7188 76.2969,27.9688 76.5156,28.1406 C76.6719,28.25 76.8594,28.2813 77.2813,28.2813 L79,28.2813 L79,34.7969 L77.2813,34.7969 C76.8438,34.7969 76.7188,34.8125 76.5625,34.9219 C76.3125,35.0781 76.1563,35.3594 76.1563,35.6563 C76.1563,35.9063 76.2969,36.1719 76.5156,36.3281 C76.6719,36.4531 76.875,36.5 77.2813,36.5 L82.4219,36.5 C83.1719,36.5 83.5313,36.2188 83.5313,35.6563 C83.5313,35.375 83.4219,35.125 83.1875,34.9531 C83.0156,34.8281 82.875,34.7969 82.4219,34.7969 L80.7031,34.7969 L80.7031,28.2813 Z " fill="#000000"/><text fill="#000000" font-family="sans-serif" font-size="14" font-style="italic" lengthAdjust="spacing" textLength="76" x="100.25" y="36.3467">IPrinterFax</text><line style="stroke:#181818;stroke-width:0.5;" x1="8" x2="236" y1="47.5" y2="47.5"/><line style="stroke:#181818;stroke-width:0.5;" x1="8" x2="236" y1="55.5" y2="55.5"/><ellipse cx="18" cy="69.1484" fill="#84BE84" rx="3" ry="3" style="stroke:#038048;stroke-width:1.0;"/><text fill="#000000" font-family="sans-serif" font-size="14" lengthAdjust="spacing" textLength="204" x="27" y="72.4951">fax(faxContent: string): void</text></g><!--MD5=[21f7594770dc842560cfdbfa248c8817]
class IPrinteruplex--><g id="elem_IPrinteruplex"><rect codeLine="8" fill="#F1F1F1" height="64.2969" id="IPrinteruplex" rx="2.5" ry="2.5" style="stroke:#181818;stroke-width:0.5;" width="320" x="272" y="15.5"/><ellipse cx="382.75" cy="31.5" fill="#B4A7E5" rx="11" ry="11" style="stroke:#181818;stroke-width:1.0;"/><path d="M383.7031,28.2813 L385.4219,28.2813 C385.8125,28.2813 386,28.25 386.125,28.1719 C386.3906,28.0156 386.5313,27.7344 386.5313,27.4375 C386.5313,27.1719 386.4219,26.9063 386.1875,26.7344 C386.0156,26.625 385.875,26.5938 385.4219,26.5938 L380.2813,26.5938 C379.8438,26.5938 379.7188,26.6094 379.5625,26.7031 C379.3125,26.8594 379.1563,27.1563 379.1563,27.4375 C379.1563,27.7188 379.2969,27.9688 379.5156,28.1406 C379.6719,28.25 379.8594,28.2813 380.2813,28.2813 L382,28.2813 L382,34.7969 L380.2813,34.7969 C379.8438,34.7969 379.7188,34.8125 379.5625,34.9219 C379.3125,35.0781 379.1563,35.3594 379.1563,35.6563 C379.1563,35.9063 379.2969,36.1719 379.5156,36.3281 C379.6719,36.4531 379.875,36.5 380.2813,36.5 L385.4219,36.5 C386.1719,36.5 386.5313,36.2188 386.5313,35.6563 C386.5313,35.375 386.4219,35.125 386.1875,34.9531 C386.0156,34.8281 385.875,34.7969 385.4219,34.7969 L383.7031,34.7969 L383.7031,28.2813 Z " fill="#000000"/><text fill="#000000" font-family="sans-serif" font-size="14" font-style="italic" lengthAdjust="spacing" textLength="90" x="403.25" y="36.3467">IPrinteruplex</text><line style="stroke:#181818;stroke-width:0.5;" x1="273" x2="591" y1="47.5" y2="47.5"/><line style="stroke:#181818;stroke-width:0.5;" x1="273" x2="591" y1="55.5" y2="55.5"/><ellipse cx="283" cy="69.1484" fill="#84BE84" rx="3" ry="3" style="stroke:#038048;stroke-width:1.0;"/><text fill="#000000" font-family="sans-serif" font-size="14" lengthAdjust="spacing" textLength="294" x="292" y="72.4951">printDuplex(duplexContent: string): void</text></g><!--MD5=[cef667dc0a19ab8b6a625d2cf03b7e9c]
class HPLaserJetPrinter--><g id="elem_HPLaserJetPrinter"><rect codeLine="11" fill="#F1F1F1" height="113.1875" id="HPLaserJetPrinter" rx="2.5" ry="2.5" style="stroke:#181818;stroke-width:0.5;" width="320" x="272" y="148"/><ellipse cx="364.25" cy="164" fill="#ADD1B2" rx="11" ry="11" style="stroke:#181818;stroke-width:1.0;"/><path d="M366.5938,159.6719 C365.6563,159.2344 365.0625,159.0938 364.1875,159.0938 C361.5625,159.0938 359.5625,161.1719 359.5625,163.8906 L359.5625,165.0156 C359.5625,167.5938 361.6719,169.4844 364.5625,169.4844 C365.7813,169.4844 366.9375,169.1875 367.6875,168.6406 C368.2656,168.2344 368.5938,167.7813 368.5938,167.3906 C368.5938,166.9375 368.2031,166.5469 367.7344,166.5469 C367.5156,166.5469 367.3125,166.625 367.125,166.8125 C366.6719,167.2969 366.6719,167.2969 366.4844,167.3906 C366.0625,167.6563 365.375,167.7813 364.6094,167.7813 C362.5625,167.7813 361.2656,166.6875 361.2656,164.9844 L361.2656,163.8906 C361.2656,162.1094 362.5156,160.7969 364.25,160.7969 C364.8281,160.7969 365.4375,160.9531 365.9063,161.2031 C366.3906,161.4844 366.5625,161.7031 366.6563,162.1094 C366.7188,162.5156 366.75,162.6406 366.8906,162.7656 C367.0313,162.9063 367.2656,163.0156 367.4844,163.0156 C367.75,163.0156 368.0156,162.875 368.1875,162.6563 C368.2969,162.5 368.3281,162.3125 368.3281,161.8906 L368.3281,160.4688 C368.3281,160.0313 368.3125,159.9063 368.2188,159.75 C368.0625,159.4844 367.7813,159.3438 367.4844,159.3438 C367.1875,159.3438 366.9844,159.4375 366.7656,159.75 L366.5938,159.6719 Z " fill="#000000"/><text fill="#000000" font-family="sans-serif" font-size="14" lengthAdjust="spacing" textLength="127" x="384.75" y="168.8467">HPLaserJetPrinter</text><line style="stroke:#181818;stroke-width:0.5;" x1="273" x2="591" y1="180" y2="180"/><line style="stroke:#181818;stroke-width:0.5;" x1="273" x2="591" y1="188" y2="188"/><ellipse cx="283" cy="201.6484" fill="#84BE84" rx="3" ry="3" style="stroke:#038048;stroke-width:1.0;"/><text fill="#000000" font-family="sans-serif" font-size="14" lengthAdjust="spacing" textLength="232" x="292" y="204.9951">print(printContent: string): void</text><ellipse cx="283" cy="217.9453" fill="#84BE84" rx="3" ry="3" style="stroke:#038048;stroke-width:1.0;"/><text fill="#000000" font-family="sans-serif" font-size="14" lengthAdjust="spacing" textLength="215" x="292" y="221.292">scan(scanCotent: string): void</text><ellipse cx="283" cy="234.2422" fill="#84BE84" rx="3" ry="3" style="stroke:#038048;stroke-width:1.0;"/><text fill="#000000" font-family="sans-serif" font-size="14" lengthAdjust="spacing" textLength="204" x="292" y="237.5889">fax(faxContent: string): void</text><ellipse cx="283" cy="250.5391" fill="#84BE84" rx="3" ry="3" style="stroke:#038048;stroke-width:1.0;"/><text fill="#000000" font-family="sans-serif" font-size="14" lengthAdjust="spacing" textLength="294" x="292" y="253.8857">printDuplex(duplexContent: string): void</text></g><!--MD5=[33cd5071a48957f86f844fe1b1105d6f]
class LiquidInkjetPrinter--><g id="elem_LiquidInkjetPrinter"><rect codeLine="17" fill="#F1F1F1" height="80.5938" id="LiquidInkjetPrinter" rx="2.5" ry="2.5" style="stroke:#181818;stroke-width:0.5;" width="258" x="627" y="164"/><ellipse cx="684.75" cy="180" fill="#ADD1B2" rx="11" ry="11" style="stroke:#181818;stroke-width:1.0;"/><path d="M687.0938,175.6719 C686.1563,175.2344 685.5625,175.0938 684.6875,175.0938 C682.0625,175.0938 680.0625,177.1719 680.0625,179.8906 L680.0625,181.0156 C680.0625,183.5938 682.1719,185.4844 685.0625,185.4844 C686.2813,185.4844 687.4375,185.1875 688.1875,184.6406 C688.7656,184.2344 689.0938,183.7813 689.0938,183.3906 C689.0938,182.9375 688.7031,182.5469 688.2344,182.5469 C688.0156,182.5469 687.8125,182.625 687.625,182.8125 C687.1719,183.2969 687.1719,183.2969 686.9844,183.3906 C686.5625,183.6563 685.875,183.7813 685.1094,183.7813 C683.0625,183.7813 681.7656,182.6875 681.7656,180.9844 L681.7656,179.8906 C681.7656,178.1094 683.0156,176.7969 684.75,176.7969 C685.3281,176.7969 685.9375,176.9531 686.4063,177.2031 C686.8906,177.4844 687.0625,177.7031 687.1563,178.1094 C687.2188,178.5156 687.25,178.6406 687.3906,178.7656 C687.5313,178.9063 687.7656,179.0156 687.9844,179.0156 C688.25,179.0156 688.5156,178.875 688.6875,178.6563 C688.7969,178.5 688.8281,178.3125 688.8281,177.8906 L688.8281,176.4688 C688.8281,176.0313 688.8125,175.9063 688.7188,175.75 C688.5625,175.4844 688.2813,175.3438 687.9844,175.3438 C687.6875,175.3438 687.4844,175.4375 687.2656,175.75 L687.0938,175.6719 Z " fill="#000000"/><text fill="#000000" font-family="sans-serif" font-size="14" lengthAdjust="spacing" textLength="134" x="705.25" y="184.8467">LiquidInkjetPrinter</text><line style="stroke:#181818;stroke-width:0.5;" x1="628" x2="884" y1="196" y2="196"/><line style="stroke:#181818;stroke-width:0.5;" x1="628" x2="884" y1="204" y2="204"/><ellipse cx="638" cy="217.6484" fill="#84BE84" rx="3" ry="3" style="stroke:#038048;stroke-width:1.0;"/><text fill="#000000" font-family="sans-serif" font-size="14" lengthAdjust="spacing" textLength="215" x="647" y="220.9951">scan(scanCotent: string): void</text><ellipse cx="638" cy="233.9453" fill="#84BE84" rx="3" ry="3" style="stroke:#038048;stroke-width:1.0;"/><text fill="#000000" font-family="sans-serif" font-size="14" lengthAdjust="spacing" textLength="232" x="647" y="237.292">print(printContent: string): void</text></g><!--MD5=[a5502ea0ac0e8c849e5a24c59949ad88]
reverse link IPrinterBase to HPLaserJetPrinter--><g id="link_IPrinterBase_HPLaserJetPrinter"><path d="M655.04,96.799 C621.129,113.022 583.038,131.244 548.062,147.977 " fill="none" id="IPrinterBase-backto-HPLaserJetPrinter" style="stroke:#181818;stroke-width:1.0;stroke-dasharray:7.0,7.0;"/><polygon fill="none" points="652.34,90.331,673.403,88.014,658.382,102.96,652.34,90.331" style="stroke:#181818;stroke-width:1.0;"/></g><!--MD5=[5f541d1bd052c0271441eeeb23055e0f]
reverse link IPrinterFax to HPLaserJetPrinter--><g id="link_IPrinterFax_HPLaserJetPrinter"><path d="M202.522,88.761 C238.595,106.797 281.728,128.364 320.812,147.906 " fill="none" id="IPrinterFax-backto-HPLaserJetPrinter" style="stroke:#181818;stroke-width:1.0;stroke-dasharray:7.0,7.0;"/><polygon fill="none" points="199.118,94.885,184.36,79.68,205.379,82.363,199.118,94.885" style="stroke:#181818;stroke-width:1.0;"/></g><!--MD5=[6f15c182bedbd05394c1ff9668434be5]
reverse link IPrinteruplex to HPLaserJetPrinter--><g id="link_IPrinteruplex_HPLaserJetPrinter"><path d="M432,99.892 C432,115.231 432,132.114 432,147.719 " fill="none" id="IPrinteruplex-backto-HPLaserJetPrinter" style="stroke:#181818;stroke-width:1.0;stroke-dasharray:7.0,7.0;"/><polygon fill="none" points="425,99.867,432,79.867,439,99.867,425,99.867" style="stroke:#181818;stroke-width:1.0;"/></g><!--MD5=[0da8eb95dead5bb63d7f1d75da40507c]
reverse link IPrinterBase to LiquidInkjetPrinter--><g id="link_IPrinterBase_LiquidInkjetPrinter"><path d="M756,108.181 C756,126.807 756,146.886 756,163.7889 " fill="none" id="IPrinterBase-backto-LiquidInkjetPrinter" style="stroke:#181818;stroke-width:1.0;stroke-dasharray:7.0,7.0;"/><polygon fill="none" points="749,108.014,756,88.014,763,108.014,749,108.014" style="stroke:#181818;stroke-width:1.0;"/></g><!--MD5=[db8e6c8b8be66d1f7f314f04da8330e4]
@startuml
interface IPrinterBase {
    +print(printContent: string): void
    +scan(scanCotent: string): void
}
interface IPrinterFax {
    +fax(faxContent: string): void
}
interface IPrinteruplex {
    +printDuplex(duplexContent: string): void
}
class HPLaserJetPrinter implements IPrinterBase, IPrinterFax, IPrinteruplex {
    +print(printContent: string): void
    +scan(scanCotent: string): void
    +fax(faxContent: string): void
    +printDuplex(duplexContent: string): void
}
class LiquidInkjetPrinter implements IPrinterBase {
    +scan(scanCotent: string): void
    +print(printContent: string): void
}
@enduml

PlantUML version 1.2022.14beta1(Unknown compile time)
(GPL source distribution)
Java Runtime: Java(TM) SE Runtime Environment
JVM: Java HotSpot(TM) 64-Bit Server VM
Default Encoding: UTF-8
Language: en
Country: US
--></g></svg>