<?xml version="1.0" encoding="UTF-8" standalone="no"?><svg xmlns="http://www.w3.org/2000/svg" xmlns:xlink="http://www.w3.org/1999/xlink" contentStyleType="text/css" height="117px" preserveAspectRatio="none" style="width:221px;height:117px;background:#FFFFFF;" version="1.1" viewBox="0 0 221 117" width="221px" zoomAndPan="magnify"><defs/><g><!--MD5=[dc6f756e4e236d0d2f77e53d443eda88]
class Signleton--><g id="elem_Signleton"><rect codeLine="1" fill="#F1F1F1" height="96.8906" id="Signleton" rx="2.5" ry="2.5" style="stroke:#181818;stroke-width:0.5;" width="200" x="7" y="7"/><ellipse cx="68.25" cy="23" fill="#ADD1B2" rx="11" ry="11" style="stroke:#181818;stroke-width:1.0;"/><path d="M70.5938,18.6719 C69.6563,18.2344 69.0625,18.0938 68.1875,18.0938 C65.5625,18.0938 63.5625,20.1719 63.5625,22.8906 L63.5625,24.0156 C63.5625,26.5938 65.6719,28.4844 68.5625,28.4844 C69.7813,28.4844 70.9375,28.1875 71.6875,27.6406 C72.2656,27.2344 72.5938,26.7813 72.5938,26.3906 C72.5938,25.9375 72.2031,25.5469 71.7344,25.5469 C71.5156,25.5469 71.3125,25.625 71.125,25.8125 C70.6719,26.2969 70.6719,26.2969 70.4844,26.3906 C70.0625,26.6563 69.375,26.7813 68.6094,26.7813 C66.5625,26.7813 65.2656,25.6875 65.2656,23.9844 L65.2656,22.8906 C65.2656,21.1094 66.5156,19.7969 68.25,19.7969 C68.8281,19.7969 69.4375,19.9531 69.9063,20.2031 C70.3906,20.4844 70.5625,20.7031 70.6563,21.1094 C70.7188,21.5156 70.75,21.6406 70.8906,21.7656 C71.0313,21.9063 71.2656,22.0156 71.4844,22.0156 C71.75,22.0156 72.0156,21.875 72.1875,21.6563 C72.2969,21.5 72.3281,21.3125 72.3281,20.8906 L72.3281,19.4688 C72.3281,19.0313 72.3125,18.9063 72.2188,18.75 C72.0625,18.4844 71.7813,18.3438 71.4844,18.3438 C71.1875,18.3438 70.9844,18.4375 70.7656,18.75 L70.5938,18.6719 Z " fill="#000000"/><text fill="#000000" font-family="sans-serif" font-size="14" lengthAdjust="spacing" textLength="69" x="88.75" y="27.8467">Signleton</text><line style="stroke:#181818;stroke-width:0.5;" x1="8" x2="206" y1="39" y2="39"/><ellipse cx="18" cy="52.6484" fill="none" rx="3" ry="3" style="stroke:#038048;stroke-width:1.0;"/><text fill="#000000" font-family="sans-serif" font-size="14" lengthAdjust="spacing" textLength="80" x="27" y="55.9951">uuid: string</text><ellipse cx="18" cy="68.9453" fill="none" rx="3" ry="3" style="stroke:#038048;stroke-width:1.0;"/><text fill="#000000" font-family="sans-serif" font-size="14" lengthAdjust="spacing" text-decoration="underline" textLength="146" x="27" y="72.292">_instance: Signleton</text><line style="stroke:#181818;stroke-width:0.5;" x1="8" x2="206" y1="79.5938" y2="79.5938"/><ellipse cx="18" cy="93.2422" fill="#84BE84" rx="3" ry="3" style="stroke:#038048;stroke-width:1.0;"/><text fill="#000000" font-family="sans-serif" font-size="14" lengthAdjust="spacing" text-decoration="underline" textLength="174" x="27" y="96.5889">getInstance(): Signleton</text></g><!--MD5=[ca4fd917caa86ebea15150e2b7e55c69]
@startuml
class Signleton {
    +uuid: string
    +{static} _instance: Signleton
    +{static} getInstance(): Signleton
}
@enduml

PlantUML version 1.2022.14beta1(Unknown compile time)
(GPL source distribution)
Java Runtime: Java(TM) SE Runtime Environment
JVM: Java HotSpot(TM) 64-Bit Server VM
Default Encoding: UTF-8
Language: en
Country: US
--></g></svg>