<?xml version="1.0" encoding="UTF-8" standalone="no"?><svg xmlns="http://www.w3.org/2000/svg" xmlns:xlink="http://www.w3.org/1999/xlink" contentStyleType="text/css" height="343px" preserveAspectRatio="none" style="width:899px;height:343px;background:#FFFFFF;" version="1.1" viewBox="0 0 899 343" width="899px" zoomAndPan="magnify"><defs/><g><!--MD5=[9dff27e8933325bfe2ecc30e40191b61]
class SharingProvider--><g id="elem_SharingProvider"><rect codeLine="1" fill="#F1F1F1" height="64.2969" id="SharingProvider" rx="2.5" ry="2.5" style="stroke:#181818;stroke-width:0.5;" width="195" x="352" y="148"/><ellipse cx="389.05" cy="164" fill="#B4A7E5" rx="11" ry="11" style="stroke:#181818;stroke-width:1.0;"/><path d="M390.0031,160.7813 L391.7219,160.7813 C392.1125,160.7813 392.3,160.75 392.425,160.6719 C392.6906,160.5156 392.8313,160.2344 392.8313,159.9375 C392.8313,159.6719 392.7219,159.4063 392.4875,159.2344 C392.3156,159.125 392.175,159.0938 391.7219,159.0938 L386.5813,159.0938 C386.1438,159.0938 386.0188,159.1094 385.8625,159.2031 C385.6125,159.3594 385.4563,159.6563 385.4563,159.9375 C385.4563,160.2188 385.5969,160.4688 385.8156,160.6406 C385.9719,160.75 386.1594,160.7813 386.5813,160.7813 L388.3,160.7813 L388.3,167.2969 L386.5813,167.2969 C386.1438,167.2969 386.0188,167.3125 385.8625,167.4219 C385.6125,167.5781 385.4563,167.8594 385.4563,168.1563 C385.4563,168.4063 385.5969,168.6719 385.8156,168.8281 C385.9719,168.9531 386.175,169 386.5813,169 L391.7219,169 C392.4719,169 392.8313,168.7188 392.8313,168.1563 C392.8313,167.875 392.7219,167.625 392.4875,167.4531 C392.3156,167.3281 392.175,167.2969 391.7219,167.2969 L390.0031,167.2969 L390.0031,160.7813 Z " fill="#000000"/><text fill="#000000" font-family="sans-serif" font-size="14" font-style="italic" lengthAdjust="spacing" textLength="114" x="407.95" y="168.8467">SharingProvider</text><line style="stroke:#181818;stroke-width:0.5;" x1="353" x2="546" y1="180" y2="180"/><line style="stroke:#181818;stroke-width:0.5;" x1="353" x2="546" y1="188" y2="188"/><ellipse cx="363" cy="201.6484" fill="#84BE84" rx="3" ry="3" style="stroke:#038048;stroke-width:1.0;"/><text fill="#000000" font-family="sans-serif" font-size="14" lengthAdjust="spacing" textLength="169" x="372" y="204.9951">share(url: string): string</text></g><!--MD5=[312612cc5523312f5d46d536e430aeff]
class ShareGoogle--><g id="elem_ShareGoogle"><rect codeLine="4" fill="#F1F1F1" height="64.2969" id="ShareGoogle" rx="2.5" ry="2.5" style="stroke:#181818;stroke-width:0.5;" width="195" x="7" y="272"/><ellipse cx="54.25" cy="288" fill="#ADD1B2" rx="11" ry="11" style="stroke:#181818;stroke-width:1.0;"/><path d="M56.5938,283.6719 C55.6563,283.2344 55.0625,283.0938 54.1875,283.0938 C51.5625,283.0938 49.5625,285.1719 49.5625,287.8906 L49.5625,289.0156 C49.5625,291.5938 51.6719,293.4844 54.5625,293.4844 C55.7813,293.4844 56.9375,293.1875 57.6875,292.6406 C58.2656,292.2344 58.5938,291.7813 58.5938,291.3906 C58.5938,290.9375 58.2031,290.5469 57.7344,290.5469 C57.5156,290.5469 57.3125,290.625 57.125,290.8125 C56.6719,291.2969 56.6719,291.2969 56.4844,291.3906 C56.0625,291.6563 55.375,291.7813 54.6094,291.7813 C52.5625,291.7813 51.2656,290.6875 51.2656,288.9844 L51.2656,287.8906 C51.2656,286.1094 52.5156,284.7969 54.25,284.7969 C54.8281,284.7969 55.4375,284.9531 55.9063,285.2031 C56.3906,285.4844 56.5625,285.7031 56.6563,286.1094 C56.7188,286.5156 56.75,286.6406 56.8906,286.7656 C57.0313,286.9063 57.2656,287.0156 57.4844,287.0156 C57.75,287.0156 58.0156,286.875 58.1875,286.6563 C58.2969,286.5 58.3281,286.3125 58.3281,285.8906 L58.3281,284.4688 C58.3281,284.0313 58.3125,283.9063 58.2188,283.75 C58.0625,283.4844 57.7813,283.3438 57.4844,283.3438 C57.1875,283.3438 56.9844,283.4375 56.7656,283.75 L56.5938,283.6719 Z " fill="#000000"/><text fill="#000000" font-family="sans-serif" font-size="14" lengthAdjust="spacing" textLength="92" x="74.75" y="292.8467">ShareGoogle</text><line style="stroke:#181818;stroke-width:0.5;" x1="8" x2="201" y1="304" y2="304"/><line style="stroke:#181818;stroke-width:0.5;" x1="8" x2="201" y1="312" y2="312"/><ellipse cx="18" cy="325.6484" fill="#84BE84" rx="3" ry="3" style="stroke:#038048;stroke-width:1.0;"/><text fill="#000000" font-family="sans-serif" font-size="14" lengthAdjust="spacing" textLength="169" x="27" y="328.9951">share(url: string): string</text></g><!--MD5=[c14937f9777a0bafbccdd078edf35ef7]
class ShareIOS--><g id="elem_ShareIOS"><rect codeLine="7" fill="#F1F1F1" height="64.2969" id="ShareIOS" rx="2.5" ry="2.5" style="stroke:#181818;stroke-width:0.5;" width="195" x="237" y="272"/><ellipse cx="297.75" cy="288" fill="#ADD1B2" rx="11" ry="11" style="stroke:#181818;stroke-width:1.0;"/><path d="M300.0938,283.6719 C299.1563,283.2344 298.5625,283.0938 297.6875,283.0938 C295.0625,283.0938 293.0625,285.1719 293.0625,287.8906 L293.0625,289.0156 C293.0625,291.5938 295.1719,293.4844 298.0625,293.4844 C299.2813,293.4844 300.4375,293.1875 301.1875,292.6406 C301.7656,292.2344 302.0938,291.7813 302.0938,291.3906 C302.0938,290.9375 301.7031,290.5469 301.2344,290.5469 C301.0156,290.5469 300.8125,290.625 300.625,290.8125 C300.1719,291.2969 300.1719,291.2969 299.9844,291.3906 C299.5625,291.6563 298.875,291.7813 298.1094,291.7813 C296.0625,291.7813 294.7656,290.6875 294.7656,288.9844 L294.7656,287.8906 C294.7656,286.1094 296.0156,284.7969 297.75,284.7969 C298.3281,284.7969 298.9375,284.9531 299.4063,285.2031 C299.8906,285.4844 300.0625,285.7031 300.1563,286.1094 C300.2188,286.5156 300.25,286.6406 300.3906,286.7656 C300.5313,286.9063 300.7656,287.0156 300.9844,287.0156 C301.25,287.0156 301.5156,286.875 301.6875,286.6563 C301.7969,286.5 301.8281,286.3125 301.8281,285.8906 L301.8281,284.4688 C301.8281,284.0313 301.8125,283.9063 301.7188,283.75 C301.5625,283.4844 301.2813,283.3438 300.9844,283.3438 C300.6875,283.3438 300.4844,283.4375 300.2656,283.75 L300.0938,283.6719 Z " fill="#000000"/><text fill="#000000" font-family="sans-serif" font-size="14" lengthAdjust="spacing" textLength="65" x="318.25" y="292.8467">ShareIOS</text><line style="stroke:#181818;stroke-width:0.5;" x1="238" x2="431" y1="304" y2="304"/><line style="stroke:#181818;stroke-width:0.5;" x1="238" x2="431" y1="312" y2="312"/><ellipse cx="248" cy="325.6484" fill="#84BE84" rx="3" ry="3" style="stroke:#038048;stroke-width:1.0;"/><text fill="#000000" font-family="sans-serif" font-size="14" lengthAdjust="spacing" textLength="169" x="257" y="328.9951">share(url: string): string</text></g><!--MD5=[7a46a69ef521044cd540006329a5ec07]
class ShareMessages--><g id="elem_ShareMessages"><rect codeLine="10" fill="#F1F1F1" height="64.2969" id="ShareMessages" rx="2.5" ry="2.5" style="stroke:#181818;stroke-width:0.5;" width="195" x="467" y="272"/><ellipse cx="506.3" cy="288" fill="#ADD1B2" rx="11" ry="11" style="stroke:#181818;stroke-width:1.0;"/><path d="M508.6438,283.6719 C507.7063,283.2344 507.1125,283.0938 506.2375,283.0938 C503.6125,283.0938 501.6125,285.1719 501.6125,287.8906 L501.6125,289.0156 C501.6125,291.5938 503.7219,293.4844 506.6125,293.4844 C507.8313,293.4844 508.9875,293.1875 509.7375,292.6406 C510.3156,292.2344 510.6438,291.7813 510.6438,291.3906 C510.6438,290.9375 510.2531,290.5469 509.7844,290.5469 C509.5656,290.5469 509.3625,290.625 509.175,290.8125 C508.7219,291.2969 508.7219,291.2969 508.5344,291.3906 C508.1125,291.6563 507.425,291.7813 506.6594,291.7813 C504.6125,291.7813 503.3156,290.6875 503.3156,288.9844 L503.3156,287.8906 C503.3156,286.1094 504.5656,284.7969 506.3,284.7969 C506.8781,284.7969 507.4875,284.9531 507.9563,285.2031 C508.4406,285.4844 508.6125,285.7031 508.7063,286.1094 C508.7688,286.5156 508.8,286.6406 508.9406,286.7656 C509.0813,286.9063 509.3156,287.0156 509.5344,287.0156 C509.8,287.0156 510.0656,286.875 510.2375,286.6563 C510.3469,286.5 510.3781,286.3125 510.3781,285.8906 L510.3781,284.4688 C510.3781,284.0313 510.3625,283.9063 510.2688,283.75 C510.1125,283.4844 509.8313,283.3438 509.5344,283.3438 C509.2375,283.3438 509.0344,283.4375 508.8156,283.75 L508.6438,283.6719 Z " fill="#000000"/><text fill="#000000" font-family="sans-serif" font-size="14" lengthAdjust="spacing" textLength="109" x="525.7" y="292.8467">ShareMessages</text><line style="stroke:#181818;stroke-width:0.5;" x1="468" x2="661" y1="304" y2="304"/><line style="stroke:#181818;stroke-width:0.5;" x1="468" x2="661" y1="312" y2="312"/><ellipse cx="478" cy="325.6484" fill="#84BE84" rx="3" ry="3" style="stroke:#038048;stroke-width:1.0;"/><text fill="#000000" font-family="sans-serif" font-size="14" lengthAdjust="spacing" textLength="169" x="487" y="328.9951">share(url: string): string</text></g><!--MD5=[214e00d3c1d9d35fa4f19aa54ddbf5ff]
class ShareClipboard--><g id="elem_ShareClipboard"><rect codeLine="13" fill="#F1F1F1" height="64.2969" id="ShareClipboard" rx="2.5" ry="2.5" style="stroke:#181818;stroke-width:0.5;" width="195" x="697" y="272"/><ellipse cx="735.4" cy="288" fill="#ADD1B2" rx="11" ry="11" style="stroke:#181818;stroke-width:1.0;"/><path d="M737.7438,283.6719 C736.8063,283.2344 736.2125,283.0938 735.3375,283.0938 C732.7125,283.0938 730.7125,285.1719 730.7125,287.8906 L730.7125,289.0156 C730.7125,291.5938 732.8219,293.4844 735.7125,293.4844 C736.9313,293.4844 738.0875,293.1875 738.8375,292.6406 C739.4156,292.2344 739.7438,291.7813 739.7438,291.3906 C739.7438,290.9375 739.3531,290.5469 738.8844,290.5469 C738.6656,290.5469 738.4625,290.625 738.275,290.8125 C737.8219,291.2969 737.8219,291.2969 737.6344,291.3906 C737.2125,291.6563 736.525,291.7813 735.7594,291.7813 C733.7125,291.7813 732.4156,290.6875 732.4156,288.9844 L732.4156,287.8906 C732.4156,286.1094 733.6656,284.7969 735.4,284.7969 C735.9781,284.7969 736.5875,284.9531 737.0563,285.2031 C737.5406,285.4844 737.7125,285.7031 737.8063,286.1094 C737.8688,286.5156 737.9,286.6406 738.0406,286.7656 C738.1813,286.9063 738.4156,287.0156 738.6344,287.0156 C738.9,287.0156 739.1656,286.875 739.3375,286.6563 C739.4469,286.5 739.4781,286.3125 739.4781,285.8906 L739.4781,284.4688 C739.4781,284.0313 739.4625,283.9063 739.3688,283.75 C739.2125,283.4844 738.9313,283.3438 738.6344,283.3438 C738.3375,283.3438 738.1344,283.4375 737.9156,283.75 L737.7438,283.6719 Z " fill="#000000"/><text fill="#000000" font-family="sans-serif" font-size="14" lengthAdjust="spacing" textLength="111" x="754.6" y="292.8467">ShareClipboard</text><line style="stroke:#181818;stroke-width:0.5;" x1="698" x2="891" y1="304" y2="304"/><line style="stroke:#181818;stroke-width:0.5;" x1="698" x2="891" y1="312" y2="312"/><ellipse cx="708" cy="325.6484" fill="#84BE84" rx="3" ry="3" style="stroke:#038048;stroke-width:1.0;"/><text fill="#000000" font-family="sans-serif" font-size="14" lengthAdjust="spacing" textLength="169" x="717" y="328.9951">share(url: string): string</text></g><!--MD5=[da52ee64fbf29b9845fb5810e6fb0fa4]
class Imagee--><g id="elem_Imagee"><rect codeLine="16" fill="#F1F1F1" height="80.5938" id="Imagee" rx="2.5" ry="2.5" style="stroke:#181818;stroke-width:0.5;" width="348" x="275.5" y="7"/><ellipse cx="418.75" cy="23" fill="#ADD1B2" rx="11" ry="11" style="stroke:#181818;stroke-width:1.0;"/><path d="M421.0938,18.6719 C420.1563,18.2344 419.5625,18.0938 418.6875,18.0938 C416.0625,18.0938 414.0625,20.1719 414.0625,22.8906 L414.0625,24.0156 C414.0625,26.5938 416.1719,28.4844 419.0625,28.4844 C420.2813,28.4844 421.4375,28.1875 422.1875,27.6406 C422.7656,27.2344 423.0938,26.7813 423.0938,26.3906 C423.0938,25.9375 422.7031,25.5469 422.2344,25.5469 C422.0156,25.5469 421.8125,25.625 421.625,25.8125 C421.1719,26.2969 421.1719,26.2969 420.9844,26.3906 C420.5625,26.6563 419.875,26.7813 419.1094,26.7813 C417.0625,26.7813 415.7656,25.6875 415.7656,23.9844 L415.7656,22.8906 C415.7656,21.1094 417.0156,19.7969 418.75,19.7969 C419.3281,19.7969 419.9375,19.9531 420.4063,20.2031 C420.8906,20.4844 421.0625,20.7031 421.1563,21.1094 C421.2188,21.5156 421.25,21.6406 421.3906,21.7656 C421.5313,21.9063 421.7656,22.0156 421.9844,22.0156 C422.25,22.0156 422.5156,21.875 422.6875,21.6563 C422.7969,21.5 422.8281,21.3125 422.8281,20.8906 L422.8281,19.4688 C422.8281,19.0313 422.8125,18.9063 422.7188,18.75 C422.5625,18.4844 422.2813,18.3438 421.9844,18.3438 C421.6875,18.3438 421.4844,18.4375 421.2656,18.75 L421.0938,18.6719 Z " fill="#000000"/><text fill="#000000" font-family="sans-serif" font-size="14" lengthAdjust="spacing" textLength="53" x="439.25" y="27.8467">Imagee</text><line style="stroke:#181818;stroke-width:0.5;" x1="276.5" x2="622.5" y1="39" y2="39"/><ellipse cx="286.5" cy="52.6484" fill="none" rx="3" ry="3" style="stroke:#038048;stroke-width:1.0;"/><text fill="#000000" font-family="sans-serif" font-size="14" lengthAdjust="spacing" textLength="69" x="295.5" y="55.9951">url: string</text><line style="stroke:#181818;stroke-width:0.5;" x1="276.5" x2="622.5" y1="63.2969" y2="63.2969"/><ellipse cx="286.5" cy="76.9453" fill="#84BE84" rx="3" ry="3" style="stroke:#038048;stroke-width:1.0;"/><text fill="#000000" font-family="sans-serif" font-size="14" lengthAdjust="spacing" textLength="322" x="295.5" y="80.292">share(shareProvider: SharingProvider): string</text></g><!--MD5=[c163116eca1c52b4e5feece720a9665d]
reverse link SharingProvider to ShareGoogle--><g id="link_SharingProvider_ShareGoogle"><path d="M342.465,218.85 C294.235,235.905 237.987,255.7958 192.29,271.9554 " fill="none" id="SharingProvider-backto-ShareGoogle" style="stroke:#181818;stroke-width:1.0;stroke-dasharray:7.0,7.0;"/><polygon fill="none" points="340.36,212.17,361.549,212.101,345.027,225.369,340.36,212.17" style="stroke:#181818;stroke-width:1.0;"/></g><!--MD5=[e85f4ca3ebc09845fb9ce1f2b38d9170]
reverse link SharingProvider to ShareIOS--><g id="link_SharingProvider_ShareIOS"><path d="M406.054,227.09 C391.929,242.0755 376.598,258.3398 363.763,271.9554 " fill="none" id="SharingProvider-backto-ShareIOS" style="stroke:#181818;stroke-width:1.0;stroke-dasharray:7.0,7.0;"/><polygon fill="none" points="401.371,221.853,420.183,212.101,411.558,231.456,401.371,221.853" style="stroke:#181818;stroke-width:1.0;"/></g><!--MD5=[e646fc848985839c993b2d32195bdea6]
reverse link SharingProvider to ShareMessages--><g id="link_SharingProvider_ShareMessages"><path d="M492.946,227.09 C507.071,242.0755 522.402,258.3398 535.237,271.9554 " fill="none" id="SharingProvider-backto-ShareMessages" style="stroke:#181818;stroke-width:1.0;stroke-dasharray:7.0,7.0;"/><polygon fill="none" points="487.442,231.456,478.817,212.101,497.629,221.853,487.442,231.456" style="stroke:#181818;stroke-width:1.0;"/></g><!--MD5=[affadfde52e78a8d0a04f6427d0398d6]
reverse link SharingProvider to ShareClipboard--><g id="link_SharingProvider_ShareClipboard"><path d="M556.535,218.85 C604.765,235.905 661.013,255.7958 706.71,271.9554 " fill="none" id="SharingProvider-backto-ShareClipboard" style="stroke:#181818;stroke-width:1.0;stroke-dasharray:7.0,7.0;"/><polygon fill="none" points="553.973,225.369,537.451,212.101,558.64,212.17,553.973,225.369" style="stroke:#181818;stroke-width:1.0;"/></g><!--MD5=[9381b3c82162b833a6fae19369b67694]
link Imagee to SharingProvider--><g id="link_Imagee_SharingProvider"><path codeLine="20" d="M449.5,88.008 C449.5,105.413 449.5,125.727 449.5,142.741 " fill="none" id="Imagee-to-SharingProvider" style="stroke:#181818;stroke-width:1.0;"/><polygon fill="#181818" points="449.5,147.908,453.5,138.908,449.5,142.908,445.5,138.908,449.5,147.908" style="stroke:#181818;stroke-width:1.0;"/><text fill="#000000" font-family="sans-serif" font-size="13" lengthAdjust="spacing" textLength="8" x="440.675" y="136.7921">1</text></g><!--MD5=[2ca91744917fb99910e4c8cdec5eb06e]
@startuml
interface SharingProvider {
    +share(url: string): string
}
class ShareGoogle implements SharingProvider {
    +share(url: string): string
}
class ShareIOS implements SharingProvider {
    +share(url: string): string
}
class ShareMessages implements SharingProvider {
    +share(url: string): string
}
class ShareClipboard implements SharingProvider {
    +share(url: string): string
}
class Imagee {
    +url: string
    +share(shareProvider: SharingProvider): string
}
Imagee - -> "1" SharingProvider
@enduml

PlantUML version 1.2022.14beta1(Unknown compile time)
(GPL source distribution)
Java Runtime: Java(TM) SE Runtime Environment
JVM: Java HotSpot(TM) 64-Bit Server VM
Default Encoding: UTF-8
Language: en
Country: US
--></g></svg>