<?xml version="1.0" encoding="UTF-8" standalone="no"?><svg xmlns="http://www.w3.org/2000/svg" xmlns:xlink="http://www.w3.org/1999/xlink" contentStyleType="text/css" height="517px" preserveAspectRatio="none" style="width:224px;height:517px;background:#FFFFFF;" version="1.1" viewBox="0 0 224 517" width="224px" zoomAndPan="magnify"><defs/><g><!--MD5=[9a2fed01ba53800c731ec5a80a147273]
class USB_C--><g id="elem_USB_C"><rect codeLine="1" fill="#F1F1F1" height="96.8906" id="USB_C" rx="2.5" ry="2.5" style="stroke:#181818;stroke-width:0.5;" width="210" x="7" y="305"/><ellipse cx="85.25" cy="321" fill="#ADD1B2" rx="11" ry="11" style="stroke:#181818;stroke-width:1.0;"/><path d="M87.5938,316.6719 C86.6563,316.2344 86.0625,316.0938 85.1875,316.0938 C82.5625,316.0938 80.5625,318.1719 80.5625,320.8906 L80.5625,322.0156 C80.5625,324.5938 82.6719,326.4844 85.5625,326.4844 C86.7813,326.4844 87.9375,326.1875 88.6875,325.6406 C89.2656,325.2344 89.5938,324.7813 89.5938,324.3906 C89.5938,323.9375 89.2031,323.5469 88.7344,323.5469 C88.5156,323.5469 88.3125,323.625 88.125,323.8125 C87.6719,324.2969 87.6719,324.2969 87.4844,324.3906 C87.0625,324.6563 86.375,324.7813 85.6094,324.7813 C83.5625,324.7813 82.2656,323.6875 82.2656,321.9844 L82.2656,320.8906 C82.2656,319.1094 83.5156,317.7969 85.25,317.7969 C85.8281,317.7969 86.4375,317.9531 86.9063,318.2031 C87.3906,318.4844 87.5625,318.7031 87.6563,319.1094 C87.7188,319.5156 87.75,319.6406 87.8906,319.7656 C88.0313,319.9063 88.2656,320.0156 88.4844,320.0156 C88.75,320.0156 89.0156,319.875 89.1875,319.6563 C89.2969,319.5 89.3281,319.3125 89.3281,318.8906 L89.3281,317.4688 C89.3281,317.0313 89.3125,316.9063 89.2188,316.75 C89.0625,316.4844 88.7813,316.3438 88.4844,316.3438 C88.1875,316.3438 87.9844,316.4375 87.7656,316.75 L87.5938,316.6719 Z " fill="#000000"/><text fill="#000000" font-family="sans-serif" font-size="14" lengthAdjust="spacing" textLength="45" x="105.75" y="325.8467">USB_C</text><line style="stroke:#181818;stroke-width:0.5;" x1="8" x2="216" y1="337" y2="337"/><ellipse cx="18" cy="350.6484" fill="none" rx="3" ry="3" style="stroke:#038048;stroke-width:1.0;"/><text fill="#000000" font-family="sans-serif" font-size="14" lengthAdjust="spacing" textLength="91" x="27" y="353.9951">name: string</text><ellipse cx="18" cy="366.9453" fill="none" rx="3" ry="3" style="stroke:#038048;stroke-width:1.0;"/><text fill="#000000" font-family="sans-serif" font-size="14" lengthAdjust="spacing" textLength="85" x="27" y="370.292">type: string</text><line style="stroke:#181818;stroke-width:0.5;" x1="8" x2="216" y1="377.5938" y2="377.5938"/><ellipse cx="18" cy="391.2422" fill="#84BE84" rx="3" ry="3" style="stroke:#038048;stroke-width:1.0;"/><text fill="#000000" font-family="sans-serif" font-size="14" lengthAdjust="spacing" textLength="184" x="27" y="394.5889">connectToTypeC(): string</text></g><!--MD5=[b7a03897a9eb1ce60c0d9eeee486905a]
class Charger--><g id="elem_Charger"><rect codeLine="6" fill="#F1F1F1" height="48" id="Charger" rx="2.5" ry="2.5" style="stroke:#181818;stroke-width:0.5;" width="89" x="67.5" y="462"/><ellipse cx="82.5" cy="478" fill="#ADD1B2" rx="11" ry="11" style="stroke:#181818;stroke-width:1.0;"/><path d="M84.8438,473.6719 C83.9063,473.2344 83.3125,473.0938 82.4375,473.0938 C79.8125,473.0938 77.8125,475.1719 77.8125,477.8906 L77.8125,479.0156 C77.8125,481.5938 79.9219,483.4844 82.8125,483.4844 C84.0313,483.4844 85.1875,483.1875 85.9375,482.6406 C86.5156,482.2344 86.8438,481.7813 86.8438,481.3906 C86.8438,480.9375 86.4531,480.5469 85.9844,480.5469 C85.7656,480.5469 85.5625,480.625 85.375,480.8125 C84.9219,481.2969 84.9219,481.2969 84.7344,481.3906 C84.3125,481.6563 83.625,481.7813 82.8594,481.7813 C80.8125,481.7813 79.5156,480.6875 79.5156,478.9844 L79.5156,477.8906 C79.5156,476.1094 80.7656,474.7969 82.5,474.7969 C83.0781,474.7969 83.6875,474.9531 84.1563,475.2031 C84.6406,475.4844 84.8125,475.7031 84.9063,476.1094 C84.9688,476.5156 85,476.6406 85.1406,476.7656 C85.2813,476.9063 85.5156,477.0156 85.7344,477.0156 C86,477.0156 86.2656,476.875 86.4375,476.6563 C86.5469,476.5 86.5781,476.3125 86.5781,475.8906 L86.5781,474.4688 C86.5781,474.0313 86.5625,473.9063 86.4688,473.75 C86.3125,473.4844 86.0313,473.3438 85.7344,473.3438 C85.4375,473.3438 85.2344,473.4375 85.0156,473.75 L84.8438,473.6719 Z " fill="#000000"/><text fill="#000000" font-family="sans-serif" font-size="14" lengthAdjust="spacing" textLength="57" x="96.5" y="482.8467">Charger</text><line style="stroke:#181818;stroke-width:0.5;" x1="68.5" x2="155.5" y1="494" y2="494"/><line style="stroke:#181818;stroke-width:0.5;" x1="68.5" x2="155.5" y1="502" y2="502"/></g><!--MD5=[dd06fe658502927fac7adf08c60abf9a]
class USB_A--><g id="elem_USB_A"><rect codeLine="7" fill="#F1F1F1" height="96.8906" id="USB_A" rx="2.5" ry="2.5" style="stroke:#181818;stroke-width:0.5;" width="210" x="7" y="7"/><ellipse cx="85.25" cy="23" fill="#ADD1B2" rx="11" ry="11" style="stroke:#181818;stroke-width:1.0;"/><path d="M87.5938,18.6719 C86.6563,18.2344 86.0625,18.0938 85.1875,18.0938 C82.5625,18.0938 80.5625,20.1719 80.5625,22.8906 L80.5625,24.0156 C80.5625,26.5938 82.6719,28.4844 85.5625,28.4844 C86.7813,28.4844 87.9375,28.1875 88.6875,27.6406 C89.2656,27.2344 89.5938,26.7813 89.5938,26.3906 C89.5938,25.9375 89.2031,25.5469 88.7344,25.5469 C88.5156,25.5469 88.3125,25.625 88.125,25.8125 C87.6719,26.2969 87.6719,26.2969 87.4844,26.3906 C87.0625,26.6563 86.375,26.7813 85.6094,26.7813 C83.5625,26.7813 82.2656,25.6875 82.2656,23.9844 L82.2656,22.8906 C82.2656,21.1094 83.5156,19.7969 85.25,19.7969 C85.8281,19.7969 86.4375,19.9531 86.9063,20.2031 C87.3906,20.4844 87.5625,20.7031 87.6563,21.1094 C87.7188,21.5156 87.75,21.6406 87.8906,21.7656 C88.0313,21.9063 88.2656,22.0156 88.4844,22.0156 C88.75,22.0156 89.0156,21.875 89.1875,21.6563 C89.2969,21.5 89.3281,21.3125 89.3281,20.8906 L89.3281,19.4688 C89.3281,19.0313 89.3125,18.9063 89.2188,18.75 C89.0625,18.4844 88.7813,18.3438 88.4844,18.3438 C88.1875,18.3438 87.9844,18.4375 87.7656,18.75 L87.5938,18.6719 Z " fill="#000000"/><text fill="#000000" font-family="sans-serif" font-size="14" lengthAdjust="spacing" textLength="45" x="105.75" y="27.8467">USB_A</text><line style="stroke:#181818;stroke-width:0.5;" x1="8" x2="216" y1="39" y2="39"/><ellipse cx="18" cy="52.6484" fill="none" rx="3" ry="3" style="stroke:#038048;stroke-width:1.0;"/><text fill="#000000" font-family="sans-serif" font-size="14" lengthAdjust="spacing" textLength="91" x="27" y="55.9951">name: string</text><ellipse cx="18" cy="68.9453" fill="none" rx="3" ry="3" style="stroke:#038048;stroke-width:1.0;"/><text fill="#000000" font-family="sans-serif" font-size="14" lengthAdjust="spacing" textLength="85" x="27" y="72.292">type: string</text><line style="stroke:#181818;stroke-width:0.5;" x1="8" x2="216" y1="79.5938" y2="79.5938"/><ellipse cx="18" cy="93.2422" fill="#84BE84" rx="3" ry="3" style="stroke:#038048;stroke-width:1.0;"/><text fill="#000000" font-family="sans-serif" font-size="14" lengthAdjust="spacing" textLength="184" x="27" y="96.5889">connectToTypeA(): string</text></g><!--MD5=[3d804b3eba7b8e391a608c93345612f2]
class USB_C_TO_A_ADAPTER--><g id="elem_USB_C_TO_A_ADAPTER"><rect codeLine="12" fill="#F1F1F1" height="80.5938" id="USB_C_TO_A_ADAPTER" rx="2.5" ry="2.5" style="stroke:#181818;stroke-width:0.5;" width="210" x="7" y="164"/><ellipse cx="28.3" cy="180" fill="#ADD1B2" rx="11" ry="11" style="stroke:#181818;stroke-width:1.0;"/><path d="M30.6438,175.6719 C29.7063,175.2344 29.1125,175.0938 28.2375,175.0938 C25.6125,175.0938 23.6125,177.1719 23.6125,179.8906 L23.6125,181.0156 C23.6125,183.5938 25.7219,185.4844 28.6125,185.4844 C29.8313,185.4844 30.9875,185.1875 31.7375,184.6406 C32.3156,184.2344 32.6438,183.7813 32.6438,183.3906 C32.6438,182.9375 32.2531,182.5469 31.7844,182.5469 C31.5656,182.5469 31.3625,182.625 31.175,182.8125 C30.7219,183.2969 30.7219,183.2969 30.5344,183.3906 C30.1125,183.6563 29.425,183.7813 28.6594,183.7813 C26.6125,183.7813 25.3156,182.6875 25.3156,180.9844 L25.3156,179.8906 C25.3156,178.1094 26.5656,176.7969 28.3,176.7969 C28.8781,176.7969 29.4875,176.9531 29.9563,177.2031 C30.4406,177.4844 30.6125,177.7031 30.7063,178.1094 C30.7688,178.5156 30.8,178.6406 30.9406,178.7656 C31.0813,178.9063 31.3156,179.0156 31.5344,179.0156 C31.8,179.0156 32.0656,178.875 32.2375,178.6563 C32.3469,178.5 32.3781,178.3125 32.3781,177.8906 L32.3781,176.4688 C32.3781,176.0313 32.3625,175.9063 32.2688,175.75 C32.1125,175.4844 31.8313,175.3438 31.5344,175.3438 C31.2375,175.3438 31.0344,175.4375 30.8156,175.75 L30.6438,175.6719 Z " fill="#000000"/><text fill="#000000" font-family="sans-serif" font-size="14" lengthAdjust="spacing" textLength="164" x="43.7" y="184.8467">USB_C_TO_A_ADAPTER</text><line style="stroke:#181818;stroke-width:0.5;" x1="8" x2="216" y1="196" y2="196"/><rect fill="none" height="6" style="stroke:#C82930;stroke-width:1.0;" width="6" x="15" y="206.6484"/><text fill="#000000" font-family="sans-serif" font-size="14" lengthAdjust="spacing" textLength="148" x="27" y="212.9951">usb_c_device: USB_C</text><line style="stroke:#181818;stroke-width:0.5;" x1="8" x2="216" y1="220.2969" y2="220.2969"/><ellipse cx="18" cy="233.9453" fill="#84BE84" rx="3" ry="3" style="stroke:#038048;stroke-width:1.0;"/><text fill="#000000" font-family="sans-serif" font-size="14" lengthAdjust="spacing" textLength="184" x="27" y="237.292">connectToTypeA(): string</text></g><!--MD5=[20dedb05607d440128964cf2d2be6939]
reverse link USB_C to Charger--><g id="link_USB_C_Charger"><path d="M112,422.733 C112,436.7604 112,450.6036 112,461.6622 " fill="none" id="USB_C-backto-Charger" style="stroke:#181818;stroke-width:1.0;"/><polygon fill="none" points="105.0001,422.3524,112,402.352,119,422.3523,105.0001,422.3524" style="stroke:#181818;stroke-width:1.0;"/></g><!--MD5=[1d0c41caa66a82b8c1a85e257351e744]
reverse link USB_A to USB_C_TO_A_ADAPTER--><g id="link_USB_A_USB_C_TO_A_ADAPTER"><path d="M112,124.337 C112,137.876 112,151.673 112,163.876 " fill="none" id="USB_A-backto-USB_C_TO_A_ADAPTER" style="stroke:#181818;stroke-width:1.0;"/><polygon fill="none" points="105.0001,124.227,112,104.227,119,124.227,105.0001,124.227" style="stroke:#181818;stroke-width:1.0;"/></g><!--MD5=[10f7614021c3022834e90ffaa6a9ee3e]
link USB_C_TO_A_ADAPTER to USB_C--><g id="link_USB_C_TO_A_ADAPTER_USB_C"><path codeLine="16" d="M112,245.28 C112,262.068 112,281.852 112,299.826 " fill="none" id="USB_C_TO_A_ADAPTER-to-USB_C" style="stroke:#181818;stroke-width:1.0;"/><polygon fill="#181818" points="112,304.843,116,295.843,112,299.843,108,295.843,112,304.843" style="stroke:#181818;stroke-width:1.0;"/><text fill="#000000" font-family="sans-serif" font-size="13" lengthAdjust="spacing" textLength="8" x="103.4375" y="294.0298">1</text></g><!--MD5=[9af7e2ea7dddbc8d41ab675f30e90d55]
@startuml
class USB_C {
    +name: string
    +type: string
    +connectToTypeC(): string
}
class Charger extends USB_C
class USB_A {
    +name: string
    +type: string
    +connectToTypeA(): string
}
class USB_C_TO_A_ADAPTER extends USB_A {
    -usb_c_device: USB_C
    +connectToTypeA(): string
}
USB_C_TO_A_ADAPTER - -> "1" USB_C
@enduml

PlantUML version 1.2022.14beta1(Unknown compile time)
(GPL source distribution)
Java Runtime: Java(TM) SE Runtime Environment
JVM: Java HotSpot(TM) 64-Bit Server VM
Default Encoding: UTF-8
Language: en
Country: US
--></g></svg>