<?xml version="1.0" encoding="UTF-8" standalone="no"?><svg xmlns="http://www.w3.org/2000/svg" xmlns:xlink="http://www.w3.org/1999/xlink" contentStyleType="text/css" height="349px" preserveAspectRatio="none" style="width:421px;height:349px;background:#FFFFFF;" version="1.1" viewBox="0 0 421 349" width="421px" zoomAndPan="magnify"><defs/><g><!--class Burger--><g id="elem_Burger"><rect codeLine="1" fill="#F1F1F1" height="129.4844" id="Burger" rx="2.5" ry="2.5" style="stroke:#181818;stroke-width:0.5;" width="202" x="109.5" y="213"/><ellipse cx="182.25" cy="229" fill="#ADD1B2" rx="11" ry="11" style="stroke:#181818;stroke-width:1.0;"/><path d="M184.5938,224.6719 C183.6563,224.2344 183.0625,224.0938 182.1875,224.0938 C179.5625,224.0938 177.5625,226.1719 177.5625,228.8906 L177.5625,230.0156 C177.5625,232.5938 179.6719,234.4844 182.5625,234.4844 C183.7813,234.4844 184.9375,234.1875 185.6875,233.6406 C186.2656,233.2344 186.5938,232.7813 186.5938,232.3906 C186.5938,231.9375 186.2031,231.5469 185.7344,231.5469 C185.5156,231.5469 185.3125,231.625 185.125,231.8125 C184.6719,232.2969 184.6719,232.2969 184.4844,232.3906 C184.0625,232.6563 183.375,232.7813 182.6094,232.7813 C180.5625,232.7813 179.2656,231.6875 179.2656,229.9844 L179.2656,228.8906 C179.2656,227.1094 180.5156,225.7969 182.25,225.7969 C182.8281,225.7969 183.4375,225.9531 183.9063,226.2031 C184.3906,226.4844 184.5625,226.7031 184.6563,227.1094 C184.7188,227.5156 184.75,227.6406 184.8906,227.7656 C185.0313,227.9063 185.2656,228.0156 185.4844,228.0156 C185.75,228.0156 186.0156,227.875 186.1875,227.6563 C186.2969,227.5 186.3281,227.3125 186.3281,226.8906 L186.3281,225.4688 C186.3281,225.0313 186.3125,224.9063 186.2188,224.75 C186.0625,224.4844 185.7813,224.3438 185.4844,224.3438 C185.1875,224.3438 184.9844,224.4375 184.7656,224.75 L184.5938,224.6719 Z " fill="#000000"/><text fill="#000000" font-family="sans-serif" font-size="14" lengthAdjust="spacing" textLength="48" x="202.75" y="233.8467">Burger</text><line style="stroke:#181818;stroke-width:0.5;" x1="110.5" x2="310.5" y1="245" y2="245"/><ellipse cx="120.5" cy="258.6484" fill="none" rx="3" ry="3" style="stroke:#038048;stroke-width:1.0;"/><text fill="#000000" font-family="sans-serif" font-size="14" lengthAdjust="spacing" textLength="120" x="129.5" y="261.9951">pain: string | null</text><ellipse cx="120.5" cy="274.9453" fill="none" rx="3" ry="3" style="stroke:#038048;stroke-width:1.0;"/><text fill="#000000" font-family="sans-serif" font-size="14" lengthAdjust="spacing" textLength="119" x="129.5" y="278.292">crudites: string[]</text><ellipse cx="120.5" cy="291.2422" fill="none" rx="3" ry="3" style="stroke:#038048;stroke-width:1.0;"/><text fill="#000000" font-family="sans-serif" font-size="14" lengthAdjust="spacing" textLength="108" x="129.5" y="294.5889">sauces: string[]</text><ellipse cx="120.5" cy="307.5391" fill="none" rx="3" ry="3" style="stroke:#038048;stroke-width:1.0;"/><text fill="#000000" font-family="sans-serif" font-size="14" lengthAdjust="spacing" textLength="123" x="129.5" y="310.8857">isVegan: boolean</text><line style="stroke:#181818;stroke-width:0.5;" x1="110.5" x2="310.5" y1="318.1875" y2="318.1875"/><ellipse cx="120.5" cy="331.8359" fill="#84BE84" rx="3" ry="3" style="stroke:#038048;stroke-width:1.0;"/><text fill="#000000" font-family="sans-serif" font-size="14" lengthAdjust="spacing" textLength="176" x="129.5" y="335.1826">humanReadable(): string</text></g><!--class BurgerBuilder--><g id="elem_BurgerBuilder"><rect codeLine="8" fill="#F1F1F1" height="145.7813" id="BurgerBuilder" rx="2.5" ry="2.5" style="stroke:#181818;stroke-width:0.5;" width="407" x="7" y="7"/><ellipse cx="157.25" cy="23" fill="#ADD1B2" rx="11" ry="11" style="stroke:#181818;stroke-width:1.0;"/><path d="M159.5938,18.6719 C158.6563,18.2344 158.0625,18.0938 157.1875,18.0938 C154.5625,18.0938 152.5625,20.1719 152.5625,22.8906 L152.5625,24.0156 C152.5625,26.5938 154.6719,28.4844 157.5625,28.4844 C158.7813,28.4844 159.9375,28.1875 160.6875,27.6406 C161.2656,27.2344 161.5938,26.7813 161.5938,26.3906 C161.5938,25.9375 161.2031,25.5469 160.7344,25.5469 C160.5156,25.5469 160.3125,25.625 160.125,25.8125 C159.6719,26.2969 159.6719,26.2969 159.4844,26.3906 C159.0625,26.6563 158.375,26.7813 157.6094,26.7813 C155.5625,26.7813 154.2656,25.6875 154.2656,23.9844 L154.2656,22.8906 C154.2656,21.1094 155.5156,19.7969 157.25,19.7969 C157.8281,19.7969 158.4375,19.9531 158.9063,20.2031 C159.3906,20.4844 159.5625,20.7031 159.6563,21.1094 C159.7188,21.5156 159.75,21.6406 159.8906,21.7656 C160.0313,21.9063 160.2656,22.0156 160.4844,22.0156 C160.75,22.0156 161.0156,21.875 161.1875,21.6563 C161.2969,21.5 161.3281,21.3125 161.3281,20.8906 L161.3281,19.4688 C161.3281,19.0313 161.3125,18.9063 161.2188,18.75 C161.0625,18.4844 160.7813,18.3438 160.4844,18.3438 C160.1875,18.3438 159.9844,18.4375 159.7656,18.75 L159.5938,18.6719 Z " fill="#000000"/><text fill="#000000" font-family="sans-serif" font-size="14" lengthAdjust="spacing" textLength="98" x="177.75" y="27.8467">BurgerBuilder</text><line style="stroke:#181818;stroke-width:0.5;" x1="8" x2="413" y1="39" y2="39"/><rect fill="none" height="6" style="stroke:#C82930;stroke-width:1.0;" width="6" x="15" y="49.6484"/><text fill="#000000" font-family="sans-serif" font-size="14" lengthAdjust="spacing" textLength="105" x="27" y="55.9951">burger: Burger</text><line style="stroke:#181818;stroke-width:0.5;" x1="8" x2="413" y1="63.2969" y2="63.2969"/><ellipse cx="18" cy="76.9453" fill="#84BE84" rx="3" ry="3" style="stroke:#038048;stroke-width:1.0;"/><text fill="#000000" font-family="sans-serif" font-size="14" lengthAdjust="spacing" textLength="252" x="27" y="80.292">setPain(pain: string): BurgerBuilder</text><ellipse cx="18" cy="93.2422" fill="#84BE84" rx="3" ry="3" style="stroke:#038048;stroke-width:1.0;"/><text fill="#000000" font-family="sans-serif" font-size="14" lengthAdjust="spacing" textLength="319" x="27" y="96.5889">setIsVegan(isVegan: boolean): BurgerBuilder</text><ellipse cx="18" cy="109.5391" fill="#84BE84" rx="3" ry="3" style="stroke:#038048;stroke-width:1.0;"/><text fill="#000000" font-family="sans-serif" font-size="14" lengthAdjust="spacing" textLength="381" x="27" y="112.8857">addOrRemoveCrudites(crudite: string): BurgerBuilder</text><ellipse cx="18" cy="125.8359" fill="#84BE84" rx="3" ry="3" style="stroke:#038048;stroke-width:1.0;"/><text fill="#000000" font-family="sans-serif" font-size="14" lengthAdjust="spacing" textLength="363" x="27" y="129.1826">addOrRemoveSauce(crudite: string): BurgerBuilder</text><ellipse cx="18" cy="142.1328" fill="#84BE84" rx="3" ry="3" style="stroke:#038048;stroke-width:1.0;"/><text fill="#000000" font-family="sans-serif" font-size="14" lengthAdjust="spacing" textLength="153" x="27" y="145.4795">getinstance(): Burger</text></g><!--link BurgerBuilder to Burger--><g id="link_BurgerBuilder_Burger"><path codeLine="16" d="M210.5,153.242 C210.5,170.985 210.5,189.934 210.5,207.519 " fill="none" id="BurgerBuilder-to-Burger" style="stroke:#181818;stroke-width:1.0;"/><polygon fill="#181818" points="210.5,212.93,214.5,203.93,210.5,207.93,206.5,203.93,210.5,212.93" style="stroke:#181818;stroke-width:1.0;"/><text fill="#000000" font-family="sans-serif" font-size="13" lengthAdjust="spacing" textLength="8" x="202.0625" y="202.095">1</text></g><!--SRC=[ZP0_3u8m4CNtVeg62M8ON1aSS7BIOE9Y78xsKflKOlh7HVdk8Yq4r1WxldUlztl755XBIsy46dedj7kBAqXTKEkCr88-gFPA1OCPpwL3EvZ7Kz0jUFQfIdj00TrFTTCe11tKix-0hX0ur0hJR0YHbh09IkcbuYDHNlTY4Ssu5Dsk0qsdj5anpu-Jcy2IlZDz3m3dMrFXfRdXEbPEO_VVcoR1_Uic_wK4Egcj0ytwWyIIBPcV8izND5acqNu2]--></g></svg>