<?xml version="1.0" encoding="UTF-8" standalone="no"?><svg xmlns="http://www.w3.org/2000/svg" xmlns:xlink="http://www.w3.org/1999/xlink" contentStyleType="text/css" height="836px" preserveAspectRatio="none" style="width:711px;height:836px;background:#FFFFFF;" version="1.1" viewBox="0 0 711 836" width="711px" zoomAndPan="magnify"><defs/><g><!--MD5=[521817ab83e81da341a3f4b5e91bae41]
class Command--><g id="elem_Command"><rect codeLine="1" fill="#F1F1F1" height="129.4844" id="Command" rx="2.5" ry="2.5" style="stroke:#181818;stroke-width:0.5;" width="133" x="297.8337" y="7"/><ellipse cx="324.9837" cy="23" fill="#B4A7E5" rx="11" ry="11" style="stroke:#181818;stroke-width:1.0;"/><path d="M325.9368,19.7813 L327.6556,19.7813 C328.0462,19.7813 328.2337,19.75 328.3587,19.6719 C328.6243,19.5156 328.765,19.2344 328.765,18.9375 C328.765,18.6719 328.6556,18.4063 328.4212,18.2344 C328.2493,18.125 328.1087,18.0938 327.6556,18.0938 L322.515,18.0938 C322.0775,18.0938 321.9525,18.1094 321.7962,18.2031 C321.5462,18.3594 321.39,18.6563 321.39,18.9375 C321.39,19.2188 321.5306,19.4688 321.7493,19.6406 C321.9056,19.75 322.0931,19.7813 322.515,19.7813 L324.2337,19.7813 L324.2337,26.2969 L322.515,26.2969 C322.0775,26.2969 321.9525,26.3125 321.7962,26.4219 C321.5462,26.5781 321.39,26.8594 321.39,27.1563 C321.39,27.4063 321.5306,27.6719 321.7493,27.8281 C321.9056,27.9531 322.1087,28 322.515,28 L327.6556,28 C328.4056,28 328.765,27.7188 328.765,27.1563 C328.765,26.875 328.6556,26.625 328.4212,26.4531 C328.2493,26.3281 328.1087,26.2969 327.6556,26.2969 L325.9368,26.2969 L325.9368,19.7813 Z " fill="#000000"/><text fill="#000000" font-family="sans-serif" font-size="14" font-style="italic" lengthAdjust="spacing" textLength="74" x="341.6837" y="27.8467">Command</text><line style="stroke:#181818;stroke-width:0.5;" x1="298.8337" x2="429.8337" y1="39" y2="39"/><ellipse cx="308.8337" cy="52.6484" fill="none" rx="3" ry="3" style="stroke:#038048;stroke-width:1.0;"/><text fill="#000000" font-family="sans-serif" font-size="14" lengthAdjust="spacing" textLength="103" x="317.8337" y="55.9951">calque: Calque</text><ellipse cx="308.8337" cy="68.9453" fill="none" rx="3" ry="3" style="stroke:#038048;stroke-width:1.0;"/><text fill="#000000" font-family="sans-serif" font-size="14" lengthAdjust="spacing" textLength="67" x="317.8337" y="72.292">app: App</text><ellipse cx="308.8337" cy="85.2422" fill="none" rx="3" ry="3" style="stroke:#038048;stroke-width:1.0;"/><text fill="#000000" font-family="sans-serif" font-size="14" lengthAdjust="spacing" textLength="80" x="317.8337" y="88.5889">uuid: string</text><line style="stroke:#181818;stroke-width:0.5;" x1="298.8337" x2="429.8337" y1="95.8906" y2="95.8906"/><ellipse cx="308.8337" cy="109.5391" fill="#84BE84" rx="3" ry="3" style="stroke:#038048;stroke-width:1.0;"/><text fill="#000000" font-family="sans-serif" font-size="14" lengthAdjust="spacing" textLength="107" x="317.8337" y="112.8857">execute(): void</text><ellipse cx="308.8337" cy="125.8359" fill="#84BE84" rx="3" ry="3" style="stroke:#038048;stroke-width:1.0;"/><text fill="#000000" font-family="sans-serif" font-size="14" lengthAdjust="spacing" textLength="84" x="317.8337" y="129.1826">undo(): void</text></g><!--MD5=[426e75666daf533f17226ff4c87e20fd]
class Shape--><g id="elem_Shape"><rect codeLine="8" fill="#F1F1F1" height="80.5938" id="Shape" rx="2.5" ry="2.5" style="stroke:#181818;stroke-width:0.5;" width="135" x="151.8338" y="749"/><ellipse cx="192.9338" cy="765" fill="#B4A7E5" rx="11" ry="11" style="stroke:#181818;stroke-width:1.0;"/><path d="M193.8869,761.7813 L195.6057,761.7813 C195.9963,761.7813 196.1838,761.75 196.3088,761.6719 C196.5744,761.5156 196.7151,761.2344 196.7151,760.9375 C196.7151,760.6719 196.6057,760.4063 196.3713,760.2344 C196.1994,760.125 196.0588,760.0938 195.6057,760.0938 L190.4651,760.0938 C190.0276,760.0938 189.9026,760.1094 189.7463,760.2031 C189.4963,760.3594 189.3401,760.6563 189.3401,760.9375 C189.3401,761.2188 189.4807,761.4688 189.6994,761.6406 C189.8557,761.75 190.0432,761.7813 190.4651,761.7813 L192.1838,761.7813 L192.1838,768.2969 L190.4651,768.2969 C190.0276,768.2969 189.9026,768.3125 189.7463,768.4219 C189.4963,768.5781 189.3401,768.8594 189.3401,769.1563 C189.3401,769.4063 189.4807,769.6719 189.6994,769.8281 C189.8557,769.9531 190.0588,770 190.4651,770 L195.6057,770 C196.3557,770 196.7151,769.7188 196.7151,769.1563 C196.7151,768.875 196.6057,768.625 196.3713,768.4531 C196.1994,768.3281 196.0588,768.2969 195.6057,768.2969 L193.8869,768.2969 L193.8869,761.7813 Z " fill="#000000"/><text fill="#000000" font-family="sans-serif" font-size="14" font-style="italic" lengthAdjust="spacing" textLength="45" x="212.7338" y="769.8467">Shape</text><line style="stroke:#181818;stroke-width:0.5;" x1="152.8338" x2="285.8338" y1="781" y2="781"/><ellipse cx="162.8338" cy="794.6484" fill="none" rx="3" ry="3" style="stroke:#038048;stroke-width:1.0;"/><text fill="#000000" font-family="sans-serif" font-size="14" lengthAdjust="spacing" textLength="80" x="171.8338" y="797.9951">uuid: string</text><ellipse cx="162.8338" cy="810.9453" fill="none" rx="3" ry="3" style="stroke:#038048;stroke-width:1.0;"/><text fill="#000000" font-family="sans-serif" font-size="14" lengthAdjust="spacing" textLength="109" x="171.8338" y="814.292">content: string</text><line style="stroke:#181818;stroke-width:0.5;" x1="152.8338" x2="285.8338" y1="821.5938" y2="821.5938"/></g><!--MD5=[fff8cb1a43a69865efc7bb32ddcaa39a]
class DrawRetangle--><g id="elem_DrawRetangle"><rect codeLine="12" fill="#F1F1F1" height="194.6719" id="DrawRetangle" rx="2.5" ry="2.5" style="stroke:#181818;stroke-width:0.5;" width="138" x="124.3338" y="196"/><ellipse cx="141.5838" cy="212" fill="#ADD1B2" rx="11" ry="11" style="stroke:#181818;stroke-width:1.0;"/><path d="M143.9276,207.6719 C142.9901,207.2344 142.3963,207.0938 141.5213,207.0938 C138.8963,207.0938 136.8963,209.1719 136.8963,211.8906 L136.8963,213.0156 C136.8963,215.5938 139.0057,217.4844 141.8963,217.4844 C143.1151,217.4844 144.2713,217.1875 145.0213,216.6406 C145.5994,216.2344 145.9276,215.7813 145.9276,215.3906 C145.9276,214.9375 145.5369,214.5469 145.0682,214.5469 C144.8494,214.5469 144.6463,214.625 144.4588,214.8125 C144.0057,215.2969 144.0057,215.2969 143.8182,215.3906 C143.3963,215.6563 142.7088,215.7813 141.9432,215.7813 C139.8963,215.7813 138.5994,214.6875 138.5994,212.9844 L138.5994,211.8906 C138.5994,210.1094 139.8494,208.7969 141.5838,208.7969 C142.1619,208.7969 142.7713,208.9531 143.2401,209.2031 C143.7244,209.4844 143.8963,209.7031 143.9901,210.1094 C144.0526,210.5156 144.0838,210.6406 144.2244,210.7656 C144.3651,210.9063 144.5994,211.0156 144.8182,211.0156 C145.0838,211.0156 145.3494,210.875 145.5213,210.6563 C145.6307,210.5 145.6619,210.3125 145.6619,209.8906 L145.6619,208.4688 C145.6619,208.0313 145.6463,207.9063 145.5526,207.75 C145.3963,207.4844 145.1151,207.3438 144.8182,207.3438 C144.5213,207.3438 144.3182,207.4375 144.0994,207.75 L143.9276,207.6719 Z " fill="#000000"/><text fill="#000000" font-family="sans-serif" font-size="14" lengthAdjust="spacing" textLength="101" x="156.0838" y="216.8467">DrawRetangle</text><line style="stroke:#181818;stroke-width:0.5;" x1="125.3338" x2="261.3338" y1="228" y2="228"/><ellipse cx="135.3338" cy="241.6484" fill="none" rx="3" ry="3" style="stroke:#038048;stroke-width:1.0;"/><text fill="#000000" font-family="sans-serif" font-size="14" lengthAdjust="spacing" textLength="80" x="144.3338" y="244.9951">uuid: string</text><ellipse cx="135.3338" cy="257.9453" fill="none" rx="3" ry="3" style="stroke:#038048;stroke-width:1.0;"/><text fill="#000000" font-family="sans-serif" font-size="14" lengthAdjust="spacing" textLength="103" x="144.3338" y="261.292">calque: Calque</text><ellipse cx="135.3338" cy="274.2422" fill="none" rx="3" ry="3" style="stroke:#038048;stroke-width:1.0;"/><text fill="#000000" font-family="sans-serif" font-size="14" lengthAdjust="spacing" textLength="67" x="144.3338" y="277.5889">app: App</text><ellipse cx="135.3338" cy="290.5391" fill="none" rx="3" ry="3" style="stroke:#038048;stroke-width:1.0;"/><text fill="#000000" font-family="sans-serif" font-size="14" lengthAdjust="spacing" textLength="73" x="144.3338" y="293.8857">x: number</text><ellipse cx="135.3338" cy="306.8359" fill="none" rx="3" ry="3" style="stroke:#038048;stroke-width:1.0;"/><text fill="#000000" font-family="sans-serif" font-size="14" lengthAdjust="spacing" textLength="73" x="144.3338" y="310.1826">y: number</text><ellipse cx="135.3338" cy="323.1328" fill="none" rx="3" ry="3" style="stroke:#038048;stroke-width:1.0;"/><text fill="#000000" font-family="sans-serif" font-size="14" lengthAdjust="spacing" textLength="105" x="144.3338" y="326.4795">width: number</text><ellipse cx="135.3338" cy="339.4297" fill="none" rx="3" ry="3" style="stroke:#038048;stroke-width:1.0;"/><text fill="#000000" font-family="sans-serif" font-size="14" lengthAdjust="spacing" textLength="112" x="144.3338" y="342.7764">height: number</text><line style="stroke:#181818;stroke-width:0.5;" x1="125.3338" x2="261.3338" y1="350.0781" y2="350.0781"/><ellipse cx="135.3338" cy="363.7266" fill="#84BE84" rx="3" ry="3" style="stroke:#038048;stroke-width:1.0;"/><text fill="#000000" font-family="sans-serif" font-size="14" lengthAdjust="spacing" textLength="107" x="144.3338" y="367.0732">execute(): void</text><ellipse cx="135.3338" cy="380.0234" fill="#84BE84" rx="3" ry="3" style="stroke:#038048;stroke-width:1.0;"/><text fill="#000000" font-family="sans-serif" font-size="14" lengthAdjust="spacing" textLength="84" x="144.3338" y="383.3701">undo(): void</text></g><!--MD5=[a3ac98566f73c682f3838cbb9e7bc9ca]
class DrawCircle--><g id="elem_DrawCircle"><rect codeLine="23" fill="#F1F1F1" height="178.375" id="DrawCircle" rx="2.5" ry="2.5" style="stroke:#181818;stroke-width:0.5;" width="133" x="297.8337" y="204.5"/><ellipse cx="323.6337" cy="220.5" fill="#ADD1B2" rx="11" ry="11" style="stroke:#181818;stroke-width:1.0;"/><path d="M325.9775,216.1719 C325.04,215.7344 324.4462,215.5938 323.5712,215.5938 C320.9462,215.5938 318.9462,217.6719 318.9462,220.3906 L318.9462,221.5156 C318.9462,224.0938 321.0556,225.9844 323.9462,225.9844 C325.165,225.9844 326.3212,225.6875 327.0712,225.1406 C327.6493,224.7344 327.9775,224.2813 327.9775,223.8906 C327.9775,223.4375 327.5868,223.0469 327.1181,223.0469 C326.8993,223.0469 326.6962,223.125 326.5087,223.3125 C326.0556,223.7969 326.0556,223.7969 325.8681,223.8906 C325.4462,224.1563 324.7587,224.2813 323.9931,224.2813 C321.9462,224.2813 320.6493,223.1875 320.6493,221.4844 L320.6493,220.3906 C320.6493,218.6094 321.8993,217.2969 323.6337,217.2969 C324.2118,217.2969 324.8212,217.4531 325.29,217.7031 C325.7743,217.9844 325.9462,218.2031 326.04,218.6094 C326.1025,219.0156 326.1337,219.1406 326.2743,219.2656 C326.415,219.4063 326.6493,219.5156 326.8681,219.5156 C327.1337,219.5156 327.3993,219.375 327.5712,219.1563 C327.6806,219 327.7118,218.8125 327.7118,218.3906 L327.7118,216.9688 C327.7118,216.5313 327.6962,216.4063 327.6025,216.25 C327.4462,215.9844 327.165,215.8438 326.8681,215.8438 C326.5712,215.8438 326.3681,215.9375 326.1493,216.25 L325.9775,216.1719 Z " fill="#000000"/><text fill="#000000" font-family="sans-serif" font-size="14" lengthAdjust="spacing" textLength="77" x="340.0337" y="225.3467">DrawCircle</text><line style="stroke:#181818;stroke-width:0.5;" x1="298.8337" x2="429.8337" y1="236.5" y2="236.5"/><ellipse cx="308.8337" cy="250.1484" fill="none" rx="3" ry="3" style="stroke:#038048;stroke-width:1.0;"/><text fill="#000000" font-family="sans-serif" font-size="14" lengthAdjust="spacing" textLength="80" x="317.8337" y="253.4951">uuid: string</text><ellipse cx="308.8337" cy="266.4453" fill="none" rx="3" ry="3" style="stroke:#038048;stroke-width:1.0;"/><text fill="#000000" font-family="sans-serif" font-size="14" lengthAdjust="spacing" textLength="103" x="317.8337" y="269.792">calque: Calque</text><ellipse cx="308.8337" cy="282.7422" fill="none" rx="3" ry="3" style="stroke:#038048;stroke-width:1.0;"/><text fill="#000000" font-family="sans-serif" font-size="14" lengthAdjust="spacing" textLength="67" x="317.8337" y="286.0889">app: App</text><ellipse cx="308.8337" cy="299.0391" fill="none" rx="3" ry="3" style="stroke:#038048;stroke-width:1.0;"/><text fill="#000000" font-family="sans-serif" font-size="14" lengthAdjust="spacing" textLength="73" x="317.8337" y="302.3857">x: number</text><ellipse cx="308.8337" cy="315.3359" fill="none" rx="3" ry="3" style="stroke:#038048;stroke-width:1.0;"/><text fill="#000000" font-family="sans-serif" font-size="14" lengthAdjust="spacing" textLength="73" x="317.8337" y="318.6826">y: number</text><ellipse cx="308.8337" cy="331.6328" fill="none" rx="3" ry="3" style="stroke:#038048;stroke-width:1.0;"/><text fill="#000000" font-family="sans-serif" font-size="14" lengthAdjust="spacing" textLength="107" x="317.8337" y="334.9795">raidus: number</text><line style="stroke:#181818;stroke-width:0.5;" x1="298.8337" x2="429.8337" y1="342.2813" y2="342.2813"/><ellipse cx="308.8337" cy="355.9297" fill="#84BE84" rx="3" ry="3" style="stroke:#038048;stroke-width:1.0;"/><text fill="#000000" font-family="sans-serif" font-size="14" lengthAdjust="spacing" textLength="107" x="317.8337" y="359.2764">execute(): void</text><ellipse cx="308.8337" cy="372.2266" fill="#84BE84" rx="3" ry="3" style="stroke:#038048;stroke-width:1.0;"/><text fill="#000000" font-family="sans-serif" font-size="14" lengthAdjust="spacing" textLength="84" x="317.8337" y="375.5732">undo(): void</text></g><!--MD5=[fbb816525ad513dd8465b8819cee1228]
class DrawLine--><g id="elem_DrawLine"><rect codeLine="33" fill="#F1F1F1" height="194.6719" id="DrawLine" rx="2.5" ry="2.5" style="stroke:#181818;stroke-width:0.5;" width="133" x="571.8337" y="196"/><ellipse cx="602.5837" cy="212" fill="#ADD1B2" rx="11" ry="11" style="stroke:#181818;stroke-width:1.0;"/><path d="M604.9275,207.6719 C603.99,207.2344 603.3962,207.0938 602.5212,207.0938 C599.8962,207.0938 597.8962,209.1719 597.8962,211.8906 L597.8962,213.0156 C597.8962,215.5938 600.0056,217.4844 602.8962,217.4844 C604.115,217.4844 605.2712,217.1875 606.0212,216.6406 C606.5993,216.2344 606.9275,215.7813 606.9275,215.3906 C606.9275,214.9375 606.5368,214.5469 606.0681,214.5469 C605.8493,214.5469 605.6462,214.625 605.4587,214.8125 C605.0056,215.2969 605.0056,215.2969 604.8181,215.3906 C604.3962,215.6563 603.7087,215.7813 602.9431,215.7813 C600.8962,215.7813 599.5993,214.6875 599.5993,212.9844 L599.5993,211.8906 C599.5993,210.1094 600.8493,208.7969 602.5837,208.7969 C603.1618,208.7969 603.7712,208.9531 604.24,209.2031 C604.7243,209.4844 604.8962,209.7031 604.99,210.1094 C605.0525,210.5156 605.0837,210.6406 605.2243,210.7656 C605.365,210.9063 605.5993,211.0156 605.8181,211.0156 C606.0837,211.0156 606.3493,210.875 606.5212,210.6563 C606.6306,210.5 606.6618,210.3125 606.6618,209.8906 L606.6618,208.4688 C606.6618,208.0313 606.6462,207.9063 606.5525,207.75 C606.3962,207.4844 606.115,207.3438 605.8181,207.3438 C605.5212,207.3438 605.3181,207.4375 605.0993,207.75 L604.9275,207.6719 Z " fill="#000000"/><text fill="#000000" font-family="sans-serif" font-size="14" lengthAdjust="spacing" textLength="66" x="620.0837" y="216.8467">DrawLine</text><line style="stroke:#181818;stroke-width:0.5;" x1="572.8337" x2="703.8337" y1="228" y2="228"/><ellipse cx="582.8337" cy="241.6484" fill="none" rx="3" ry="3" style="stroke:#038048;stroke-width:1.0;"/><text fill="#000000" font-family="sans-serif" font-size="14" lengthAdjust="spacing" textLength="80" x="591.8337" y="244.9951">uuid: string</text><ellipse cx="582.8337" cy="257.9453" fill="none" rx="3" ry="3" style="stroke:#038048;stroke-width:1.0;"/><text fill="#000000" font-family="sans-serif" font-size="14" lengthAdjust="spacing" textLength="103" x="591.8337" y="261.292">calque: Calque</text><ellipse cx="582.8337" cy="274.2422" fill="none" rx="3" ry="3" style="stroke:#038048;stroke-width:1.0;"/><text fill="#000000" font-family="sans-serif" font-size="14" lengthAdjust="spacing" textLength="67" x="591.8337" y="277.5889">app: App</text><ellipse cx="582.8337" cy="290.5391" fill="none" rx="3" ry="3" style="stroke:#038048;stroke-width:1.0;"/><text fill="#000000" font-family="sans-serif" font-size="14" lengthAdjust="spacing" textLength="73" x="591.8337" y="293.8857">x: number</text><ellipse cx="582.8337" cy="306.8359" fill="none" rx="3" ry="3" style="stroke:#038048;stroke-width:1.0;"/><text fill="#000000" font-family="sans-serif" font-size="14" lengthAdjust="spacing" textLength="73" x="591.8337" y="310.1826">y: number</text><ellipse cx="582.8337" cy="323.1328" fill="none" rx="3" ry="3" style="stroke:#038048;stroke-width:1.0;"/><text fill="#000000" font-family="sans-serif" font-size="14" lengthAdjust="spacing" textLength="81" x="591.8337" y="326.4795">x2: number</text><ellipse cx="582.8337" cy="339.4297" fill="none" rx="3" ry="3" style="stroke:#038048;stroke-width:1.0;"/><text fill="#000000" font-family="sans-serif" font-size="14" lengthAdjust="spacing" textLength="81" x="591.8337" y="342.7764">y2: number</text><line style="stroke:#181818;stroke-width:0.5;" x1="572.8337" x2="703.8337" y1="350.0781" y2="350.0781"/><ellipse cx="582.8337" cy="363.7266" fill="#84BE84" rx="3" ry="3" style="stroke:#038048;stroke-width:1.0;"/><text fill="#000000" font-family="sans-serif" font-size="14" lengthAdjust="spacing" textLength="107" x="591.8337" y="367.0732">execute(): void</text><ellipse cx="582.8337" cy="380.0234" fill="#84BE84" rx="3" ry="3" style="stroke:#038048;stroke-width:1.0;"/><text fill="#000000" font-family="sans-serif" font-size="14" lengthAdjust="spacing" textLength="84" x="591.8337" y="383.3701">undo(): void</text></g><!--MD5=[6e35b0a10cdae74ff2bfdfa4d1a76f5e]
class Calque--><g id="elem_Calque"><rect codeLine="44" fill="#F1F1F1" height="80.5938" id="Calque" rx="2.5" ry="2.5" style="stroke:#181818;stroke-width:0.5;" width="196" x="121.3338" y="608"/><ellipse cx="191.0838" cy="624" fill="#ADD1B2" rx="11" ry="11" style="stroke:#181818;stroke-width:1.0;"/><path d="M193.4276,619.6719 C192.4901,619.2344 191.8963,619.0938 191.0213,619.0938 C188.3963,619.0938 186.3963,621.1719 186.3963,623.8906 L186.3963,625.0156 C186.3963,627.5938 188.5057,629.4844 191.3963,629.4844 C192.6151,629.4844 193.7713,629.1875 194.5213,628.6406 C195.0994,628.2344 195.4276,627.7813 195.4276,627.3906 C195.4276,626.9375 195.0369,626.5469 194.5682,626.5469 C194.3494,626.5469 194.1463,626.625 193.9588,626.8125 C193.5057,627.2969 193.5057,627.2969 193.3182,627.3906 C192.8963,627.6563 192.2088,627.7813 191.4432,627.7813 C189.3963,627.7813 188.0994,626.6875 188.0994,624.9844 L188.0994,623.8906 C188.0994,622.1094 189.3494,620.7969 191.0838,620.7969 C191.6619,620.7969 192.2713,620.9531 192.7401,621.2031 C193.2244,621.4844 193.3963,621.7031 193.4901,622.1094 C193.5526,622.5156 193.5838,622.6406 193.7244,622.7656 C193.8651,622.9063 194.0994,623.0156 194.3182,623.0156 C194.5838,623.0156 194.8494,622.875 195.0213,622.6563 C195.1307,622.5 195.1619,622.3125 195.1619,621.8906 L195.1619,620.4688 C195.1619,620.0313 195.1463,619.9063 195.0526,619.75 C194.8963,619.4844 194.6151,619.3438 194.3182,619.3438 C194.0213,619.3438 193.8182,619.4375 193.5994,619.75 L193.4276,619.6719 Z " fill="#000000"/><text fill="#000000" font-family="sans-serif" font-size="14" lengthAdjust="spacing" textLength="48" x="211.5838" y="628.8467">Calque</text><line style="stroke:#181818;stroke-width:0.5;" x1="122.3338" x2="316.3338" y1="640" y2="640"/><ellipse cx="132.3338" cy="653.6484" fill="none" rx="3" ry="3" style="stroke:#038048;stroke-width:1.0;"/><text fill="#000000" font-family="sans-serif" font-size="14" lengthAdjust="spacing" textLength="170" x="141.3338" y="656.9951">commands: Command[]</text><ellipse cx="132.3338" cy="669.9453" fill="none" rx="3" ry="3" style="stroke:#038048;stroke-width:1.0;"/><text fill="#000000" font-family="sans-serif" font-size="14" lengthAdjust="spacing" textLength="122" x="141.3338" y="673.292">content: Shape[]</text><line style="stroke:#181818;stroke-width:0.5;" x1="122.3338" x2="316.3338" y1="680.5938" y2="680.5938"/></g><!--MD5=[335f4d9be48430461c68bf6d6fdba145]
class App--><g id="elem_App"><rect codeLine="48" fill="#F1F1F1" height="96.8906" id="App" rx="2.5" ry="2.5" style="stroke:#181818;stroke-width:0.5;" width="286" x="308.3337" y="451"/><ellipse cx="432.0837" cy="467" fill="#ADD1B2" rx="11" ry="11" style="stroke:#181818;stroke-width:1.0;"/><path d="M434.4275,462.6719 C433.49,462.2344 432.8962,462.0938 432.0212,462.0938 C429.3962,462.0938 427.3962,464.1719 427.3962,466.8906 L427.3962,468.0156 C427.3962,470.5938 429.5056,472.4844 432.3962,472.4844 C433.615,472.4844 434.7712,472.1875 435.5212,471.6406 C436.0993,471.2344 436.4275,470.7813 436.4275,470.3906 C436.4275,469.9375 436.0368,469.5469 435.5681,469.5469 C435.3493,469.5469 435.1462,469.625 434.9587,469.8125 C434.5056,470.2969 434.5056,470.2969 434.3181,470.3906 C433.8962,470.6563 433.2087,470.7813 432.4431,470.7813 C430.3962,470.7813 429.0993,469.6875 429.0993,467.9844 L429.0993,466.8906 C429.0993,465.1094 430.3493,463.7969 432.0837,463.7969 C432.6618,463.7969 433.2712,463.9531 433.74,464.2031 C434.2243,464.4844 434.3962,464.7031 434.49,465.1094 C434.5525,465.5156 434.5837,465.6406 434.7243,465.7656 C434.865,465.9063 435.0993,466.0156 435.3181,466.0156 C435.5837,466.0156 435.8493,465.875 436.0212,465.6563 C436.1306,465.5 436.1618,465.3125 436.1618,464.8906 L436.1618,463.4688 C436.1618,463.0313 436.1462,462.9063 436.0525,462.75 C435.8962,462.4844 435.615,462.3438 435.3181,462.3438 C435.0212,462.3438 434.8181,462.4375 434.5993,462.75 L434.4275,462.6719 Z " fill="#000000"/><text fill="#000000" font-family="sans-serif" font-size="14" lengthAdjust="spacing" textLength="30" x="452.5837" y="471.8467">App</text><line style="stroke:#181818;stroke-width:0.5;" x1="309.3337" x2="593.3337" y1="483" y2="483"/><ellipse cx="319.3337" cy="496.6484" fill="none" rx="3" ry="3" style="stroke:#038048;stroke-width:1.0;"/><text fill="#000000" font-family="sans-serif" font-size="14" lengthAdjust="spacing" textLength="103" x="328.3337" y="499.9951">calque: Calque</text><line style="stroke:#181818;stroke-width:0.5;" x1="309.3337" x2="593.3337" y1="507.2969" y2="507.2969"/><ellipse cx="319.3337" cy="520.9453" fill="#84BE84" rx="3" ry="3" style="stroke:#038048;stroke-width:1.0;"/><text fill="#000000" font-family="sans-serif" font-size="14" lengthAdjust="spacing" textLength="260" x="328.3337" y="524.292">execute(command: Command): void</text><ellipse cx="319.3337" cy="537.2422" fill="#84BE84" rx="3" ry="3" style="stroke:#038048;stroke-width:1.0;"/><text fill="#000000" font-family="sans-serif" font-size="14" lengthAdjust="spacing" textLength="84" x="328.3337" y="540.5889">undo(): void</text></g><!--MD5=[de7d1aa2f561485702a47474cf2a1b2d]
reverse link Command to DrawRetangle--><g id="link_Command_DrawRetangle"><path d="M302.4397,152.13 C289.4367,168.859 275.6437,186.605 262.3967,203.647 " fill="none" id="Command-backto-DrawRetangle" style="stroke:#181818;stroke-width:1.0;stroke-dasharray:7.0,7.0;"/><polygon fill="none" points="297.0727,147.628,314.8737,136.133,308.1267,156.22,297.0727,147.628" style="stroke:#181818;stroke-width:1.0;"/></g><!--MD5=[3c2b14a6c3067410c609c39bedf2e686]
reverse link Command to DrawCircle--><g id="link_Command_DrawCircle"><path d="M364.3337,156.295 C364.3337,172.055 364.3337,188.578 364.3337,204.463 " fill="none" id="Command-backto-DrawCircle" style="stroke:#181818;stroke-width:1.0;stroke-dasharray:7.0,7.0;"/><polygon fill="none" points="357.3337,156.133,364.3337,136.133,371.3337,156.133,357.3337,156.133" style="stroke:#181818;stroke-width:1.0;"/></g><!--MD5=[982bf52ac222bc28eeee38f7c52baa10]
reverse link Command to DrawLine--><g id="link_Command_DrawLine"><path d="M448.0457,124.948 C479.2627,145.778 514.3717,170.767 544.3337,196 C553.4577,203.684 562.6767,212.136 571.5907,220.745 " fill="none" id="Command-backto-DrawLine" style="stroke:#181818;stroke-width:1.0;stroke-dasharray:7.0,7.0;"/><polygon fill="none" points="444.0147,130.675,431.1607,113.829,451.7137,118.983,444.0147,130.675" style="stroke:#181818;stroke-width:1.0;"/></g><!--MD5=[aa0029583f8522c1dadef3e8aab49168]
link Command to Calque--><g id="link_Command_Calque"><path codeLine="53" d="M297.6987,81.166 C231.3067,94.192 133.8688,125.308 89.3338,196 C6,328.28 113.1815,518.515 177.8387,603.54 " fill="none" id="Command-to-Calque" style="stroke:#181818;stroke-width:1.0;"/><polygon fill="#181818" points="181.0757,607.755,178.7683,598.1802,178.0311,603.7889,172.4225,603.0516,181.0757,607.755" style="stroke:#181818;stroke-width:1.0;"/><text fill="#000000" font-family="sans-serif" font-size="13" lengthAdjust="spacing" textLength="8" x="166.0767" y="596.876">1</text></g><!--MD5=[34a484549d3d1569cc13394ad0fc33d7]
link Calque to Command--><g id="link_Calque_Command"><path codeLine="61" d="M200.1877,607.755 C151.8546,524.955 39.5932,330.513 124.3338,196 C161.6547,136.759 236.1267,105.311 292.4987,89.012 " fill="none" id="Calque-to-Command" style="stroke:#181818;stroke-width:1.0;"/><polygon fill="#181818" points="297.5527,87.577,287.8024,86.1873,292.7428,88.9427,289.9875,93.8831,297.5527,87.577" style="stroke:#181818;stroke-width:1.0;"/><text fill="#000000" font-family="sans-serif" font-size="13" lengthAdjust="spacing" textLength="7" x="282.8657" y="85.5628">*</text></g><!--MD5=[203f2267a0fd9fb391d43c3995febe16]
link Command to App--><g id="link_Command_App"><path codeLine="54" d="M401.5037,136.042 C413.2707,154.286 424.7447,174.967 431.3337,196 C457.7167,280.211 450.7587,384.195 447.6677,445.717 " fill="none" id="Command-to-App" style="stroke:#181818;stroke-width:1.0;"/><polygon fill="#181818" points="447.4177,450.804,451.8551,442.0114,447.6634,445.81,443.8648,441.6183,447.4177,450.804" style="stroke:#181818;stroke-width:1.0;"/><text fill="#000000" font-family="sans-serif" font-size="13" lengthAdjust="spacing" textLength="8" x="438.3045" y="439.9854">1</text></g><!--MD5=[65fdfe0a1f98fd3c4cccde6e67689941]
link App to Command--><g id="link_App_Command"><path codeLine="64" d="M471.6627,450.804 C485.3407,390.057 493.4577,282.579 466.3337,196 C459.5587,174.376 447.6207,153.123 434.1177,134.509 " fill="none" id="App-to-Command" style="stroke:#181818;stroke-width:1.0;"/><polygon fill="#181818" points="431.0297,130.331,433.1633,139.946,434.002,134.3516,439.5963,135.1903,431.0297,130.331" style="stroke:#181818;stroke-width:1.0;"/><text fill="#000000" font-family="sans-serif" font-size="13" lengthAdjust="spacing" textLength="8" x="438.7621" y="132.993">1</text></g><!--MD5=[4384efc2c347a818c0fd6f9dd4de6d1e]
link DrawRetangle to Calque--><g id="link_DrawRetangle_Calque"><path codeLine="55" d="M200.4727,391.426 C205.5557,460.432 212.1497,549.964 216.0437,602.824 " fill="none" id="DrawRetangle-to-Calque" style="stroke:#181818;stroke-width:1.0;"/><polygon fill="#181818" points="216.4117,607.823,219.7401,598.5536,216.0446,602.8365,211.7617,599.141,216.4117,607.823" style="stroke:#181818;stroke-width:1.0;"/><text fill="#000000" font-family="sans-serif" font-size="13" lengthAdjust="spacing" textLength="8" x="207.2652" y="596.9552">1</text></g><!--MD5=[405481287e64aa3bace3657a8a2d48bf]
link DrawRetangle to App--><g id="link_DrawRetangle_App"><path codeLine="56" d="M262.3897,374.722 C268.2747,380.423 274.2917,385.919 280.3337,391 C305.0457,411.78 334.1017,431.518 361.1807,448.276 " fill="none" id="DrawRetangle-to-App" style="stroke:#181818;stroke-width:1.0;"/><polygon fill="#181818" points="365.5087,450.94,359.9393,442.8171,361.2501,448.32,355.7472,449.6309,365.5087,450.94" style="stroke:#181818;stroke-width:1.0;"/><text fill="#000000" font-family="sans-serif" font-size="13" lengthAdjust="spacing" textLength="8" x="344.3157" y="439.7909">1</text></g><!--MD5=[ef56d17fdbec46fb69737a6f4510d8d1]
link DrawCircle to Calque--><g id="link_DrawCircle_Calque"><path codeLine="57" d="M320.7847,382.813 C310.3917,404.897 299.6257,428.662 290.3337,451 C268.9137,502.493 247.6127,563.012 234.0147,603.142 " fill="none" id="DrawCircle-to-Calque" style="stroke:#181818;stroke-width:1.0;"/><polygon fill="#181818" points="232.3947,607.933,239.067,600.6886,233.9964,603.1965,231.4885,598.1259,232.3947,607.933" style="stroke:#181818;stroke-width:1.0;"/><text fill="#000000" font-family="sans-serif" font-size="13" lengthAdjust="spacing" textLength="8" x="225.8954" y="597.0834">1</text></g><!--MD5=[b98184192b8c36eb59e9420406562f11]
link DrawCircle to App--><g id="link_DrawCircle_App"><path codeLine="58" d="M401.9877,382.791 C411.1737,404.332 420.7157,426.705 428.9317,445.97 " fill="none" id="DrawCircle-to-App" style="stroke:#181818;stroke-width:1.0;"/><polygon fill="#181818" points="430.9907,450.799,431.139,440.9513,429.029,446.1999,423.7804,444.0899,430.9907,450.799" style="stroke:#181818;stroke-width:1.0;"/><text fill="#000000" font-family="sans-serif" font-size="13" lengthAdjust="spacing" textLength="8" x="419.5675" y="439.9797">1</text></g><!--MD5=[cabe422bfd148d0924c5f8fc308e9071]
link DrawLine to Calque--><g id="link_DrawLine_Calque"><path codeLine="59" d="M652.7617,391.31 C654.9997,443.546 647.9327,505.777 611.3337,548 C573.9097,591.175 425.6317,619.669 322.5777,634.698 " fill="none" id="DrawLine-to-Calque" style="stroke:#181818;stroke-width:1.0;"/><polygon fill="#181818" points="317.3977,635.448,326.8783,638.1159,322.346,634.7309,325.731,630.1986,317.3977,635.448" style="stroke:#181818;stroke-width:1.0;"/><text fill="#000000" font-family="sans-serif" font-size="13" lengthAdjust="spacing" textLength="8" x="325.212" y="630.962">1</text></g><!--MD5=[54bd2e17ba8554472434ba74fdd24367]
link DrawLine to App--><g id="link_DrawLine_App"><path codeLine="60" d="M571.6147,367.285 C547.4207,393.678 520.6137,422.922 498.4587,447.091 " fill="none" id="DrawLine-to-App" style="stroke:#181818;stroke-width:1.0;"/><polygon fill="#181818" points="494.9447,450.925,503.9748,446.9935,498.3233,447.2392,498.0776,441.5877,494.9447,450.925" style="stroke:#181818;stroke-width:1.0;"/><text fill="#000000" font-family="sans-serif" font-size="13" lengthAdjust="spacing" textLength="8" x="492.7626" y="439.7737">1</text></g><!--MD5=[e186f37699c88aa07bd47416b38f73b6]
link Calque to Shape--><g id="link_Calque_Shape"><path codeLine="62" d="M219.3337,689.332 C219.3337,706.199 219.3337,725.936 219.3337,743.3412 " fill="none" id="Calque-to-Shape" style="stroke:#181818;stroke-width:1.0;"/><polygon fill="#181818" points="219.3337,748.6624,223.3337,739.6624,219.3337,743.6624,215.3337,739.6624,219.3337,748.6624" style="stroke:#181818;stroke-width:1.0;"/><text fill="#000000" font-family="sans-serif" font-size="13" lengthAdjust="spacing" textLength="7" x="211.7759" y="738.0684">*</text></g><!--MD5=[2b438ae17762ee7e050083c69033854c]
link App to Calque--><g id="link_App_Calque"><path codeLine="63" d="M376.3307,548.024 C347.4277,566.337 314.6277,587.12 286.5097,604.936 " fill="none" id="App-to-Calque" style="stroke:#181818;stroke-width:1.0;"/><polygon fill="#181818" points="282.0387,607.769,291.7822,606.3323,286.2626,605.0935,287.5014,599.5739,282.0387,607.769" style="stroke:#181818;stroke-width:1.0;"/><text fill="#000000" font-family="sans-serif" font-size="13" lengthAdjust="spacing" textLength="8" x="283.7617" y="596.8923">1</text></g><!--MD5=[0bb31ceae9d8e81b7dfa3076c068d5b4]
@startuml
interface Command {
    +calque: Calque
    +app: App
    +uuid: string
    +execute(): void
    +undo(): void
}
interface Shape {
    +uuid: string
    +content: string
}
class DrawRetangle implements Command {
    +uuid: string
    +calque: Calque
    +app: App
    +x: number
    +y: number
    +width: number
    +height: number
    +execute(): void
    +undo(): void
}
class DrawCircle implements Command {
    +uuid: string
    +calque: Calque
    +app: App
    +x: number
    +y: number
    +raidus: number
    +execute(): void
    +undo(): void
}
class DrawLine implements Command {
    +uuid: string
    +calque: Calque
    +app: App
    +x: number
    +y: number
    +x2: number
    +y2: number
    +execute(): void
    +undo(): void
}
class Calque {
    +commands: Command[]
    +content: Shape[]
}
class App {
    +calque: Calque
    +execute(command: Command): void
    +undo(): void
}
Command - -> "1" Calque
Command - -> "1" App
DrawRetangle - -> "1" Calque
DrawRetangle - -> "1" App
DrawCircle - -> "1" Calque
DrawCircle - -> "1" App
DrawLine - -> "1" Calque
DrawLine - -> "1" App
Calque - -> "*" Command
Calque - -> "*" Shape
App - -> "1" Calque
App - -> "1" Command
@enduml

PlantUML version 1.2022.14beta1(Unknown compile time)
(GPL source distribution)
Java Runtime: Java(TM) SE Runtime Environment
JVM: Java HotSpot(TM) 64-Bit Server VM
Default Encoding: UTF-8
Language: en
Country: US
--></g></svg>