<?xml version="1.0" encoding="UTF-8" standalone="no"?><svg xmlns="http://www.w3.org/2000/svg" xmlns:xlink="http://www.w3.org/1999/xlink" contentStyleType="text/css" height="342px" preserveAspectRatio="none" style="width:639px;height:342px;background:#FFFFFF;" version="1.1" viewBox="0 0 639 342" width="639px" zoomAndPan="magnify"><defs/><g><!--MD5=[e3c150388b2fc80a3319ba2ae8add64a]
class ISushi--><g id="elem_ISushi"><rect codeLine="1" fill="#F1F1F1" height="64.2969" id="ISushi" rx="2.5" ry="2.5" style="stroke:#181818;stroke-width:0.5;" width="111" x="184" y="7"/><ellipse cx="215.65" cy="23" fill="#B4A7E5" rx="11" ry="11" style="stroke:#181818;stroke-width:1.0;"/><path d="M216.6031,19.7813 L218.3219,19.7813 C218.7125,19.7813 218.9,19.75 219.025,19.6719 C219.2906,19.5156 219.4313,19.2344 219.4313,18.9375 C219.4313,18.6719 219.3219,18.4063 219.0875,18.2344 C218.9156,18.125 218.775,18.0938 218.3219,18.0938 L213.1813,18.0938 C212.7438,18.0938 212.6188,18.1094 212.4625,18.2031 C212.2125,18.3594 212.0563,18.6563 212.0563,18.9375 C212.0563,19.2188 212.1969,19.4688 212.4156,19.6406 C212.5719,19.75 212.7594,19.7813 213.1813,19.7813 L214.9,19.7813 L214.9,26.2969 L213.1813,26.2969 C212.7438,26.2969 212.6188,26.3125 212.4625,26.4219 C212.2125,26.5781 212.0563,26.8594 212.0563,27.1563 C212.0563,27.4063 212.1969,27.6719 212.4156,27.8281 C212.5719,27.9531 212.775,28 213.1813,28 L218.3219,28 C219.0719,28 219.4313,27.7188 219.4313,27.1563 C219.4313,26.875 219.3219,26.625 219.0875,26.4531 C218.9156,26.3281 218.775,26.2969 218.3219,26.2969 L216.6031,26.2969 L216.6031,19.7813 Z " fill="#000000"/><text fill="#000000" font-family="sans-serif" font-size="14" font-style="italic" lengthAdjust="spacing" textLength="42" x="233.35" y="27.8467">ISushi</text><line style="stroke:#181818;stroke-width:0.5;" x1="185" x2="294" y1="39" y2="39"/><line style="stroke:#181818;stroke-width:0.5;" x1="185" x2="294" y1="47" y2="47"/><ellipse cx="195" cy="60.6484" fill="#84BE84" rx="3" ry="3" style="stroke:#038048;stroke-width:1.0;"/><text fill="#000000" font-family="sans-serif" font-size="14" lengthAdjust="spacing" textLength="85" x="204" y="63.9951">eat(): string</text></g><!--MD5=[ac7a83b54aadb479ca6ffe7a3bd60f47]
class Sushi--><g id="elem_Sushi"><rect codeLine="4" fill="#F1F1F1" height="64.2969" id="Sushi" rx="2.5" ry="2.5" style="stroke:#181818;stroke-width:0.5;" width="111" x="103" y="131"/><ellipse cx="136.9" cy="147" fill="#ADD1B2" rx="11" ry="11" style="stroke:#181818;stroke-width:1.0;"/><path d="M139.2438,142.6719 C138.3063,142.2344 137.7125,142.0938 136.8375,142.0938 C134.2125,142.0938 132.2125,144.1719 132.2125,146.8906 L132.2125,148.0156 C132.2125,150.5938 134.3219,152.4844 137.2125,152.4844 C138.4313,152.4844 139.5875,152.1875 140.3375,151.6406 C140.9156,151.2344 141.2438,150.7813 141.2438,150.3906 C141.2438,149.9375 140.8531,149.5469 140.3844,149.5469 C140.1656,149.5469 139.9625,149.625 139.775,149.8125 C139.3219,150.2969 139.3219,150.2969 139.1344,150.3906 C138.7125,150.6563 138.025,150.7813 137.2594,150.7813 C135.2125,150.7813 133.9156,149.6875 133.9156,147.9844 L133.9156,146.8906 C133.9156,145.1094 135.1656,143.7969 136.9,143.7969 C137.4781,143.7969 138.0875,143.9531 138.5563,144.2031 C139.0406,144.4844 139.2125,144.7031 139.3063,145.1094 C139.3688,145.5156 139.4,145.6406 139.5406,145.7656 C139.6813,145.9063 139.9156,146.0156 140.1344,146.0156 C140.4,146.0156 140.6656,145.875 140.8375,145.6563 C140.9469,145.5 140.9781,145.3125 140.9781,144.8906 L140.9781,143.4688 C140.9781,143.0313 140.9625,142.9063 140.8688,142.75 C140.7125,142.4844 140.4313,142.3438 140.1344,142.3438 C139.8375,142.3438 139.6344,142.4375 139.4156,142.75 L139.2438,142.6719 Z " fill="#000000"/><text fill="#000000" font-family="sans-serif" font-size="14" lengthAdjust="spacing" textLength="37" x="155.1" y="151.8467">Sushi</text><line style="stroke:#181818;stroke-width:0.5;" x1="104" x2="213" y1="163" y2="163"/><line style="stroke:#181818;stroke-width:0.5;" x1="104" x2="213" y1="171" y2="171"/><ellipse cx="114" cy="184.6484" fill="#84BE84" rx="3" ry="3" style="stroke:#038048;stroke-width:1.0;"/><text fill="#000000" font-family="sans-serif" font-size="14" lengthAdjust="spacing" textLength="85" x="123" y="187.9951">eat(): string</text></g><!--MD5=[0a14bd35e183e299d2857af4c0e744d1]
class SushiDecorator--><g id="elem_SushiDecorator"><rect codeLine="7" fill="#F1F1F1" height="64.2969" id="SushiDecorator" rx="2.5" ry="2.5" style="stroke:#181818;stroke-width:0.5;" width="142" x="249.5" y="131"/><ellipse cx="264.5" cy="147" fill="#B4A7E5" rx="11" ry="11" style="stroke:#181818;stroke-width:1.0;"/><path d="M265.4531,143.7813 L267.1719,143.7813 C267.5625,143.7813 267.75,143.75 267.875,143.6719 C268.1406,143.5156 268.2813,143.2344 268.2813,142.9375 C268.2813,142.6719 268.1719,142.4063 267.9375,142.2344 C267.7656,142.125 267.625,142.0938 267.1719,142.0938 L262.0313,142.0938 C261.5938,142.0938 261.4688,142.1094 261.3125,142.2031 C261.0625,142.3594 260.9063,142.6563 260.9063,142.9375 C260.9063,143.2188 261.0469,143.4688 261.2656,143.6406 C261.4219,143.75 261.6094,143.7813 262.0313,143.7813 L263.75,143.7813 L263.75,150.2969 L262.0313,150.2969 C261.5938,150.2969 261.4688,150.3125 261.3125,150.4219 C261.0625,150.5781 260.9063,150.8594 260.9063,151.1563 C260.9063,151.4063 261.0469,151.6719 261.2656,151.8281 C261.4219,151.9531 261.625,152 262.0313,152 L267.1719,152 C267.9219,152 268.2813,151.7188 268.2813,151.1563 C268.2813,150.875 268.1719,150.625 267.9375,150.4531 C267.7656,150.3281 267.625,150.2969 267.1719,150.2969 L265.4531,150.2969 L265.4531,143.7813 Z " fill="#000000"/><text fill="#000000" font-family="sans-serif" font-size="14" font-style="italic" lengthAdjust="spacing" textLength="110" x="278.5" y="151.8467">SushiDecorator</text><line style="stroke:#181818;stroke-width:0.5;" x1="250.5" x2="390.5" y1="163" y2="163"/><ellipse cx="260.5" cy="176.6484" fill="none" rx="3" ry="3" style="stroke:#038048;stroke-width:1.0;"/><text fill="#000000" font-family="sans-serif" font-size="14" lengthAdjust="spacing" textLength="81" x="269.5" y="179.9951">sushi: Sushi</text><line style="stroke:#181818;stroke-width:0.5;" x1="250.5" x2="390.5" y1="187.2969" y2="187.2969"/></g><!--MD5=[dc2b913c576bd3c6a55aa22ab7e2cc06]
class Wasabi--><g id="elem_Wasabi"><rect codeLine="10" fill="#F1F1F1" height="80.5938" id="Wasabi" rx="2.5" ry="2.5" style="stroke:#181818;stroke-width:0.5;" width="111" x="7" y="255"/><ellipse cx="34.6" cy="271" fill="#ADD1B2" rx="11" ry="11" style="stroke:#181818;stroke-width:1.0;"/><path d="M36.9438,266.6719 C36.0063,266.2344 35.4125,266.0938 34.5375,266.0938 C31.9125,266.0938 29.9125,268.1719 29.9125,270.8906 L29.9125,272.0156 C29.9125,274.5938 32.0219,276.4844 34.9125,276.4844 C36.1313,276.4844 37.2875,276.1875 38.0375,275.6406 C38.6156,275.2344 38.9438,274.7813 38.9438,274.3906 C38.9438,273.9375 38.5531,273.5469 38.0844,273.5469 C37.8656,273.5469 37.6625,273.625 37.475,273.8125 C37.0219,274.2969 37.0219,274.2969 36.8344,274.3906 C36.4125,274.6563 35.725,274.7813 34.9594,274.7813 C32.9125,274.7813 31.6156,273.6875 31.6156,271.9844 L31.6156,270.8906 C31.6156,269.1094 32.8656,267.7969 34.6,267.7969 C35.1781,267.7969 35.7875,267.9531 36.2563,268.2031 C36.7406,268.4844 36.9125,268.7031 37.0063,269.1094 C37.0688,269.5156 37.1,269.6406 37.2406,269.7656 C37.3813,269.9063 37.6156,270.0156 37.8344,270.0156 C38.1,270.0156 38.3656,269.875 38.5375,269.6563 C38.6469,269.5 38.6781,269.3125 38.6781,268.8906 L38.6781,267.4688 C38.6781,267.0313 38.6625,266.9063 38.5688,266.75 C38.4125,266.4844 38.1313,266.3438 37.8344,266.3438 C37.5375,266.3438 37.3344,266.4375 37.1156,266.75 L36.9438,266.6719 Z " fill="#000000"/><text fill="#000000" font-family="sans-serif" font-size="14" lengthAdjust="spacing" textLength="51" x="51.4" y="275.8467">Wasabi</text><line style="stroke:#181818;stroke-width:0.5;" x1="8" x2="117" y1="287" y2="287"/><ellipse cx="18" cy="300.6484" fill="none" rx="3" ry="3" style="stroke:#038048;stroke-width:1.0;"/><text fill="#000000" font-family="sans-serif" font-size="14" lengthAdjust="spacing" textLength="85" x="27" y="303.9951">sushi: ISushi</text><line style="stroke:#181818;stroke-width:0.5;" x1="8" x2="117" y1="311.2969" y2="311.2969"/><ellipse cx="18" cy="324.9453" fill="#84BE84" rx="3" ry="3" style="stroke:#038048;stroke-width:1.0;"/><text fill="#000000" font-family="sans-serif" font-size="14" lengthAdjust="spacing" textLength="85" x="27" y="328.292">eat(): string</text></g><!--MD5=[db3af0961b153b24726e4b60d8c844c0]
class SauceSojaSucree--><g id="elem_SauceSojaSucree"><rect codeLine="14" fill="#F1F1F1" height="80.5938" id="SauceSojaSucree" rx="2.5" ry="2.5" style="stroke:#181818;stroke-width:0.5;" width="153" x="153" y="255"/><ellipse cx="168" cy="271" fill="#ADD1B2" rx="11" ry="11" style="stroke:#181818;stroke-width:1.0;"/><path d="M170.3438,266.6719 C169.4063,266.2344 168.8125,266.0938 167.9375,266.0938 C165.3125,266.0938 163.3125,268.1719 163.3125,270.8906 L163.3125,272.0156 C163.3125,274.5938 165.4219,276.4844 168.3125,276.4844 C169.5313,276.4844 170.6875,276.1875 171.4375,275.6406 C172.0156,275.2344 172.3438,274.7813 172.3438,274.3906 C172.3438,273.9375 171.9531,273.5469 171.4844,273.5469 C171.2656,273.5469 171.0625,273.625 170.875,273.8125 C170.4219,274.2969 170.4219,274.2969 170.2344,274.3906 C169.8125,274.6563 169.125,274.7813 168.3594,274.7813 C166.3125,274.7813 165.0156,273.6875 165.0156,271.9844 L165.0156,270.8906 C165.0156,269.1094 166.2656,267.7969 168,267.7969 C168.5781,267.7969 169.1875,267.9531 169.6563,268.2031 C170.1406,268.4844 170.3125,268.7031 170.4063,269.1094 C170.4688,269.5156 170.5,269.6406 170.6406,269.7656 C170.7813,269.9063 171.0156,270.0156 171.2344,270.0156 C171.5,270.0156 171.7656,269.875 171.9375,269.6563 C172.0469,269.5 172.0781,269.3125 172.0781,268.8906 L172.0781,267.4688 C172.0781,267.0313 172.0625,266.9063 171.9688,266.75 C171.8125,266.4844 171.5313,266.3438 171.2344,266.3438 C170.9375,266.3438 170.7344,266.4375 170.5156,266.75 L170.3438,266.6719 Z " fill="#000000"/><text fill="#000000" font-family="sans-serif" font-size="14" lengthAdjust="spacing" textLength="121" x="182" y="275.8467">SauceSojaSucree</text><line style="stroke:#181818;stroke-width:0.5;" x1="154" x2="305" y1="287" y2="287"/><ellipse cx="164" cy="300.6484" fill="none" rx="3" ry="3" style="stroke:#038048;stroke-width:1.0;"/><text fill="#000000" font-family="sans-serif" font-size="14" lengthAdjust="spacing" textLength="85" x="173" y="303.9951">sushi: ISushi</text><line style="stroke:#181818;stroke-width:0.5;" x1="154" x2="305" y1="311.2969" y2="311.2969"/><ellipse cx="164" cy="324.9453" fill="#84BE84" rx="3" ry="3" style="stroke:#038048;stroke-width:1.0;"/><text fill="#000000" font-family="sans-serif" font-size="14" lengthAdjust="spacing" textLength="85" x="173" y="328.292">eat(): string</text></g><!--MD5=[2bb382ab95b1b534186fcf4e2487ecae]
class SauceSojaSalee--><g id="elem_SauceSojaSalee"><rect codeLine="18" fill="#F1F1F1" height="80.5938" id="SauceSojaSalee" rx="2.5" ry="2.5" style="stroke:#181818;stroke-width:0.5;" width="143" x="341" y="255"/><ellipse cx="356" cy="271" fill="#ADD1B2" rx="11" ry="11" style="stroke:#181818;stroke-width:1.0;"/><path d="M358.3438,266.6719 C357.4063,266.2344 356.8125,266.0938 355.9375,266.0938 C353.3125,266.0938 351.3125,268.1719 351.3125,270.8906 L351.3125,272.0156 C351.3125,274.5938 353.4219,276.4844 356.3125,276.4844 C357.5313,276.4844 358.6875,276.1875 359.4375,275.6406 C360.0156,275.2344 360.3438,274.7813 360.3438,274.3906 C360.3438,273.9375 359.9531,273.5469 359.4844,273.5469 C359.2656,273.5469 359.0625,273.625 358.875,273.8125 C358.4219,274.2969 358.4219,274.2969 358.2344,274.3906 C357.8125,274.6563 357.125,274.7813 356.3594,274.7813 C354.3125,274.7813 353.0156,273.6875 353.0156,271.9844 L353.0156,270.8906 C353.0156,269.1094 354.2656,267.7969 356,267.7969 C356.5781,267.7969 357.1875,267.9531 357.6563,268.2031 C358.1406,268.4844 358.3125,268.7031 358.4063,269.1094 C358.4688,269.5156 358.5,269.6406 358.6406,269.7656 C358.7813,269.9063 359.0156,270.0156 359.2344,270.0156 C359.5,270.0156 359.7656,269.875 359.9375,269.6563 C360.0469,269.5 360.0781,269.3125 360.0781,268.8906 L360.0781,267.4688 C360.0781,267.0313 360.0625,266.9063 359.9688,266.75 C359.8125,266.4844 359.5313,266.3438 359.2344,266.3438 C358.9375,266.3438 358.7344,266.4375 358.5156,266.75 L358.3438,266.6719 Z " fill="#000000"/><text fill="#000000" font-family="sans-serif" font-size="14" lengthAdjust="spacing" textLength="111" x="370" y="275.8467">SauceSojaSalee</text><line style="stroke:#181818;stroke-width:0.5;" x1="342" x2="483" y1="287" y2="287"/><ellipse cx="352" cy="300.6484" fill="none" rx="3" ry="3" style="stroke:#038048;stroke-width:1.0;"/><text fill="#000000" font-family="sans-serif" font-size="14" lengthAdjust="spacing" textLength="85" x="361" y="303.9951">sushi: ISushi</text><line style="stroke:#181818;stroke-width:0.5;" x1="342" x2="483" y1="311.2969" y2="311.2969"/><ellipse cx="352" cy="324.9453" fill="#84BE84" rx="3" ry="3" style="stroke:#038048;stroke-width:1.0;"/><text fill="#000000" font-family="sans-serif" font-size="14" lengthAdjust="spacing" textLength="85" x="361" y="328.292">eat(): string</text></g><!--MD5=[d8b25f034ded09971c247d39194c948c]
class Gingembre--><g id="elem_Gingembre"><rect codeLine="22" fill="#F1F1F1" height="80.5938" id="Gingembre" rx="2.5" ry="2.5" style="stroke:#181818;stroke-width:0.5;" width="113" x="519" y="255"/><ellipse cx="534" cy="271" fill="#ADD1B2" rx="11" ry="11" style="stroke:#181818;stroke-width:1.0;"/><path d="M536.3438,266.6719 C535.4063,266.2344 534.8125,266.0938 533.9375,266.0938 C531.3125,266.0938 529.3125,268.1719 529.3125,270.8906 L529.3125,272.0156 C529.3125,274.5938 531.4219,276.4844 534.3125,276.4844 C535.5313,276.4844 536.6875,276.1875 537.4375,275.6406 C538.0156,275.2344 538.3438,274.7813 538.3438,274.3906 C538.3438,273.9375 537.9531,273.5469 537.4844,273.5469 C537.2656,273.5469 537.0625,273.625 536.875,273.8125 C536.4219,274.2969 536.4219,274.2969 536.2344,274.3906 C535.8125,274.6563 535.125,274.7813 534.3594,274.7813 C532.3125,274.7813 531.0156,273.6875 531.0156,271.9844 L531.0156,270.8906 C531.0156,269.1094 532.2656,267.7969 534,267.7969 C534.5781,267.7969 535.1875,267.9531 535.6563,268.2031 C536.1406,268.4844 536.3125,268.7031 536.4063,269.1094 C536.4688,269.5156 536.5,269.6406 536.6406,269.7656 C536.7813,269.9063 537.0156,270.0156 537.2344,270.0156 C537.5,270.0156 537.7656,269.875 537.9375,269.6563 C538.0469,269.5 538.0781,269.3125 538.0781,268.8906 L538.0781,267.4688 C538.0781,267.0313 538.0625,266.9063 537.9688,266.75 C537.8125,266.4844 537.5313,266.3438 537.2344,266.3438 C536.9375,266.3438 536.7344,266.4375 536.5156,266.75 L536.3438,266.6719 Z " fill="#000000"/><text fill="#000000" font-family="sans-serif" font-size="14" lengthAdjust="spacing" textLength="81" x="548" y="275.8467">Gingembre</text><line style="stroke:#181818;stroke-width:0.5;" x1="520" x2="631" y1="287" y2="287"/><ellipse cx="530" cy="300.6484" fill="none" rx="3" ry="3" style="stroke:#038048;stroke-width:1.0;"/><text fill="#000000" font-family="sans-serif" font-size="14" lengthAdjust="spacing" textLength="85" x="539" y="303.9951">sushi: ISushi</text><line style="stroke:#181818;stroke-width:0.5;" x1="520" x2="631" y1="311.2969" y2="311.2969"/><ellipse cx="530" cy="324.9453" fill="#84BE84" rx="3" ry="3" style="stroke:#038048;stroke-width:1.0;"/><text fill="#000000" font-family="sans-serif" font-size="14" lengthAdjust="spacing" textLength="85" x="539" y="328.292">eat(): string</text></g><!--MD5=[a9b63b3595a510bc6eb97ef37356c08c]
reverse link ISushi to Sushi--><g id="link_ISushi_Sushi"><path d="M207.638,87.99 C198.044,102.44 187.771,117.913 179.112,130.955 " fill="none" id="ISushi-backto-Sushi" style="stroke:#181818;stroke-width:1.0;stroke-dasharray:7.0,7.0;"/><polygon fill="none" points="201.956,83.892,218.851,71.101,213.62,91.635,201.956,83.892" style="stroke:#181818;stroke-width:1.0;"/></g><!--MD5=[649e53f50d037fb42d227fc7e6447555]
reverse link ISushi to SushiDecorator--><g id="link_ISushi_SushiDecorator"><path d="M271.362,87.99 C280.956,102.44 291.229,117.913 299.888,130.955 " fill="none" id="ISushi-backto-SushiDecorator" style="stroke:#181818;stroke-width:1.0;"/><polygon fill="none" points="265.38,91.635,260.149,71.101,277.044,83.892,265.38,91.635" style="stroke:#181818;stroke-width:1.0;"/></g><!--MD5=[2f84b883d65c2f7d56a1d5a85c6d0322]
reverse link SushiDecorator to Wasabi--><g id="link_SushiDecorator_Wasabi"><path d="M237.341,204.053 C205.364,219.678 168.601,237.9117 135.5,255 C129.866,257.9085 124.012,260.9841 118.181,264.0834 " fill="none" id="SushiDecorator-backto-Wasabi" style="stroke:#181818;stroke-width:1.0;stroke-dasharray:7.0,7.0;"/><polygon fill="none" points="234.506,197.648,255.551,195.184,240.636,210.235,234.506,197.648" style="stroke:#181818;stroke-width:1.0;"/></g><!--MD5=[52bb6ba8b2c6e044c255a23093235cae]
reverse link SushiDecorator to SauceSojaSucree--><g id="link_SushiDecorator_SauceSojaSucree"><path d="M287.26,211.668 C277.432,225.762 266.78,241.0387 257.33,254.5894 " fill="none" id="SushiDecorator-backto-SauceSojaSucree" style="stroke:#181818;stroke-width:1.0;stroke-dasharray:7.0,7.0;"/><polygon fill="none" points="281.522,207.659,298.703,195.258,293.005,215.667,281.522,207.659" style="stroke:#181818;stroke-width:1.0;"/></g><!--MD5=[c4c560b00cec946347d5602731ef2f01]
reverse link SushiDecorator to SauceSojaSalee--><g id="link_SushiDecorator_SauceSojaSalee"><path d="M354.105,211.668 C364.041,225.762 374.811,241.0387 384.364,254.5894 " fill="none" id="SushiDecorator-backto-SauceSojaSalee" style="stroke:#181818;stroke-width:1.0;stroke-dasharray:7.0,7.0;"/><polygon fill="none" points="348.339,215.638,342.536,195.258,359.781,207.571,348.339,215.638" style="stroke:#181818;stroke-width:1.0;"/></g><!--MD5=[b6465b0a14e576ea36c480dd664eb3b5]
reverse link SushiDecorator to Gingembre--><g id="link_SushiDecorator_Gingembre"><path d="M401.428,204.159 C432.771,219.85 468.892,238.1032 501.5,255 C507.06,257.881 512.84,260.9086 518.609,263.9523 " fill="none" id="SushiDecorator-backto-Gingembre" style="stroke:#181818;stroke-width:1.0;stroke-dasharray:7.0,7.0;"/><polygon fill="none" points="397.861,210.202,383.098,195.001,404.118,197.678,397.861,210.202" style="stroke:#181818;stroke-width:1.0;"/></g><!--MD5=[73c388f37ede7623593e1da730b431ed]
@startuml
interface ISushi {
    +eat(): string
}
class Sushi implements ISushi {
    +eat(): string
}
interface SushiDecorator extends ISushi {
    +sushi: Sushi
}
class Wasabi implements SushiDecorator {
    +sushi: ISushi
    +eat(): string
}
class SauceSojaSucree implements SushiDecorator {
    +sushi: ISushi
    +eat(): string
}
class SauceSojaSalee implements SushiDecorator {
    +sushi: ISushi
    +eat(): string
}
class Gingembre implements SushiDecorator {
    +sushi: ISushi
    +eat(): string
}
@enduml

PlantUML version 1.2022.14beta1(Unknown compile time)
(GPL source distribution)
Java Runtime: Java(TM) SE Runtime Environment
JVM: Java HotSpot(TM) 64-Bit Server VM
Default Encoding: UTF-8
Language: en
Country: US
--></g></svg>