<?xml version="1.0" encoding="UTF-8" standalone="no"?><svg xmlns="http://www.w3.org/2000/svg" xmlns:xlink="http://www.w3.org/1999/xlink" contentStyleType="text/css" height="343px" preserveAspectRatio="none" style="width:644px;height:343px;background:#FFFFFF;" version="1.1" viewBox="0 0 644 343" width="644px" zoomAndPan="magnify"><defs/><g><!--MD5=[3bce836ed5938be20a1afd85188eb394]
class ChainedNodeIterator--><g id="elem_ChainedNodeIterator"><rect codeLine="1" fill="#F1F1F1" height="80.5938" id="ChainedNodeIterator" rx="2.5" ry="2.5" style="stroke:#181818;stroke-width:0.5;" width="504" x="129.5" y="115"/><ellipse cx="296.25" cy="131" fill="#ADD1B2" rx="11" ry="11" style="stroke:#181818;stroke-width:1.0;"/><path d="M298.5938,126.6719 C297.6563,126.2344 297.0625,126.0938 296.1875,126.0938 C293.5625,126.0938 291.5625,128.1719 291.5625,130.8906 L291.5625,132.0156 C291.5625,134.5938 293.6719,136.4844 296.5625,136.4844 C297.7813,136.4844 298.9375,136.1875 299.6875,135.6406 C300.2656,135.2344 300.5938,134.7813 300.5938,134.3906 C300.5938,133.9375 300.2031,133.5469 299.7344,133.5469 C299.5156,133.5469 299.3125,133.625 299.125,133.8125 C298.6719,134.2969 298.6719,134.2969 298.4844,134.3906 C298.0625,134.6563 297.375,134.7813 296.6094,134.7813 C294.5625,134.7813 293.2656,133.6875 293.2656,131.9844 L293.2656,130.8906 C293.2656,129.1094 294.5156,127.7969 296.25,127.7969 C296.8281,127.7969 297.4375,127.9531 297.9063,128.2031 C298.3906,128.4844 298.5625,128.7031 298.6563,129.1094 C298.7188,129.5156 298.75,129.6406 298.8906,129.7656 C299.0313,129.9063 299.2656,130.0156 299.4844,130.0156 C299.75,130.0156 300.0156,129.875 300.1875,129.6563 C300.2969,129.5 300.3281,129.3125 300.3281,128.8906 L300.3281,127.4688 C300.3281,127.0313 300.3125,126.9063 300.2188,126.75 C300.0625,126.4844 299.7813,126.3438 299.4844,126.3438 C299.1875,126.3438 298.9844,126.4375 298.7656,126.75 L298.5938,126.6719 Z " fill="#000000"/><text fill="#000000" font-family="sans-serif" font-size="14" lengthAdjust="spacing" textLength="151" x="316.75" y="135.8467">ChainedNodeIterator</text><rect fill="#FFFFFF" height="15.9688" style="stroke:#181818;stroke-width:1.0;stroke-dasharray:2.0,2.0;" width="9" x="627.5" y="112"/><text fill="#000000" font-family="sans-serif" font-size="12" font-style="italic" lengthAdjust="spacing" textLength="7" x="628.5" y="124.1387">T</text><line style="stroke:#181818;stroke-width:0.5;" x1="130.5" x2="632.5" y1="147" y2="147"/><rect fill="none" height="6" style="stroke:#C82930;stroke-width:1.0;" width="6" x="137.5" y="157.6484"/><text fill="#000000" font-family="sans-serif" font-size="14" lengthAdjust="spacing" textLength="171" x="149.5" y="163.9951">node: ChainedNode&lt;T&gt;</text><line style="stroke:#181818;stroke-width:0.5;" x1="130.5" x2="632.5" y1="171.2969" y2="171.2969"/><ellipse cx="140.5" cy="184.9453" fill="#84BE84" rx="3" ry="3" style="stroke:#038048;stroke-width:1.0;"/><text fill="#000000" font-family="sans-serif" font-size="14" lengthAdjust="spacing" textLength="478" x="149.5" y="188.292">next(args: [] | [undefined]): IteratorResult&lt;ChainedNode&lt;T&gt;, any&gt;</text></g><!--MD5=[023ecf6702e3ca2ce47ae747eafb20f1]
class Iterator--><g id="elem_Iterator"><rect fill="#F1F1F1" height="48" id="Iterator" rx="2.5" ry="2.5" style="stroke:#181818;stroke-width:0.5;" width="85" x="339" y="7"/><ellipse cx="354" cy="23" fill="#B4A7E5" rx="11" ry="11" style="stroke:#181818;stroke-width:1.0;"/><path d="M354.9531,19.7813 L356.6719,19.7813 C357.0625,19.7813 357.25,19.75 357.375,19.6719 C357.6406,19.5156 357.7813,19.2344 357.7813,18.9375 C357.7813,18.6719 357.6719,18.4063 357.4375,18.2344 C357.2656,18.125 357.125,18.0938 356.6719,18.0938 L351.5313,18.0938 C351.0938,18.0938 350.9688,18.1094 350.8125,18.2031 C350.5625,18.3594 350.4063,18.6563 350.4063,18.9375 C350.4063,19.2188 350.5469,19.4688 350.7656,19.6406 C350.9219,19.75 351.1094,19.7813 351.5313,19.7813 L353.25,19.7813 L353.25,26.2969 L351.5313,26.2969 C351.0938,26.2969 350.9688,26.3125 350.8125,26.4219 C350.5625,26.5781 350.4063,26.8594 350.4063,27.1563 C350.4063,27.4063 350.5469,27.6719 350.7656,27.8281 C350.9219,27.9531 351.125,28 351.5313,28 L356.6719,28 C357.4219,28 357.7813,27.7188 357.7813,27.1563 C357.7813,26.875 357.6719,26.625 357.4375,26.4531 C357.2656,26.3281 357.125,26.2969 356.6719,26.2969 L354.9531,26.2969 L354.9531,19.7813 Z " fill="#000000"/><text fill="#000000" font-family="sans-serif" font-size="14" font-style="italic" lengthAdjust="spacing" textLength="53" x="368" y="27.8467">Iterator</text><line style="stroke:#181818;stroke-width:0.5;" x1="340" x2="423" y1="39" y2="39"/><line style="stroke:#181818;stroke-width:0.5;" x1="340" x2="423" y1="47" y2="47"/></g><!--MD5=[4937dbbfb8692fb3036e07c69bef9cf6]
class ChainedNode--><g id="elem_ChainedNode"><rect codeLine="5" fill="#F1F1F1" height="80.5938" id="ChainedNode" rx="2.5" ry="2.5" style="stroke:#181818;stroke-width:0.5;" width="232" x="99.5" y="256"/><ellipse cx="158.25" cy="272" fill="#ADD1B2" rx="11" ry="11" style="stroke:#181818;stroke-width:1.0;"/><path d="M160.5938,267.6719 C159.6563,267.2344 159.0625,267.0938 158.1875,267.0938 C155.5625,267.0938 153.5625,269.1719 153.5625,271.8906 L153.5625,273.0156 C153.5625,275.5938 155.6719,277.4844 158.5625,277.4844 C159.7813,277.4844 160.9375,277.1875 161.6875,276.6406 C162.2656,276.2344 162.5938,275.7813 162.5938,275.3906 C162.5938,274.9375 162.2031,274.5469 161.7344,274.5469 C161.5156,274.5469 161.3125,274.625 161.125,274.8125 C160.6719,275.2969 160.6719,275.2969 160.4844,275.3906 C160.0625,275.6563 159.375,275.7813 158.6094,275.7813 C156.5625,275.7813 155.2656,274.6875 155.2656,272.9844 L155.2656,271.8906 C155.2656,270.1094 156.5156,268.7969 158.25,268.7969 C158.8281,268.7969 159.4375,268.9531 159.9063,269.2031 C160.3906,269.4844 160.5625,269.7031 160.6563,270.1094 C160.7188,270.5156 160.75,270.6406 160.8906,270.7656 C161.0313,270.9063 161.2656,271.0156 161.4844,271.0156 C161.75,271.0156 162.0156,270.875 162.1875,270.6563 C162.2969,270.5 162.3281,270.3125 162.3281,269.8906 L162.3281,268.4688 C162.3281,268.0313 162.3125,267.9063 162.2188,267.75 C162.0625,267.4844 161.7813,267.3438 161.4844,267.3438 C161.1875,267.3438 160.9844,267.4375 160.7656,267.75 L160.5938,267.6719 Z " fill="#000000"/><text fill="#000000" font-family="sans-serif" font-size="14" lengthAdjust="spacing" textLength="95" x="178.75" y="276.8467">ChainedNode</text><rect fill="#FFFFFF" height="15.9688" style="stroke:#181818;stroke-width:1.0;stroke-dasharray:2.0,2.0;" width="9" x="325.5" y="253"/><text fill="#000000" font-family="sans-serif" font-size="12" font-style="italic" lengthAdjust="spacing" textLength="7" x="326.5" y="265.1387">T</text><line style="stroke:#181818;stroke-width:0.5;" x1="100.5" x2="330.5" y1="288" y2="288"/><ellipse cx="110.5" cy="301.6484" fill="none" rx="3" ry="3" style="stroke:#038048;stroke-width:1.0;"/><text fill="#000000" font-family="sans-serif" font-size="14" lengthAdjust="spacing" textLength="55" x="119.5" y="304.9951">value: T</text><ellipse cx="110.5" cy="317.9453" fill="none" rx="3" ry="3" style="stroke:#038048;stroke-width:1.0;"/><text fill="#000000" font-family="sans-serif" font-size="14" lengthAdjust="spacing" textLength="206" x="119.5" y="321.292">next: ChainedNode&lt;T&gt; | null</text><line style="stroke:#181818;stroke-width:0.5;" x1="100.5" x2="330.5" y1="328.5938" y2="328.5938"/></g><!--MD5=[47de47a8b5f06cbc5e036fae0a9149b7]
class Iterable--><g id="elem_Iterable"><rect fill="#F1F1F1" height="48" id="Iterable" rx="2.5" ry="2.5" style="stroke:#181818;stroke-width:0.5;" width="87" x="7" y="131.5"/><ellipse cx="22" cy="147.5" fill="#B4A7E5" rx="11" ry="11" style="stroke:#181818;stroke-width:1.0;"/><path d="M22.9531,144.2813 L24.6719,144.2813 C25.0625,144.2813 25.25,144.25 25.375,144.1719 C25.6406,144.0156 25.7813,143.7344 25.7813,143.4375 C25.7813,143.1719 25.6719,142.9063 25.4375,142.7344 C25.2656,142.625 25.125,142.5938 24.6719,142.5938 L19.5313,142.5938 C19.0938,142.5938 18.9688,142.6094 18.8125,142.7031 C18.5625,142.8594 18.4063,143.1563 18.4063,143.4375 C18.4063,143.7188 18.5469,143.9688 18.7656,144.1406 C18.9219,144.25 19.1094,144.2813 19.5313,144.2813 L21.25,144.2813 L21.25,150.7969 L19.5313,150.7969 C19.0938,150.7969 18.9688,150.8125 18.8125,150.9219 C18.5625,151.0781 18.4063,151.3594 18.4063,151.6563 C18.4063,151.9063 18.5469,152.1719 18.7656,152.3281 C18.9219,152.4531 19.125,152.5 19.5313,152.5 L24.6719,152.5 C25.4219,152.5 25.7813,152.2188 25.7813,151.6563 C25.7813,151.375 25.6719,151.125 25.4375,150.9531 C25.2656,150.8281 25.125,150.7969 24.6719,150.7969 L22.9531,150.7969 L22.9531,144.2813 Z " fill="#000000"/><text fill="#000000" font-family="sans-serif" font-size="14" font-style="italic" lengthAdjust="spacing" textLength="55" x="36" y="152.3467">Iterable</text><line style="stroke:#181818;stroke-width:0.5;" x1="8" x2="93" y1="163.5" y2="163.5"/><line style="stroke:#181818;stroke-width:0.5;" x1="8" x2="93" y1="171.5" y2="171.5"/></g><!--MD5=[5a2060d709d8a3a28c4df867242e2236]
reverse link Iterator to ChainedNodeIterator--><g id="link_Iterator_ChainedNodeIterator"><path d="M381.5,75.137 C381.5,88.004 381.5,102.044 381.5,114.688 " fill="none" id="Iterator-backto-ChainedNodeIterator" style="stroke:#181818;stroke-width:1.0;stroke-dasharray:7.0,7.0;"/><polygon fill="none" points="374.5,75.041,381.5,55.041,388.5,75.041,374.5,75.041" style="stroke:#181818;stroke-width:1.0;"/></g><!--MD5=[c8f3973d190892c8a75e8ea2c64548c5]
reverse link Iterable to ChainedNode--><g id="link_Iterable_ChainedNode"><path d="M93.7426,192.929 C116.679,212.251 144.894,236.02 168.387,255.8106 " fill="none" id="Iterable-backto-ChainedNode" style="stroke:#181818;stroke-width:1.0;stroke-dasharray:7.0,7.0;"/><polygon fill="none" points="88.9032,198.005,78.1173,179.765,97.9231,187.298,88.9032,198.005" style="stroke:#181818;stroke-width:1.0;"/></g><!--MD5=[f4fc7c57ba3a2470624c7436081122e1]
link ChainedNodeIterator to ChainedNode--><g id="link_ChainedNodeIterator_ChainedNode"><path codeLine="9" d="M333.931,196.332 C312.916,213.929 288.171,234.649 266.748,252.5872 " fill="none" id="ChainedNodeIterator-to-ChainedNode" style="stroke:#181818;stroke-width:1.0;"/><polygon fill="#181818" points="262.789,255.9028,272.2574,253.1917,266.6225,252.6928,267.1214,247.058,262.789,255.9028" style="stroke:#181818;stroke-width:1.0;"/><text fill="#000000" font-family="sans-serif" font-size="13" lengthAdjust="spacing" textLength="8" x="261.9587" y="245.0482">1</text></g><!--MD5=[57b27e861069b7a0c84b681a256e4a16]
@startuml
class ChainedNodeIterator<T> implements Iterator {
    -node: ChainedNode<T>
    +next(args: [] | [undefined]): IteratorResult<ChainedNode<T>, any>
}
class ChainedNode<T> implements Iterable {
    +value: T
    +next: ChainedNode<T> | null
}
ChainedNodeIterator - -> "1" ChainedNode
@enduml

PlantUML version 1.2022.14beta1(Unknown compile time)
(GPL source distribution)
Java Runtime: Java(TM) SE Runtime Environment
JVM: Java HotSpot(TM) 64-Bit Server VM
Default Encoding: UTF-8
Language: en
Country: US
--></g></svg>