<?xml version="1.0" encoding="UTF-8" standalone="no"?><svg xmlns="http://www.w3.org/2000/svg" xmlns:xlink="http://www.w3.org/1999/xlink" contentStyleType="text/css" height="787px" preserveAspectRatio="none" style="width:1173px;height:787px;background:#FFFFFF;" version="1.1" viewBox="0 0 1173 787" width="1173px" zoomAndPan="magnify"><defs/><g><!--MD5=[2a7d27db0b64142ed08ba08037cfcf75]
class Feeling--><g id="elem_Feeling"><rect codeLine="1" fill="#F1F1F1" height="113.1875" id="Feeling" rx="2.5" ry="2.5" style="stroke:#181818;stroke-width:0.5;" width="84" x="537.926" y="667"/><ellipse cx="552.926" cy="683" fill="#EB937F" rx="11" ry="11" style="stroke:#181818;stroke-width:1.0;"/><path d="M551.7229,683.875 L553.176,683.875 L553.176,683.9844 C553.176,684.3906 553.2072,684.5469 553.2854,684.7031 C553.4416,684.9531 553.7229,685.1094 554.0197,685.1094 C554.2697,685.1094 554.5354,684.9688 554.6916,684.75 C554.8166,684.5938 554.8479,684.4375 554.8479,683.9844 L554.8479,682.0625 C554.8479,681.9063 554.8479,681.8594 554.8322,681.7031 C554.7697,681.2344 554.4572,680.9219 554.0041,680.9219 C553.7541,680.9219 553.4885,681.0625 553.3166,681.2813 C553.2072,681.4531 553.176,681.6094 553.176,682.0625 L553.176,682.1875 L551.7229,682.1875 L551.7229,679.7813 L555.7072,679.7813 L555.7072,680.6406 C555.7072,681.0469 555.7385,681.2188 555.8166,681.375 C555.9885,681.625 556.2697,681.7813 556.551,681.7813 C556.8166,681.7813 557.0822,681.6406 557.2541,681.4219 C557.3635,681.25 557.3947,681.1094 557.3947,680.6406 L557.3947,678.0938 L549.7697,678.0938 C549.3322,678.0938 549.2072,678.1094 549.051,678.2031 C548.801,678.3594 548.6447,678.6563 548.6447,678.9375 C548.6447,679.2188 548.7854,679.4688 549.0041,679.6406 C549.1604,679.75 549.3479,679.7813 549.7697,679.7813 L550.0197,679.7813 L550.0197,686.2969 L549.7697,686.2969 C549.3635,686.2969 549.2072,686.3125 549.051,686.4219 C548.801,686.5938 548.6447,686.8594 548.6447,687.1563 C548.6447,687.4219 548.7854,687.6719 549.0041,687.8281 C549.1447,687.9531 549.3791,688 549.7697,688 L557.7697,688 L557.7697,685.4219 C557.7697,684.9844 557.7385,684.8438 557.6604,684.6875 C557.4885,684.4375 557.2072,684.2813 556.926,684.2813 C556.6604,684.2813 556.3947,684.3906 556.2229,684.6406 C556.1135,684.7969 556.0822,684.9375 556.0822,685.4219 L556.0822,686.2969 L551.7229,686.2969 L551.7229,683.875 Z " fill="#000000"/><text fill="#000000" font-family="sans-serif" font-size="14" lengthAdjust="spacing" textLength="52" x="566.926" y="687.8467">Feeling</text><line style="stroke:#181818;stroke-width:0.5;" x1="538.926" x2="620.926" y1="699" y2="699"/><text fill="#000000" font-family="sans-serif" font-size="14" lengthAdjust="spacing" textLength="50" x="543.926" y="715.9951">normal</text><text fill="#000000" font-family="sans-serif" font-size="14" lengthAdjust="spacing" textLength="45" x="543.926" y="732.292">awake</text><text fill="#000000" font-family="sans-serif" font-size="14" lengthAdjust="spacing" textLength="29" x="543.926" y="748.5889">rest</text><text fill="#000000" font-family="sans-serif" font-size="14" lengthAdjust="spacing" textLength="22" x="543.926" y="764.8857">full</text><line style="stroke:#181818;stroke-width:0.5;" x1="538.926" x2="620.926" y1="772.1875" y2="772.1875"/></g><!--MD5=[e692b9129d14a6056b5081d9360eda51]
class Boisson--><g id="elem_Boisson"><rect codeLine="7" fill="#F1F1F1" height="113.1875" id="Boisson" rx="2.5" ry="2.5" style="stroke:#181818;stroke-width:0.5;" width="209" x="476.426" y="180"/><ellipse cx="549.176" cy="196" fill="#B4A7E5" rx="11" ry="11" style="stroke:#181818;stroke-width:1.0;"/><path d="M550.1291,192.7813 L551.8479,192.7813 C552.2385,192.7813 552.426,192.75 552.551,192.6719 C552.8166,192.5156 552.9572,192.2344 552.9572,191.9375 C552.9572,191.6719 552.8479,191.4063 552.6135,191.2344 C552.4416,191.125 552.301,191.0938 551.8479,191.0938 L546.7072,191.0938 C546.2697,191.0938 546.1447,191.1094 545.9885,191.2031 C545.7385,191.3594 545.5822,191.6563 545.5822,191.9375 C545.5822,192.2188 545.7229,192.4688 545.9416,192.6406 C546.0979,192.75 546.2854,192.7813 546.7072,192.7813 L548.426,192.7813 L548.426,199.2969 L546.7072,199.2969 C546.2697,199.2969 546.1447,199.3125 545.9885,199.4219 C545.7385,199.5781 545.5822,199.8594 545.5822,200.1563 C545.5822,200.4063 545.7229,200.6719 545.9416,200.8281 C546.0979,200.9531 546.301,201 546.7072,201 L551.8479,201 C552.5979,201 552.9572,200.7188 552.9572,200.1563 C552.9572,199.875 552.8479,199.625 552.6135,199.4531 C552.4416,199.3281 552.301,199.2969 551.8479,199.2969 L550.1291,199.2969 L550.1291,192.7813 Z " fill="#000000"/><text fill="#000000" font-family="sans-serif" font-size="14" font-style="italic" lengthAdjust="spacing" textLength="55" x="569.676" y="200.8467">Boisson</text><line style="stroke:#181818;stroke-width:0.5;" x1="477.426" x2="684.426" y1="212" y2="212"/><ellipse cx="487.426" cy="225.6484" fill="none" rx="3" ry="3" style="stroke:#038048;stroke-width:1.0;"/><text fill="#000000" font-family="sans-serif" font-size="14" lengthAdjust="spacing" textLength="91" x="496.426" y="228.9951">name: string</text><ellipse cx="487.426" cy="241.9453" fill="none" rx="3" ry="3" style="stroke:#038048;stroke-width:1.0;"/><text fill="#000000" font-family="sans-serif" font-size="14" lengthAdjust="spacing" textLength="120" x="496.426" y="245.292">calories: number</text><ellipse cx="487.426" cy="258.2422" fill="none" rx="3" ry="3" style="stroke:#038048;stroke-width:1.0;"/><text fill="#000000" font-family="sans-serif" font-size="14" lengthAdjust="spacing" textLength="111" x="496.426" y="261.5889">feeling: Feeling</text><line style="stroke:#181818;stroke-width:0.5;" x1="477.426" x2="684.426" y1="268.8906" y2="268.8906"/><ellipse cx="487.426" cy="282.5391" fill="#84BE84" rx="3" ry="3" style="stroke:#038048;stroke-width:1.0;"/><text fill="#000000" font-family="sans-serif" font-size="14" lengthAdjust="spacing" textLength="183" x="496.426" y="285.8857">buPar(client: Client): void</text></g><!--MD5=[ed6624c6556d5e7b1bd23032162d20b7]
class Client--><g id="elem_Client"><rect codeLine="13" fill="#F1F1F1" height="80.5938" id="Client" rx="2.5" ry="2.5" style="stroke:#181818;stroke-width:0.5;" width="141" x="580.426" y="526"/><ellipse cx="625.176" cy="542" fill="#ADD1B2" rx="11" ry="11" style="stroke:#181818;stroke-width:1.0;"/><path d="M627.5197,537.6719 C626.5822,537.2344 625.9885,537.0938 625.1135,537.0938 C622.4885,537.0938 620.4885,539.1719 620.4885,541.8906 L620.4885,543.0156 C620.4885,545.5938 622.5979,547.4844 625.4885,547.4844 C626.7072,547.4844 627.8635,547.1875 628.6135,546.6406 C629.1916,546.2344 629.5197,545.7813 629.5197,545.3906 C629.5197,544.9375 629.1291,544.5469 628.6604,544.5469 C628.4416,544.5469 628.2385,544.625 628.051,544.8125 C627.5979,545.2969 627.5979,545.2969 627.4104,545.3906 C626.9885,545.6563 626.301,545.7813 625.5354,545.7813 C623.4885,545.7813 622.1916,544.6875 622.1916,542.9844 L622.1916,541.8906 C622.1916,540.1094 623.4416,538.7969 625.176,538.7969 C625.7541,538.7969 626.3635,538.9531 626.8322,539.2031 C627.3166,539.4844 627.4885,539.7031 627.5822,540.1094 C627.6447,540.5156 627.676,540.6406 627.8166,540.7656 C627.9572,540.9063 628.1916,541.0156 628.4104,541.0156 C628.676,541.0156 628.9416,540.875 629.1135,540.6563 C629.2229,540.5 629.2541,540.3125 629.2541,539.8906 L629.2541,538.4688 C629.2541,538.0313 629.2385,537.9063 629.1447,537.75 C628.9885,537.4844 628.7072,537.3438 628.4104,537.3438 C628.1135,537.3438 627.9104,537.4375 627.6916,537.75 L627.5197,537.6719 Z " fill="#000000"/><text fill="#000000" font-family="sans-serif" font-size="14" lengthAdjust="spacing" textLength="43" x="645.676" y="546.8467">Client</text><line style="stroke:#181818;stroke-width:0.5;" x1="581.426" x2="720.426" y1="558" y2="558"/><ellipse cx="591.426" cy="571.6484" fill="none" rx="3" ry="3" style="stroke:#038048;stroke-width:1.0;"/><text fill="#000000" font-family="sans-serif" font-size="14" lengthAdjust="spacing" textLength="111" x="600.426" y="574.9951">feeling: Feeling</text><ellipse cx="591.426" cy="587.9453" fill="none" rx="3" ry="3" style="stroke:#038048;stroke-width:1.0;"/><text fill="#000000" font-family="sans-serif" font-size="14" lengthAdjust="spacing" textLength="115" x="600.426" y="591.292">energy: number</text><line style="stroke:#181818;stroke-width:0.5;" x1="581.426" x2="720.426" y1="598.5938" y2="598.5938"/></g><!--MD5=[ec66d974db57302924a9b211237ab387]
class Cafe--><g id="elem_Cafe"><rect codeLine="17" fill="#F1F1F1" height="113.1875" id="Cafe" rx="2.5" ry="2.5" style="stroke:#181818;stroke-width:0.5;" width="209" x="153.426" y="353"/><ellipse cx="237.176" cy="369" fill="#ADD1B2" rx="11" ry="11" style="stroke:#181818;stroke-width:1.0;"/><path d="M239.5198,364.6719 C238.5823,364.2344 237.9885,364.0938 237.1135,364.0938 C234.4885,364.0938 232.4885,366.1719 232.4885,368.8906 L232.4885,370.0156 C232.4885,372.5938 234.5979,374.4844 237.4885,374.4844 C238.7073,374.4844 239.8635,374.1875 240.6135,373.6406 C241.1916,373.2344 241.5198,372.7813 241.5198,372.3906 C241.5198,371.9375 241.1291,371.5469 240.6604,371.5469 C240.4416,371.5469 240.2385,371.625 240.051,371.8125 C239.5979,372.2969 239.5979,372.2969 239.4104,372.3906 C238.9885,372.6563 238.301,372.7813 237.5354,372.7813 C235.4885,372.7813 234.1916,371.6875 234.1916,369.9844 L234.1916,368.8906 C234.1916,367.1094 235.4416,365.7969 237.176,365.7969 C237.7541,365.7969 238.3635,365.9531 238.8323,366.2031 C239.3166,366.4844 239.4885,366.7031 239.5823,367.1094 C239.6448,367.5156 239.676,367.6406 239.8166,367.7656 C239.9573,367.9063 240.1916,368.0156 240.4104,368.0156 C240.676,368.0156 240.9416,367.875 241.1135,367.6563 C241.2229,367.5 241.2541,367.3125 241.2541,366.8906 L241.2541,365.4688 C241.2541,365.0313 241.2385,364.9063 241.1448,364.75 C240.9885,364.4844 240.7073,364.3438 240.4104,364.3438 C240.1135,364.3438 239.9104,364.4375 239.6916,364.75 L239.5198,364.6719 Z " fill="#000000"/><text fill="#000000" font-family="sans-serif" font-size="14" lengthAdjust="spacing" textLength="33" x="257.676" y="373.8467">Cafe</text><line style="stroke:#181818;stroke-width:0.5;" x1="154.426" x2="361.426" y1="385" y2="385"/><ellipse cx="164.426" cy="398.6484" fill="none" rx="3" ry="3" style="stroke:#038048;stroke-width:1.0;"/><text fill="#000000" font-family="sans-serif" font-size="14" lengthAdjust="spacing" textLength="91" x="173.426" y="401.9951">name: string</text><ellipse cx="164.426" cy="414.9453" fill="none" rx="3" ry="3" style="stroke:#038048;stroke-width:1.0;"/><text fill="#000000" font-family="sans-serif" font-size="14" lengthAdjust="spacing" textLength="120" x="173.426" y="418.292">calories: number</text><ellipse cx="164.426" cy="431.2422" fill="none" rx="3" ry="3" style="stroke:#038048;stroke-width:1.0;"/><text fill="#000000" font-family="sans-serif" font-size="14" lengthAdjust="spacing" textLength="111" x="173.426" y="434.5889">feeling: Feeling</text><line style="stroke:#181818;stroke-width:0.5;" x1="154.426" x2="361.426" y1="441.8906" y2="441.8906"/><ellipse cx="164.426" cy="455.5391" fill="#84BE84" rx="3" ry="3" style="stroke:#038048;stroke-width:1.0;"/><text fill="#000000" font-family="sans-serif" font-size="14" lengthAdjust="spacing" textLength="183" x="173.426" y="458.8857">buPar(client: Client): void</text></g><!--MD5=[8d7615651d13824fd0829737733a38c8]
class Tisane--><g id="elem_Tisane"><rect codeLine="23" fill="#F1F1F1" height="113.1875" id="Tisane" rx="2.5" ry="2.5" style="stroke:#181818;stroke-width:0.5;" width="209" x="397.426" y="353"/><ellipse cx="474.676" cy="369" fill="#ADD1B2" rx="11" ry="11" style="stroke:#181818;stroke-width:1.0;"/><path d="M477.0198,364.6719 C476.0823,364.2344 475.4885,364.0938 474.6135,364.0938 C471.9885,364.0938 469.9885,366.1719 469.9885,368.8906 L469.9885,370.0156 C469.9885,372.5938 472.0979,374.4844 474.9885,374.4844 C476.2073,374.4844 477.3635,374.1875 478.1135,373.6406 C478.6916,373.2344 479.0198,372.7813 479.0198,372.3906 C479.0198,371.9375 478.6291,371.5469 478.1604,371.5469 C477.9416,371.5469 477.7385,371.625 477.551,371.8125 C477.0979,372.2969 477.0979,372.2969 476.9104,372.3906 C476.4885,372.6563 475.801,372.7813 475.0354,372.7813 C472.9885,372.7813 471.6916,371.6875 471.6916,369.9844 L471.6916,368.8906 C471.6916,367.1094 472.9416,365.7969 474.676,365.7969 C475.2541,365.7969 475.8635,365.9531 476.3323,366.2031 C476.8166,366.4844 476.9885,366.7031 477.0823,367.1094 C477.1448,367.5156 477.176,367.6406 477.3166,367.7656 C477.4573,367.9063 477.6916,368.0156 477.9104,368.0156 C478.176,368.0156 478.4416,367.875 478.6135,367.6563 C478.7229,367.5 478.7541,367.3125 478.7541,366.8906 L478.7541,365.4688 C478.7541,365.0313 478.7385,364.9063 478.6448,364.75 C478.4885,364.4844 478.2073,364.3438 477.9104,364.3438 C477.6135,364.3438 477.4104,364.4375 477.1916,364.75 L477.0198,364.6719 Z " fill="#000000"/><text fill="#000000" font-family="sans-serif" font-size="14" lengthAdjust="spacing" textLength="46" x="495.176" y="373.8467">Tisane</text><line style="stroke:#181818;stroke-width:0.5;" x1="398.426" x2="605.426" y1="385" y2="385"/><ellipse cx="408.426" cy="398.6484" fill="none" rx="3" ry="3" style="stroke:#038048;stroke-width:1.0;"/><text fill="#000000" font-family="sans-serif" font-size="14" lengthAdjust="spacing" textLength="91" x="417.426" y="401.9951">name: string</text><ellipse cx="408.426" cy="414.9453" fill="none" rx="3" ry="3" style="stroke:#038048;stroke-width:1.0;"/><text fill="#000000" font-family="sans-serif" font-size="14" lengthAdjust="spacing" textLength="120" x="417.426" y="418.292">calories: number</text><ellipse cx="408.426" cy="431.2422" fill="none" rx="3" ry="3" style="stroke:#038048;stroke-width:1.0;"/><text fill="#000000" font-family="sans-serif" font-size="14" lengthAdjust="spacing" textLength="111" x="417.426" y="434.5889">feeling: Feeling</text><line style="stroke:#181818;stroke-width:0.5;" x1="398.426" x2="605.426" y1="441.8906" y2="441.8906"/><ellipse cx="408.426" cy="455.5391" fill="#84BE84" rx="3" ry="3" style="stroke:#038048;stroke-width:1.0;"/><text fill="#000000" font-family="sans-serif" font-size="14" lengthAdjust="spacing" textLength="183" x="417.426" y="458.8857">buPar(client: Client): void</text></g><!--MD5=[6c3b745fa7b49bb57ae8e350ff945860]
class Soupe--><g id="elem_Soupe"><rect codeLine="29" fill="#F1F1F1" height="113.1875" id="Soupe" rx="2.5" ry="2.5" style="stroke:#181818;stroke-width:0.5;" width="209" x="713.426" y="353"/><ellipse cx="791.176" cy="369" fill="#ADD1B2" rx="11" ry="11" style="stroke:#181818;stroke-width:1.0;"/><path d="M793.5197,364.6719 C792.5822,364.2344 791.9885,364.0938 791.1135,364.0938 C788.4885,364.0938 786.4885,366.1719 786.4885,368.8906 L786.4885,370.0156 C786.4885,372.5938 788.5979,374.4844 791.4885,374.4844 C792.7072,374.4844 793.8635,374.1875 794.6135,373.6406 C795.1916,373.2344 795.5197,372.7813 795.5197,372.3906 C795.5197,371.9375 795.1291,371.5469 794.6604,371.5469 C794.4416,371.5469 794.2385,371.625 794.051,371.8125 C793.5979,372.2969 793.5979,372.2969 793.4104,372.3906 C792.9885,372.6563 792.301,372.7813 791.5354,372.7813 C789.4885,372.7813 788.1916,371.6875 788.1916,369.9844 L788.1916,368.8906 C788.1916,367.1094 789.4416,365.7969 791.176,365.7969 C791.7541,365.7969 792.3635,365.9531 792.8322,366.2031 C793.3166,366.4844 793.4885,366.7031 793.5822,367.1094 C793.6447,367.5156 793.676,367.6406 793.8166,367.7656 C793.9572,367.9063 794.1916,368.0156 794.4104,368.0156 C794.676,368.0156 794.9416,367.875 795.1135,367.6563 C795.2229,367.5 795.2541,367.3125 795.2541,366.8906 L795.2541,365.4688 C795.2541,365.0313 795.2385,364.9063 795.1447,364.75 C794.9885,364.4844 794.7072,364.3438 794.4104,364.3438 C794.1135,364.3438 793.9104,364.4375 793.6916,364.75 L793.5197,364.6719 Z " fill="#000000"/><text fill="#000000" font-family="sans-serif" font-size="14" lengthAdjust="spacing" textLength="45" x="811.676" y="373.8467">Soupe</text><line style="stroke:#181818;stroke-width:0.5;" x1="714.426" x2="921.426" y1="385" y2="385"/><ellipse cx="724.426" cy="398.6484" fill="none" rx="3" ry="3" style="stroke:#038048;stroke-width:1.0;"/><text fill="#000000" font-family="sans-serif" font-size="14" lengthAdjust="spacing" textLength="91" x="733.426" y="401.9951">name: string</text><ellipse cx="724.426" cy="414.9453" fill="none" rx="3" ry="3" style="stroke:#038048;stroke-width:1.0;"/><text fill="#000000" font-family="sans-serif" font-size="14" lengthAdjust="spacing" textLength="120" x="733.426" y="418.292">calories: number</text><ellipse cx="724.426" cy="431.2422" fill="none" rx="3" ry="3" style="stroke:#038048;stroke-width:1.0;"/><text fill="#000000" font-family="sans-serif" font-size="14" lengthAdjust="spacing" textLength="111" x="733.426" y="434.5889">feeling: Feeling</text><line style="stroke:#181818;stroke-width:0.5;" x1="714.426" x2="921.426" y1="441.8906" y2="441.8906"/><ellipse cx="724.426" cy="455.5391" fill="#84BE84" rx="3" ry="3" style="stroke:#038048;stroke-width:1.0;"/><text fill="#000000" font-family="sans-serif" font-size="14" lengthAdjust="spacing" textLength="183" x="733.426" y="458.8857">buPar(client: Client): void</text></g><!--MD5=[89da9e673ff86b061bfe8082042aba8b]
class Poison--><g id="elem_Poison"><rect codeLine="35" fill="#F1F1F1" height="113.1875" id="Poison" rx="2.5" ry="2.5" style="stroke:#181818;stroke-width:0.5;" width="209" x="957.426" y="353"/><ellipse cx="1034.176" cy="369" fill="#ADD1B2" rx="11" ry="11" style="stroke:#181818;stroke-width:1.0;"/><path d="M1036.5198,364.6719 C1035.5823,364.2344 1034.9885,364.0938 1034.1135,364.0938 C1031.4885,364.0938 1029.4885,366.1719 1029.4885,368.8906 L1029.4885,370.0156 C1029.4885,372.5938 1031.5979,374.4844 1034.4885,374.4844 C1035.7073,374.4844 1036.8635,374.1875 1037.6135,373.6406 C1038.1916,373.2344 1038.5198,372.7813 1038.5198,372.3906 C1038.5198,371.9375 1038.1291,371.5469 1037.6604,371.5469 C1037.4416,371.5469 1037.2385,371.625 1037.051,371.8125 C1036.5979,372.2969 1036.5979,372.2969 1036.4104,372.3906 C1035.9885,372.6563 1035.301,372.7813 1034.5354,372.7813 C1032.4885,372.7813 1031.1916,371.6875 1031.1916,369.9844 L1031.1916,368.8906 C1031.1916,367.1094 1032.4416,365.7969 1034.176,365.7969 C1034.7541,365.7969 1035.3635,365.9531 1035.8323,366.2031 C1036.3166,366.4844 1036.4885,366.7031 1036.5823,367.1094 C1036.6448,367.5156 1036.676,367.6406 1036.8166,367.7656 C1036.9573,367.9063 1037.1916,368.0156 1037.4104,368.0156 C1037.676,368.0156 1037.9416,367.875 1038.1135,367.6563 C1038.2229,367.5 1038.2541,367.3125 1038.2541,366.8906 L1038.2541,365.4688 C1038.2541,365.0313 1038.2385,364.9063 1038.1448,364.75 C1037.9885,364.4844 1037.7073,364.3438 1037.4104,364.3438 C1037.1135,364.3438 1036.9104,364.4375 1036.6916,364.75 L1036.5198,364.6719 Z " fill="#000000"/><text fill="#000000" font-family="sans-serif" font-size="14" lengthAdjust="spacing" textLength="47" x="1054.676" y="373.8467">Poison</text><line style="stroke:#181818;stroke-width:0.5;" x1="958.426" x2="1165.426" y1="385" y2="385"/><ellipse cx="968.426" cy="398.6484" fill="none" rx="3" ry="3" style="stroke:#038048;stroke-width:1.0;"/><text fill="#000000" font-family="sans-serif" font-size="14" lengthAdjust="spacing" textLength="91" x="977.426" y="401.9951">name: string</text><ellipse cx="968.426" cy="414.9453" fill="none" rx="3" ry="3" style="stroke:#038048;stroke-width:1.0;"/><text fill="#000000" font-family="sans-serif" font-size="14" lengthAdjust="spacing" textLength="120" x="977.426" y="418.292">calories: number</text><ellipse cx="968.426" cy="431.2422" fill="none" rx="3" ry="3" style="stroke:#038048;stroke-width:1.0;"/><text fill="#000000" font-family="sans-serif" font-size="14" lengthAdjust="spacing" textLength="111" x="977.426" y="434.5889">feeling: Feeling</text><line style="stroke:#181818;stroke-width:0.5;" x1="958.426" x2="1165.426" y1="441.8906" y2="441.8906"/><ellipse cx="968.426" cy="455.5391" fill="#84BE84" rx="3" ry="3" style="stroke:#038048;stroke-width:1.0;"/><text fill="#000000" font-family="sans-serif" font-size="14" lengthAdjust="spacing" textLength="183" x="977.426" y="458.8857">buPar(client: Client): void</text></g><!--MD5=[3f375bff71375829a53074a7ec43b503]
class Reserve--><g id="elem_Reserve"><rect codeLine="41" fill="#F1F1F1" height="113.1875" id="Reserve" rx="2.5" ry="2.5" style="stroke:#181818;stroke-width:0.5;" width="172" x="494.926" y="7"/><ellipse cx="547.676" cy="23" fill="#ADD1B2" rx="11" ry="11" style="stroke:#181818;stroke-width:1.0;"/><path d="M550.0197,18.6719 C549.0822,18.2344 548.4885,18.0938 547.6135,18.0938 C544.9885,18.0938 542.9885,20.1719 542.9885,22.8906 L542.9885,24.0156 C542.9885,26.5938 545.0979,28.4844 547.9885,28.4844 C549.2072,28.4844 550.3635,28.1875 551.1135,27.6406 C551.6916,27.2344 552.0197,26.7813 552.0197,26.3906 C552.0197,25.9375 551.6291,25.5469 551.1604,25.5469 C550.9416,25.5469 550.7385,25.625 550.551,25.8125 C550.0979,26.2969 550.0979,26.2969 549.9104,26.3906 C549.4885,26.6563 548.801,26.7813 548.0354,26.7813 C545.9885,26.7813 544.6916,25.6875 544.6916,23.9844 L544.6916,22.8906 C544.6916,21.1094 545.9416,19.7969 547.676,19.7969 C548.2541,19.7969 548.8635,19.9531 549.3322,20.2031 C549.8166,20.4844 549.9885,20.7031 550.0822,21.1094 C550.1447,21.5156 550.176,21.6406 550.3166,21.7656 C550.4572,21.9063 550.6916,22.0156 550.9104,22.0156 C551.176,22.0156 551.4416,21.875 551.6135,21.6563 C551.7229,21.5 551.7541,21.3125 551.7541,20.8906 L551.7541,19.4688 C551.7541,19.0313 551.7385,18.9063 551.6447,18.75 C551.4885,18.4844 551.2072,18.3438 550.9104,18.3438 C550.6135,18.3438 550.4104,18.4375 550.1916,18.75 L550.0197,18.6719 Z " fill="#000000"/><text fill="#000000" font-family="sans-serif" font-size="14" lengthAdjust="spacing" textLength="58" x="568.176" y="27.8467">Reserve</text><line style="stroke:#181818;stroke-width:0.5;" x1="495.926" x2="665.926" y1="39" y2="39"/><line style="stroke:#181818;stroke-width:0.5;" x1="495.926" x2="665.926" y1="47" y2="47"/><ellipse cx="505.926" cy="60.6484" fill="#84BE84" rx="3" ry="3" style="stroke:#038048;stroke-width:1.0;"/><text fill="#000000" font-family="sans-serif" font-size="14" lengthAdjust="spacing" text-decoration="underline" textLength="132" x="514.926" y="63.9951">getCafe(): Boisson</text><ellipse cx="505.926" cy="76.9453" fill="#84BE84" rx="3" ry="3" style="stroke:#038048;stroke-width:1.0;"/><text fill="#000000" font-family="sans-serif" font-size="14" lengthAdjust="spacing" text-decoration="underline" textLength="145" x="514.926" y="80.292">getTisane(): Boisson</text><ellipse cx="505.926" cy="93.2422" fill="#84BE84" rx="3" ry="3" style="stroke:#038048;stroke-width:1.0;"/><text fill="#000000" font-family="sans-serif" font-size="14" lengthAdjust="spacing" text-decoration="underline" textLength="144" x="514.926" y="96.5889">getSoupe(): Boisson</text><ellipse cx="505.926" cy="109.5391" fill="#84BE84" rx="3" ry="3" style="stroke:#038048;stroke-width:1.0;"/><text fill="#000000" font-family="sans-serif" font-size="14" lengthAdjust="spacing" text-decoration="underline" textLength="146" x="514.926" y="112.8857">getPoison(): Boisson</text></g><!--MD5=[a03a2be445aa2dc17dad2b19a98734cf]
reverse link Boisson to Cafe--><g id="link_Boisson_Cafe"><path d="M458.276,302.433 C426.73,319.133 393.082,336.947 362.545,353.114 " fill="none" id="Boisson-backto-Cafe" style="stroke:#181818;stroke-width:1.0;stroke-dasharray:7.0,7.0;"/><polygon fill="none" points="455.106,296.19,476.057,293.019,461.657,308.563,455.106,296.19" style="stroke:#181818;stroke-width:1.0;"/></g><!--MD5=[7a1cda5ff9a87a39b4dcfc3586177fe7]
reverse link Boisson to Tisane--><g id="link_Boisson_Tisane"><path d="M546.708,311.566 C540.291,325.457 533.684,339.759 527.581,352.967 " fill="none" id="Boisson-backto-Tisane" style="stroke:#181818;stroke-width:1.0;stroke-dasharray:7.0,7.0;"/><polygon fill="none" points="540.534,308.239,555.277,293.019,553.244,314.111,540.534,308.239" style="stroke:#181818;stroke-width:1.0;"/></g><!--MD5=[a63e137f0cd5b621d73d823fe8961426]
reverse link Boisson to Soupe--><g id="link_Boisson_Soupe"><path d="M674.118,304.74 C696.259,320.715 719.636,337.582 740.96,352.967 " fill="none" id="Boisson-backto-Soupe" style="stroke:#181818;stroke-width:1.0;stroke-dasharray:7.0,7.0;"/><polygon fill="none" points="669.996,310.398,657.873,293.019,678.188,299.044,669.996,310.398" style="stroke:#181818;stroke-width:1.0;"/></g><!--MD5=[076279895a569112761a3e055e843db6]
reverse link Boisson to Poison--><g id="link_Boisson_Poison"><path d="M704.877,273.507 C774.62,294.729 862.901,323.204 939.926,353 C945.569,355.183 951.323,357.495 957.109,359.887 " fill="none" id="Boisson-backto-Poison" style="stroke:#181818;stroke-width:1.0;stroke-dasharray:7.0,7.0;"/><polygon fill="none" points="702.843,280.205,685.723,267.719,706.893,266.804,702.843,280.205" style="stroke:#181818;stroke-width:1.0;"/></g><!--MD5=[02433197f3c79926b4545ecc3dbddb6c]
link Boisson to Feeling--><g id="link_Boisson_Feeling"><path codeLine="47" d="M476.235,249.932 C358.176,266.356 177.2244,299.614 135.926,353 C6,520.953 394.742,663.853 533.048,708.2452 " fill="none" id="Boisson-to-Feeling" style="stroke:#181818;stroke-width:1.0;"/><polygon fill="#181818" points="537.861,709.7827,530.5049,703.2338,533.0981,708.2613,528.0706,710.8544,537.861,709.7827" style="stroke:#181818;stroke-width:1.0;"/><text fill="#000000" font-family="sans-serif" font-size="13" lengthAdjust="spacing" textLength="8" x="521.9436" y="703.1982">1</text></g><!--MD5=[23ea37e739a7b9175080761924ecca07]
link Boisson to Client--><g id="link_Boisson_Client"><path codeLine="48" d="M604.566,293.082 C611.741,311.826 619.016,333.055 623.926,353 C637.936,409.908 644.929,477.281 648.235,520.668 " fill="none" id="Boisson-to-Client" style="stroke:#181818;stroke-width:1.0;"/><polygon fill="#181818" points="648.62,525.838,651.9405,516.5658,648.2486,520.8518,643.9626,517.1599,648.62,525.838" style="stroke:#181818;stroke-width:1.0;"/><text fill="#000000" font-family="sans-serif" font-size="13" lengthAdjust="spacing" textLength="8" x="639.5756" y="514.9727">1</text></g><!--MD5=[dfad43189d8ab09a2a82282a3d9b7175]
link Client to Feeling--><g id="link_Client_Feeling"><path codeLine="49" d="M632.826,607.014 C625.137,623.799 616.002,643.743 607.505,662.293 " fill="none" id="Client-to-Feeling" style="stroke:#181818;stroke-width:1.0;"/><polygon fill="#181818" points="605.359,666.977,612.7444,660.4612,607.4418,662.4315,605.4716,657.1288,605.359,666.977" style="stroke:#181818;stroke-width:1.0;"/><text fill="#000000" font-family="sans-serif" font-size="13" lengthAdjust="spacing" textLength="8" x="600.1051" y="655.8374">1</text></g><!--MD5=[0aa27585021afb2560a893a37e02b346]
link Cafe to Feeling--><g id="link_Cafe_Feeling"><path codeLine="50" d="M315.493,466.279 C377.977,526.823 476.507,622.293 534.007,678.007 " fill="none" id="Cafe-to-Feeling" style="stroke:#181818;stroke-width:1.0;"/><polygon fill="#181818" points="537.735,681.6188,534.055,672.4833,534.1442,678.1394,528.488,678.2286,537.735,681.6188" style="stroke:#181818;stroke-width:1.0;"/><text fill="#000000" font-family="sans-serif" font-size="13" lengthAdjust="spacing" textLength="8" x="521.7959" y="670.1938">1</text></g><!--MD5=[e0e00d251d2f5df8e621304c9eb978c9]
link Cafe to Client--><g id="link_Cafe_Client"><path codeLine="51" d="M362.52,458.695 C368.39,461.208 374.221,463.659 379.926,466 C445.189,492.781 520.609,520.192 575.288,539.443 " fill="none" id="Cafe-to-Client" style="stroke:#181818;stroke-width:1.0;"/><polygon fill="#181818" points="580.181,541.164,573.0173,534.4052,575.4641,539.5055,570.3637,541.9522,580.181,541.164" style="stroke:#181818;stroke-width:1.0;"/><text fill="#000000" font-family="sans-serif" font-size="13" lengthAdjust="spacing" textLength="8" x="564.4729" y="534.8725">1</text></g><!--MD5=[d3b919db789dff4749fe899c6de01f77]
link Tisane to Feeling--><g id="link_Tisane_Feeling"><path codeLine="52" d="M515.871,466.279 C529.631,521.321 550.608,605.227 564.773,661.887 " fill="none" id="Tisane-to-Feeling" style="stroke:#181818;stroke-width:1.0;"/><polygon fill="#181818" points="566.036,666.941,567.7331,657.2395,564.823,662.0904,559.9721,659.1803,566.036,666.941" style="stroke:#181818;stroke-width:1.0;"/><text fill="#000000" font-family="sans-serif" font-size="13" lengthAdjust="spacing" textLength="8" x="555.7438" y="655.7968">1</text></g><!--MD5=[f61d19a34aed713fc7594989dd5f9d56]
link Tisane to Client--><g id="link_Tisane_Client"><path codeLine="53" d="M555.298,466.021 C572.998,484.434 592.433,504.651 609.132,522.023 " fill="none" id="Tisane-to-Client" style="stroke:#181818;stroke-width:1.0;"/><polygon fill="#181818" points="612.872,525.914,609.5191,516.6534,609.4071,522.3092,603.7514,522.1972,612.872,525.914" style="stroke:#181818;stroke-width:1.0;"/><text fill="#000000" font-family="sans-serif" font-size="13" lengthAdjust="spacing" textLength="8" x="597.9068" y="515.0613">1</text></g><!--MD5=[3b65c09884572b0143e4e0201cb32cdc]
link Soupe to Feeling--><g id="link_Soupe_Feeling"><path codeLine="54" d="M804.618,466.016 C792.56,507.9 771.602,565.106 738.926,607 C708.602,645.878 661.847,677.668 626.875,697.9833 " fill="none" id="Soupe-to-Feeling" style="stroke:#181818;stroke-width:1.0;"/><polygon fill="#181818" points="622.238,700.6499,632.0339,699.6303,626.5723,698.1571,628.0455,692.6955,622.238,700.6499" style="stroke:#181818;stroke-width:1.0;"/><text fill="#000000" font-family="sans-serif" font-size="13" lengthAdjust="spacing" textLength="8" x="629.9084" y="692.6855">1</text></g><!--MD5=[8658661a75a283856f57b6f533ba952b]
link Soupe to Client--><g id="link_Soupe_Client"><path codeLine="55" d="M758.107,466.021 C738.102,484.588 716.12,504.991 697.298,522.46 " fill="none" id="Soupe-to-Client" style="stroke:#181818;stroke-width:1.0;"/><polygon fill="#181818" points="693.577,525.914,702.8945,522.7226,697.2415,522.5123,697.4518,516.8594,693.577,525.914" style="stroke:#181818;stroke-width:1.0;"/><text fill="#000000" font-family="sans-serif" font-size="13" lengthAdjust="spacing" textLength="8" x="691.9786" y="515.0613">1</text></g><!--MD5=[8c6c8c480896da05bfa851e7cf5014a1]
link Poison to Feeling--><g id="link_Poison_Feeling"><path codeLine="56" d="M989.378,466.024 C935.045,506.738 858.276,562.45 787.926,607 C734.055,641.115 669.518,676.086 626.768,698.475 " fill="none" id="Poison-to-Feeling" style="stroke:#181818;stroke-width:1.0;"/><polygon fill="#181818" points="622.184,700.8716,632.0131,700.2482,626.6154,698.5558,628.3078,693.158,622.184,700.8716" style="stroke:#181818;stroke-width:1.0;"/><text fill="#000000" font-family="sans-serif" font-size="13" lengthAdjust="spacing" textLength="8" x="629.8455" y="710.4283">1</text></g><!--MD5=[838ad23e7aff3808e1dd3de6344ea8e2]
link Poison to Client--><g id="link_Poison_Client"><path codeLine="57" d="M957.388,458.835 C951.504,461.312 945.654,463.717 939.926,466 C868.487,494.472 785.313,522.596 726.586,541.64 " fill="none" id="Poison-to-Client" style="stroke:#181818;stroke-width:1.0;"/><polygon fill="#181818" points="721.691,543.225,731.4855,544.2587,726.448,541.6851,729.0216,536.6475,721.691,543.225" style="stroke:#181818;stroke-width:1.0;"/><text fill="#000000" font-family="sans-serif" font-size="13" lengthAdjust="spacing" textLength="8" x="729.4011" y="537.146">1</text></g><!--MD5=[032c85056b587417fb3585455ef17881]
link Reserve to Boisson--><g id="link_Reserve_Boisson"><path codeLine="58" d="M580.926,120.019 C580.926,137.579 580.926,157.072 580.926,174.966 " fill="none" id="Reserve-to-Boisson" style="stroke:#181818;stroke-width:1.0;"/><polygon fill="#181818" points="580.926,179.967,584.926,170.967,580.926,174.967,576.926,170.967,580.926,179.967" style="stroke:#181818;stroke-width:1.0;"/><text fill="#000000" font-family="sans-serif" font-size="13" lengthAdjust="spacing" textLength="8" x="572.4135" y="168.8262">1</text></g><!--MD5=[c727eb7c891165308a6b6595fcb81762]
@startuml
enum Feeling {
    normal
    awake
    rest
    full
}
interface Boisson {
    +name: string
    +calories: number
    +feeling: Feeling
    +buPar(client: Client): void
}
class Client {
    +feeling: Feeling
    +energy: number
}
class Cafe implements Boisson {
    +name: string
    +calories: number
    +feeling: Feeling
    +buPar(client: Client): void
}
class Tisane implements Boisson {
    +name: string
    +calories: number
    +feeling: Feeling
    +buPar(client: Client): void
}
class Soupe implements Boisson {
    +name: string
    +calories: number
    +feeling: Feeling
    +buPar(client: Client): void
}
class Poison implements Boisson {
    +name: string
    +calories: number
    +feeling: Feeling
    +buPar(client: Client): void
}
class Reserve {
    +{static} getCafe(): Boisson
    +{static} getTisane(): Boisson
    +{static} getSoupe(): Boisson
    +{static} getPoison(): Boisson
}
Boisson - -> "1" Feeling
Boisson - -> "1" Client
Client - -> "1" Feeling
Cafe - -> "1" Feeling
Cafe - -> "1" Client
Tisane - -> "1" Feeling
Tisane - -> "1" Client
Soupe - -> "1" Feeling
Soupe - -> "1" Client
Poison - -> "1" Feeling
Poison - -> "1" Client
Reserve - -> "1" Boisson
@enduml

PlantUML version 1.2022.14beta1(Unknown compile time)
(GPL source distribution)
Java Runtime: Java(TM) SE Runtime Environment
JVM: Java HotSpot(TM) 64-Bit Server VM
Default Encoding: UTF-8
Language: en
Country: US
--></g></svg>